G04*
G04 #@! TF.GenerationSoftware,Altium Limited,Altium Designer,19.0.10 (269)*
G04*
G04 Layer_Physical_Order=2*
G04 Layer_Color=16711680*
%FSLAX25Y25*%
%MOIN*%
G70*
G01*
G75*
%ADD10C,0.03937*%
%ADD11C,0.05906*%
%ADD12R,0.05906X0.05906*%
%ADD13R,0.05906X0.05906*%
%ADD14C,0.15748*%
%ADD15C,0.23622*%
%ADD16C,0.07874*%
%ADD17C,0.11811*%
%ADD18C,0.08000*%
%ADD19R,0.07087X0.04134*%
%ADD20R,0.10315X0.12598*%
G36*
X298000Y313500D02*
Y0D01*
X0D01*
Y314000D01*
X297500D01*
X298000Y313500D01*
D02*
G37*
%LPC*%
G36*
X260500Y308934D02*
X226500D01*
X225342Y308820D01*
X224229Y308482D01*
X223203Y307934D01*
X223049Y307807D01*
X214445Y305444D01*
X213993Y305993D01*
X212495Y307223D01*
X210785Y308137D01*
X208929Y308700D01*
X207000Y308890D01*
X205070Y308700D01*
X203215Y308137D01*
X201505Y307223D01*
X200007Y305993D01*
X198777Y304495D01*
X197863Y302785D01*
X197300Y300929D01*
X197110Y299000D01*
X197300Y297071D01*
X197863Y295215D01*
X198777Y293505D01*
X200007Y292007D01*
X201505Y290777D01*
X203215Y289863D01*
X205070Y289300D01*
X205565Y289251D01*
Y288749D01*
X205070Y288700D01*
X203215Y288137D01*
X201505Y287223D01*
X200007Y285993D01*
X198777Y284495D01*
X197863Y282785D01*
X197300Y280929D01*
X197110Y279000D01*
X197300Y277070D01*
X197863Y275215D01*
X198777Y273505D01*
X200007Y272007D01*
X201066Y271137D01*
Y263363D01*
X200007Y262493D01*
X198777Y260995D01*
X197863Y259285D01*
X197300Y257430D01*
X197110Y255500D01*
X197300Y253571D01*
X197863Y251715D01*
X198777Y250005D01*
X200007Y248507D01*
X201505Y247277D01*
X203215Y246363D01*
X205070Y245800D01*
X205565Y245751D01*
Y245249D01*
X205070Y245200D01*
X203215Y244637D01*
X201505Y243723D01*
X200007Y242493D01*
X198777Y240995D01*
X197863Y239285D01*
X197300Y237429D01*
X197110Y235500D01*
X197300Y233571D01*
X197863Y231715D01*
X198777Y230005D01*
X200007Y228507D01*
X201505Y227277D01*
X203215Y226363D01*
X205070Y225800D01*
X207000Y225610D01*
X208929Y225800D01*
X210785Y226363D01*
X212495Y227277D01*
X213993Y228507D01*
X215223Y230005D01*
X216137Y231715D01*
X216700Y233571D01*
X216798Y234566D01*
X218020D01*
Y234496D01*
X224612D01*
X241804Y217304D01*
X242703Y216566D01*
X243729Y216018D01*
X244842Y215680D01*
X246000Y215566D01*
X267000D01*
X268158Y215680D01*
X269271Y216018D01*
X270297Y216566D01*
X271196Y217304D01*
X279032Y225140D01*
X280044Y225240D01*
X281528Y225690D01*
X282896Y226421D01*
X284095Y227405D01*
X285079Y228604D01*
X285810Y229972D01*
X286260Y231456D01*
X286412Y233000D01*
X286260Y234544D01*
X285810Y236028D01*
X285079Y237396D01*
X284095Y238595D01*
X282896Y239579D01*
X281528Y240310D01*
X280044Y240760D01*
X278500Y240912D01*
X276956Y240760D01*
X275472Y240310D01*
X274104Y239579D01*
X272905Y238595D01*
X271921Y237396D01*
X271190Y236028D01*
X270740Y234544D01*
X270640Y233532D01*
X264542Y227434D01*
X248458D01*
X245834Y230058D01*
X246099Y230500D01*
X246956Y230240D01*
X248500Y230088D01*
X250044Y230240D01*
X251528Y230690D01*
X252896Y231421D01*
X254095Y232405D01*
X255079Y233604D01*
X255810Y234972D01*
X256260Y236456D01*
X256412Y238000D01*
X256260Y239544D01*
X255810Y241028D01*
X255079Y242396D01*
X254095Y243595D01*
X252896Y244579D01*
X251528Y245310D01*
X250044Y245760D01*
X249032Y245860D01*
X239696Y255196D01*
X238797Y255934D01*
X237771Y256482D01*
X236658Y256820D01*
X235500Y256934D01*
X232980D01*
Y257004D01*
X231471D01*
Y275496D01*
X231980D01*
Y285996D01*
Y291725D01*
X231982Y291729D01*
X232320Y292842D01*
X232434Y294000D01*
Y297066D01*
X237110D01*
Y286610D01*
X250890D01*
Y286864D01*
X251261Y287087D01*
X251390Y287092D01*
X252649Y286710D01*
X254000Y286577D01*
X255351Y286710D01*
X256649Y287104D01*
X257846Y287744D01*
X258634Y288390D01*
X259000Y288557D01*
X259366Y288390D01*
X260154Y287744D01*
X261351Y287104D01*
X262649Y286710D01*
X264000Y286577D01*
X265351Y286710D01*
X266649Y287104D01*
X267846Y287744D01*
X268634Y288390D01*
X269000Y288557D01*
X269366Y288390D01*
X270154Y287744D01*
X271351Y287104D01*
X272649Y286710D01*
X274000Y286577D01*
X275351Y286710D01*
X276649Y287104D01*
X277566Y287594D01*
X278066Y287294D01*
Y286657D01*
X261304Y269895D01*
X260566Y268996D01*
X260018Y267970D01*
X259680Y266857D01*
X259566Y265699D01*
Y256181D01*
X258921Y255396D01*
X258190Y254028D01*
X257740Y252544D01*
X257588Y251000D01*
X257740Y249456D01*
X258190Y247972D01*
X258921Y246604D01*
X259905Y245405D01*
X261104Y244421D01*
X262472Y243690D01*
X263956Y243240D01*
X265500Y243088D01*
X267044Y243240D01*
X268528Y243690D01*
X269896Y244421D01*
X271095Y245405D01*
X272079Y246604D01*
X272810Y247972D01*
X273260Y249456D01*
X273412Y251000D01*
X273260Y252544D01*
X272810Y254028D01*
X272079Y255396D01*
X271434Y256181D01*
Y259390D01*
X271934Y259516D01*
X272421Y258604D01*
X273405Y257405D01*
X274604Y256421D01*
X275972Y255690D01*
X277456Y255240D01*
X279000Y255088D01*
X280544Y255240D01*
X282028Y255690D01*
X283396Y256421D01*
X284595Y257405D01*
X285579Y258604D01*
X286310Y259972D01*
X286760Y261456D01*
X286912Y263000D01*
X286760Y264544D01*
X286310Y266028D01*
X285579Y267396D01*
X284595Y268595D01*
X283396Y269579D01*
X282028Y270310D01*
X280544Y270760D01*
X279678Y270845D01*
X279509Y271316D01*
X288196Y280003D01*
X288934Y280902D01*
X289482Y281928D01*
X289820Y283041D01*
X289934Y284199D01*
Y289986D01*
X290396Y290851D01*
X290790Y292149D01*
X290923Y293500D01*
X290790Y294851D01*
X290396Y296149D01*
X289756Y297346D01*
X288895Y298395D01*
X287846Y299256D01*
X286649Y299896D01*
X285351Y300290D01*
X284000Y300423D01*
X282649Y300290D01*
X281351Y299896D01*
X280154Y299256D01*
X279366Y298610D01*
X279000Y298443D01*
X278634Y298610D01*
X277846Y299256D01*
X276649Y299896D01*
X275351Y300290D01*
X274000Y300423D01*
X272649Y300290D01*
X271351Y299896D01*
X270434Y299406D01*
X270300Y299431D01*
X269915Y299694D01*
X269820Y300658D01*
X269482Y301771D01*
X268934Y302797D01*
X268196Y303696D01*
X264696Y307196D01*
X263797Y307934D01*
X262771Y308482D01*
X261658Y308820D01*
X260500Y308934D01*
D02*
G37*
G36*
X18390Y303390D02*
X4610D01*
Y289610D01*
X4864D01*
X5086Y289239D01*
X5092Y289110D01*
X4710Y287851D01*
X4577Y286500D01*
X4710Y285149D01*
X5104Y283851D01*
X5744Y282654D01*
X6605Y281605D01*
X7654Y280744D01*
X8851Y280104D01*
X8938Y280077D01*
X9028Y279585D01*
X13972D01*
X14062Y280077D01*
X14149Y280104D01*
X15346Y280744D01*
X16395Y281605D01*
X16595Y281848D01*
X17066Y281680D01*
Y271320D01*
X16595Y271152D01*
X16395Y271395D01*
X15346Y272256D01*
X14149Y272896D01*
X14062Y272923D01*
X13972Y273415D01*
X9028D01*
X8938Y272923D01*
X8851Y272896D01*
X7654Y272256D01*
X6605Y271395D01*
X5744Y270346D01*
X5104Y269149D01*
X4710Y267851D01*
X4577Y266500D01*
X4710Y265149D01*
X5104Y263851D01*
X5744Y262654D01*
X6605Y261605D01*
Y261395D01*
X5744Y260346D01*
X5104Y259149D01*
X4710Y257851D01*
X4577Y256500D01*
X4710Y255149D01*
X5104Y253851D01*
X5744Y252654D01*
X6605Y251605D01*
X7654Y250744D01*
X8851Y250104D01*
X10149Y249710D01*
X11500Y249577D01*
X12851Y249710D01*
X14149Y250104D01*
X15346Y250744D01*
X16337Y251557D01*
X16579Y251523D01*
X16869Y251393D01*
X16897Y251209D01*
X10871Y245182D01*
X10133Y244283D01*
X9585Y243257D01*
X9247Y242144D01*
X9133Y240986D01*
Y220736D01*
X4972D01*
Y200264D01*
X23162D01*
Y220736D01*
X21001D01*
Y238528D01*
X25068Y242595D01*
X25539Y242359D01*
X25690Y241211D01*
X26188Y240010D01*
X26979Y238979D01*
X28010Y238188D01*
X29211Y237690D01*
X30000Y237586D01*
Y242500D01*
Y247414D01*
X29211Y247310D01*
X29147Y247284D01*
X28777Y247619D01*
X28820Y247762D01*
X28934Y248919D01*
X28934Y248920D01*
Y292500D01*
X28820Y293658D01*
X28482Y294771D01*
X27934Y295797D01*
X27196Y296696D01*
X23196Y300696D01*
X22297Y301434D01*
X21271Y301982D01*
X20158Y302320D01*
X19000Y302434D01*
X18390D01*
Y303390D01*
D02*
G37*
G36*
X249000Y275912D02*
X247456Y275760D01*
X245972Y275310D01*
X244604Y274579D01*
X243405Y273595D01*
X242421Y272396D01*
X241690Y271028D01*
X241240Y269544D01*
X241088Y268000D01*
X241240Y266456D01*
X241690Y264972D01*
X242421Y263604D01*
X243405Y262405D01*
X244604Y261421D01*
X245972Y260690D01*
X247456Y260240D01*
X249000Y260088D01*
X250544Y260240D01*
X252028Y260690D01*
X253396Y261421D01*
X254595Y262405D01*
X255579Y263604D01*
X256310Y264972D01*
X256760Y266456D01*
X256912Y268000D01*
X256760Y269544D01*
X256310Y271028D01*
X255579Y272396D01*
X254595Y273595D01*
X253396Y274579D01*
X252028Y275310D01*
X250544Y275760D01*
X249000Y275912D01*
D02*
G37*
G36*
X31000Y247414D02*
Y243000D01*
X35414D01*
X35310Y243789D01*
X34813Y244990D01*
X34021Y246021D01*
X32990Y246813D01*
X31789Y247310D01*
X31000Y247414D01*
D02*
G37*
G36*
X35414Y242000D02*
X31000D01*
Y237586D01*
X31789Y237690D01*
X32990Y238188D01*
X34021Y238979D01*
X34813Y240010D01*
X35310Y241211D01*
X35414Y242000D01*
D02*
G37*
G36*
X16142Y194412D02*
X14599Y194260D01*
X13115Y193810D01*
X11747Y193079D01*
X10548Y192095D01*
X9564Y190896D01*
X8833Y189528D01*
X8382Y188044D01*
X8230Y186500D01*
X8382Y184956D01*
X8833Y183472D01*
X9564Y182104D01*
X10548Y180905D01*
X11747Y179921D01*
X13115Y179190D01*
X14599Y178740D01*
X16142Y178588D01*
X17686Y178740D01*
X19170Y179190D01*
X20538Y179921D01*
X21737Y180905D01*
X22721Y182104D01*
X23452Y183472D01*
X23902Y184956D01*
X24054Y186500D01*
X23902Y188044D01*
X23452Y189528D01*
X22721Y190896D01*
X21737Y192095D01*
X20538Y193079D01*
X19170Y193810D01*
X17686Y194260D01*
X16142Y194412D01*
D02*
G37*
G36*
X55028Y220736D02*
X36838D01*
Y200264D01*
X40208D01*
Y186681D01*
X39564Y185896D01*
X38833Y184528D01*
X38382Y183044D01*
X38230Y181500D01*
X38382Y179956D01*
X38833Y178472D01*
X39564Y177104D01*
X40548Y175905D01*
X41747Y174921D01*
X43115Y174190D01*
X44599Y173740D01*
X45187Y173682D01*
X45194Y173680D01*
X46352Y173566D01*
X47509Y173680D01*
X48623Y174018D01*
X48650Y174032D01*
X49170Y174190D01*
X50538Y174921D01*
X51737Y175905D01*
X52721Y177104D01*
X53452Y178472D01*
X53902Y179956D01*
X54054Y181500D01*
X53902Y183044D01*
X53452Y184528D01*
X52721Y185896D01*
X52076Y186681D01*
Y200264D01*
X55028D01*
Y220736D01*
D02*
G37*
G36*
X83000Y195847D02*
X81147Y195702D01*
X79339Y195268D01*
X77621Y194556D01*
X76036Y193585D01*
X74622Y192377D01*
X73415Y190964D01*
X72444Y189379D01*
X71732Y187661D01*
X71298Y185853D01*
X71153Y184000D01*
X71298Y182147D01*
X71732Y180339D01*
X72444Y178621D01*
X73415Y177036D01*
X74622Y175622D01*
X76036Y174415D01*
X77621Y173444D01*
X79339Y172732D01*
X81147Y172298D01*
X83000Y172152D01*
X84853Y172298D01*
X86661Y172732D01*
X88379Y173444D01*
X89964Y174415D01*
X91378Y175622D01*
X92585Y177036D01*
X93556Y178621D01*
X94268Y180339D01*
X94702Y182147D01*
X94848Y184000D01*
X94702Y185853D01*
X94268Y187661D01*
X93556Y189379D01*
X92585Y190964D01*
X91378Y192377D01*
X89964Y193585D01*
X88379Y194556D01*
X86661Y195268D01*
X84853Y195702D01*
X83000Y195847D01*
D02*
G37*
G36*
X273000Y199797D02*
X270529Y199602D01*
X268119Y199024D01*
X265828Y198075D01*
X263715Y196780D01*
X261830Y195170D01*
X260220Y193285D01*
X258925Y191172D01*
X257976Y188882D01*
X257398Y186471D01*
X257203Y184000D01*
X257398Y181529D01*
X257976Y179119D01*
X258925Y176828D01*
X260220Y174715D01*
X261830Y172830D01*
X263715Y171220D01*
X265828Y169925D01*
X268119Y168976D01*
X270529Y168398D01*
X273000Y168203D01*
X275471Y168398D01*
X277882Y168976D01*
X280172Y169925D01*
X282285Y171220D01*
X284170Y172830D01*
X285780Y174715D01*
X287075Y176828D01*
X288024Y179119D01*
X288602Y181529D01*
X288797Y184000D01*
X288602Y186471D01*
X288024Y188882D01*
X287075Y191172D01*
X285780Y193285D01*
X284170Y195170D01*
X282285Y196780D01*
X280172Y198075D01*
X277882Y199024D01*
X275471Y199602D01*
X273000Y199797D01*
D02*
G37*
G36*
Y155848D02*
X271147Y155702D01*
X269339Y155268D01*
X267621Y154556D01*
X266036Y153585D01*
X264622Y152377D01*
X263415Y150964D01*
X262444Y149379D01*
X261732Y147661D01*
X261298Y145853D01*
X261153Y144000D01*
X261298Y142147D01*
X261732Y140339D01*
X262444Y138621D01*
X263415Y137036D01*
X264622Y135623D01*
X266036Y134415D01*
X267621Y133444D01*
X269339Y132732D01*
X271147Y132298D01*
X273000Y132152D01*
X274853Y132298D01*
X276661Y132732D01*
X278379Y133444D01*
X279964Y134415D01*
X281378Y135623D01*
X282585Y137036D01*
X283556Y138621D01*
X284268Y140339D01*
X284702Y142147D01*
X284847Y144000D01*
X284702Y145853D01*
X284268Y147661D01*
X283556Y149379D01*
X282585Y150964D01*
X281378Y152377D01*
X279964Y153585D01*
X278379Y154556D01*
X276661Y155268D01*
X274853Y155702D01*
X273000Y155848D01*
D02*
G37*
G36*
X83000D02*
X81147Y155702D01*
X79339Y155268D01*
X77621Y154556D01*
X76036Y153585D01*
X74622Y152377D01*
X73415Y150964D01*
X72444Y149379D01*
X71732Y147661D01*
X71298Y145853D01*
X71153Y144000D01*
X71298Y142147D01*
X71732Y140339D01*
X72444Y138621D01*
X73415Y137036D01*
X74622Y135623D01*
X76036Y134415D01*
X77621Y133444D01*
X79339Y132732D01*
X81147Y132298D01*
X83000Y132152D01*
X84853Y132298D01*
X86661Y132732D01*
X88379Y133444D01*
X89964Y134415D01*
X91378Y135623D01*
X92585Y137036D01*
X93556Y138621D01*
X94268Y140339D01*
X94702Y142147D01*
X94848Y144000D01*
X94702Y145853D01*
X94268Y147661D01*
X93556Y149379D01*
X92585Y150964D01*
X91378Y152377D01*
X89964Y153585D01*
X88379Y154556D01*
X86661Y155268D01*
X84853Y155702D01*
X83000Y155848D01*
D02*
G37*
G36*
X273000Y125847D02*
X271147Y125702D01*
X269339Y125268D01*
X267621Y124556D01*
X266036Y123585D01*
X264622Y122378D01*
X263415Y120964D01*
X262444Y119379D01*
X261732Y117661D01*
X261298Y115853D01*
X261153Y114000D01*
X261298Y112147D01*
X261732Y110339D01*
X262444Y108621D01*
X263415Y107036D01*
X264622Y105622D01*
X266036Y104415D01*
X267621Y103444D01*
X269339Y102732D01*
X271147Y102298D01*
X273000Y102153D01*
X274853Y102298D01*
X276661Y102732D01*
X278379Y103444D01*
X279964Y104415D01*
X281378Y105622D01*
X282585Y107036D01*
X283556Y108621D01*
X284268Y110339D01*
X284702Y112147D01*
X284847Y114000D01*
X284702Y115853D01*
X284268Y117661D01*
X283556Y119379D01*
X282585Y120964D01*
X281378Y122378D01*
X279964Y123585D01*
X278379Y124556D01*
X276661Y125268D01*
X274853Y125702D01*
X273000Y125847D01*
D02*
G37*
G36*
X31500Y109475D02*
X29944Y109322D01*
X28448Y108868D01*
X27069Y108131D01*
X25861Y107140D01*
X24869Y105931D01*
X24132Y104552D01*
X23678Y103056D01*
X23525Y101500D01*
X23678Y99944D01*
X24132Y98448D01*
X24869Y97069D01*
X25861Y95860D01*
X27069Y94869D01*
X28448Y94132D01*
X29944Y93678D01*
X31500Y93525D01*
X33056Y93678D01*
X34552Y94132D01*
X35931Y94869D01*
X37139Y95860D01*
X38131Y97069D01*
X38868Y98448D01*
X39322Y99944D01*
X39475Y101500D01*
X39322Y103056D01*
X38868Y104552D01*
X38131Y105931D01*
X37139Y107140D01*
X35931Y108131D01*
X34552Y108868D01*
X33056Y109322D01*
X31500Y109475D01*
D02*
G37*
G36*
X273000Y95847D02*
X271147Y95702D01*
X269339Y95268D01*
X267621Y94556D01*
X266036Y93585D01*
X264622Y92378D01*
X263415Y90964D01*
X262444Y89379D01*
X261732Y87661D01*
X261298Y85853D01*
X261153Y84000D01*
X261298Y82147D01*
X261732Y80339D01*
X262444Y78621D01*
X263415Y77036D01*
X264622Y75622D01*
X266036Y74415D01*
X267621Y73444D01*
X269339Y72732D01*
X271147Y72298D01*
X273000Y72153D01*
X274853Y72298D01*
X276661Y72732D01*
X278379Y73444D01*
X279964Y74415D01*
X281378Y75622D01*
X282585Y77036D01*
X283556Y78621D01*
X284268Y80339D01*
X284702Y82147D01*
X284847Y84000D01*
X284702Y85853D01*
X284268Y87661D01*
X283556Y89379D01*
X282585Y90964D01*
X281378Y92378D01*
X279964Y93585D01*
X278379Y94556D01*
X276661Y95268D01*
X274853Y95702D01*
X273000Y95847D01*
D02*
G37*
G36*
X83000Y55848D02*
X81147Y55702D01*
X79339Y55268D01*
X77621Y54556D01*
X76036Y53585D01*
X74622Y52377D01*
X73415Y50964D01*
X72444Y49379D01*
X71732Y47661D01*
X71298Y45853D01*
X71153Y44000D01*
X71298Y42147D01*
X71732Y40339D01*
X72444Y38621D01*
X73415Y37036D01*
X74622Y35623D01*
X76036Y34415D01*
X77621Y33444D01*
X79339Y32732D01*
X81147Y32298D01*
X83000Y32153D01*
X84853Y32298D01*
X86661Y32732D01*
X88379Y33444D01*
X89964Y34415D01*
X91378Y35623D01*
X92585Y37036D01*
X93556Y38621D01*
X94268Y40339D01*
X94702Y42147D01*
X94848Y44000D01*
X94702Y45853D01*
X94268Y47661D01*
X93556Y49379D01*
X92585Y50964D01*
X91378Y52377D01*
X89964Y53585D01*
X88379Y54556D01*
X86661Y55268D01*
X84853Y55702D01*
X83000Y55848D01*
D02*
G37*
G36*
X273000Y59797D02*
X270529Y59602D01*
X268119Y59024D01*
X265828Y58075D01*
X263715Y56780D01*
X261830Y55170D01*
X260220Y53285D01*
X258925Y51172D01*
X257976Y48882D01*
X257398Y46471D01*
X257203Y44000D01*
X257398Y41529D01*
X257976Y39118D01*
X258925Y36828D01*
X260220Y34715D01*
X261830Y32830D01*
X263715Y31220D01*
X265828Y29925D01*
X268119Y28976D01*
X270529Y28398D01*
X273000Y28203D01*
X275471Y28398D01*
X277882Y28976D01*
X280172Y29925D01*
X282285Y31220D01*
X284170Y32830D01*
X285780Y34715D01*
X287075Y36828D01*
X288024Y39118D01*
X288602Y41529D01*
X288797Y44000D01*
X288602Y46471D01*
X288024Y48882D01*
X287075Y51172D01*
X285780Y53285D01*
X284170Y55170D01*
X282285Y56780D01*
X280172Y58075D01*
X277882Y59024D01*
X275471Y59602D01*
X273000Y59797D01*
D02*
G37*
G36*
X31500Y18475D02*
X29944Y18322D01*
X28448Y17868D01*
X27069Y17131D01*
X25861Y16139D01*
X24869Y14931D01*
X24132Y13552D01*
X23678Y12056D01*
X23525Y10500D01*
X23678Y8944D01*
X24132Y7448D01*
X24869Y6069D01*
X25861Y4860D01*
X27069Y3869D01*
X28448Y3132D01*
X29944Y2678D01*
X31500Y2525D01*
X33056Y2678D01*
X34552Y3132D01*
X35931Y3869D01*
X37139Y4860D01*
X38131Y6069D01*
X38868Y7448D01*
X39322Y8944D01*
X39475Y10500D01*
X39322Y12056D01*
X38868Y13552D01*
X38131Y14931D01*
X37139Y16139D01*
X35931Y17131D01*
X34552Y17868D01*
X33056Y18322D01*
X31500Y18475D01*
D02*
G37*
%LPD*%
G36*
X225500Y290000D02*
X205323Y298820D01*
X226000Y304500D01*
X225500Y290000D01*
D02*
G37*
G36*
X217020Y289373D02*
Y287721D01*
X211564D01*
X210785Y288137D01*
X208929Y288700D01*
X208435Y288749D01*
Y289251D01*
X208929Y289300D01*
X210785Y289863D01*
X212495Y290777D01*
X212951Y291151D01*
X217020Y289373D01*
D02*
G37*
G36*
X217333Y281750D02*
X227500D01*
Y251250D01*
X225500Y249250D01*
X208500D01*
Y283250D01*
X209000Y283750D01*
X224000D01*
X217333Y281750D01*
D02*
G37*
G36*
X240640Y237468D02*
X240740Y236456D01*
X241000Y235599D01*
X240558Y235334D01*
X232980Y242912D01*
Y244421D01*
X233480Y244628D01*
X240640Y237468D01*
D02*
G37*
%LPC*%
G36*
X217333Y281750D02*
X211500D01*
X209000Y279250D01*
X217333Y281750D01*
D02*
G37*
%LPD*%
D10*
X19000Y296500D02*
X23000Y292500D01*
Y248919D02*
Y292500D01*
X207000Y235500D02*
X212000Y240500D01*
X225500D01*
X226500Y294000D02*
Y303000D01*
X260500D01*
X224500Y292000D02*
X226500Y294000D01*
X260500Y303000D02*
X264000Y299500D01*
X207000Y299000D02*
X217500D01*
X11500Y296500D02*
X19000D01*
X15067Y211500D02*
Y240986D01*
X23000Y248919D01*
X30500Y137000D02*
X59500Y108000D01*
Y93000D02*
Y108000D01*
X30500Y137000D02*
Y242500D01*
X264000Y293500D02*
Y299500D01*
X265500Y251000D02*
Y265699D01*
X284000Y284199D01*
Y293500D01*
X46142Y181500D02*
Y210291D01*
Y179709D02*
Y181500D01*
X45933Y210500D02*
X46142Y210291D01*
Y179709D02*
X46352Y179500D01*
X246000Y221500D02*
X267000D01*
X227000Y240500D02*
X246000Y221500D01*
X225500Y240500D02*
X227000D01*
X267000Y221500D02*
X278500Y233000D01*
X207000Y255500D02*
Y279000D01*
X11500Y276500D02*
X12046Y275954D01*
X211500Y251000D02*
X225500D01*
X207000Y255500D02*
X211500Y251000D01*
X218200Y281500D02*
X224500D01*
X215700Y279000D02*
X218200Y281500D01*
X207000Y279000D02*
X215700D01*
X225500Y251000D02*
X235500D01*
X248500Y238000D01*
D11*
X284000Y293500D02*
D03*
X274000D02*
D03*
X264000D02*
D03*
X254000D02*
D03*
X11500Y256500D02*
D03*
Y266500D02*
D03*
Y276500D02*
D03*
Y286500D02*
D03*
D12*
X244000Y293500D02*
D03*
D13*
X11500Y296500D02*
D03*
D14*
X273000Y114000D02*
D03*
X83000Y44000D02*
D03*
Y84000D02*
D03*
Y144000D02*
D03*
Y184000D02*
D03*
X273000Y84000D02*
D03*
Y144000D02*
D03*
D15*
Y184000D02*
D03*
Y44000D02*
D03*
D16*
X16142Y186500D02*
D03*
X46142Y181500D02*
D03*
X248500Y238000D02*
D03*
X278500Y233000D02*
D03*
X279000Y263000D02*
D03*
X249000Y268000D02*
D03*
X59500Y93000D02*
D03*
X30500Y242500D02*
D03*
X265500Y251000D02*
D03*
D17*
X207000Y255500D02*
D03*
Y235500D02*
D03*
Y299000D02*
D03*
Y279000D02*
D03*
D18*
X31500Y10500D02*
D03*
Y101500D02*
D03*
D19*
X225500Y251000D02*
D03*
Y240500D02*
D03*
X224500Y292000D02*
D03*
Y281500D02*
D03*
D20*
X14067Y210500D02*
D03*
X45933D02*
D03*
M02*
