M48
;Layer_Color=9474304
;FILE_FORMAT=2:5
INCH,LZ
;TYPE=PLATED
T1F00S00C0.03543
T2F00S00C0.03937
T3F00S00C0.04000
T4F00S00C0.05906
T5F00S00C0.07874
T6F00S00C0.11811
T7F00S00C0.17717
%
T01
X0244Y02935
X0254
X0264
X0274
X0284
X00115Y02965
Y02865
Y02765
Y02665
Y02565
T02
X00595Y0093
X02655Y0251
X00305Y02425
T03
X00315Y00105
Y01015
T04
X02485Y0238
X0249Y0268
X0279Y0263
X02785Y0233
X0046142Y01815
X0016142Y01865
T05
X0207Y02355
Y02555
Y0279
Y0299
T06
X0083Y0044
Y0084
Y0144
X0273
Y0114
Y0084
X0083Y0184
T07
X0273Y0044
Y0184
M30
