G04*
G04 #@! TF.GenerationSoftware,Altium Limited,Altium Designer,19.0.10 (269)*
G04*
G04 Layer_Physical_Order=1*
G04 Layer_Color=255*
%FSLAX25Y25*%
%MOIN*%
G70*
G01*
G75*
%ADD10C,0.03937*%
%ADD11C,0.05906*%
%ADD12R,0.05906X0.05906*%
%ADD13R,0.05906X0.05906*%
%ADD14C,0.15748*%
%ADD15C,0.23622*%
%ADD16C,0.07874*%
%ADD17C,0.11811*%
%ADD18C,0.08000*%
G36*
X298000Y314000D02*
Y0D01*
X500D01*
X0Y500D01*
Y314500D01*
X297500D01*
X298000Y314000D01*
D02*
G37*
%LPC*%
G36*
X284000Y300423D02*
X282649Y300290D01*
X281351Y299896D01*
X280154Y299256D01*
X279366Y298610D01*
X279000Y298443D01*
X278634Y298610D01*
X277846Y299256D01*
X276649Y299896D01*
X275351Y300290D01*
X274000Y300423D01*
X272649Y300290D01*
X271351Y299896D01*
X270154Y299256D01*
X269366Y298610D01*
X269000Y298443D01*
X268634Y298610D01*
X267846Y299256D01*
X266649Y299896D01*
X265351Y300290D01*
X264000Y300423D01*
X262649Y300290D01*
X261351Y299896D01*
X260154Y299256D01*
X259366Y298610D01*
X259000Y298443D01*
X258634Y298610D01*
X257846Y299256D01*
X256649Y299896D01*
X255351Y300290D01*
X254000Y300423D01*
X252649Y300290D01*
X251390Y299908D01*
X251261Y299914D01*
X250890Y300136D01*
Y300390D01*
X237110D01*
Y286610D01*
X238066D01*
Y284458D01*
X232804Y279196D01*
X232066Y278297D01*
X231518Y277271D01*
X231180Y276158D01*
X231066Y275000D01*
Y251958D01*
X220542Y241434D01*
X214863D01*
X213993Y242493D01*
X212495Y243723D01*
X210785Y244637D01*
X208929Y245200D01*
X208435Y245249D01*
Y245751D01*
X208929Y245800D01*
X210785Y246363D01*
X212495Y247277D01*
X213993Y248507D01*
X215223Y250005D01*
X216137Y251715D01*
X216700Y253571D01*
X216890Y255500D01*
X216700Y257430D01*
X216137Y259285D01*
X215223Y260995D01*
X213993Y262493D01*
X212495Y263723D01*
X210785Y264637D01*
X208929Y265200D01*
X207000Y265390D01*
X205070Y265200D01*
X203215Y264637D01*
X201505Y263723D01*
X200007Y262493D01*
X198777Y260995D01*
X197863Y259285D01*
X197300Y257430D01*
X197110Y255500D01*
X197300Y253571D01*
X197863Y251715D01*
X198777Y250005D01*
X200007Y248507D01*
X201505Y247277D01*
X203215Y246363D01*
X205070Y245800D01*
X205565Y245751D01*
Y245249D01*
X205070Y245200D01*
X203215Y244637D01*
X201505Y243723D01*
X200007Y242493D01*
X198777Y240995D01*
X197863Y239285D01*
X197300Y237429D01*
X197110Y235500D01*
X197300Y233571D01*
X197863Y231715D01*
X198777Y230005D01*
X200007Y228507D01*
X201505Y227277D01*
X203215Y226363D01*
X205070Y225800D01*
X207000Y225610D01*
X208929Y225800D01*
X210785Y226363D01*
X212495Y227277D01*
X213993Y228507D01*
X214863Y229566D01*
X223000D01*
X224158Y229680D01*
X225271Y230018D01*
X226297Y230566D01*
X227196Y231304D01*
X241196Y245304D01*
X241934Y246203D01*
X242066Y246450D01*
X242566Y246325D01*
Y243181D01*
X241921Y242396D01*
X241190Y241028D01*
X240740Y239544D01*
X240640Y238532D01*
X221304Y219196D01*
X220566Y218297D01*
X220018Y217271D01*
X219680Y216158D01*
X219566Y215000D01*
Y103000D01*
X219680Y101842D01*
X220018Y100729D01*
X220566Y99703D01*
X221304Y98804D01*
X240804Y79304D01*
X241703Y78566D01*
X242729Y78018D01*
X243842Y77680D01*
X245000Y77566D01*
X263090D01*
X263415Y77036D01*
X264622Y75622D01*
X266036Y74415D01*
X267621Y73444D01*
X269339Y72732D01*
X271147Y72298D01*
X273000Y72153D01*
X274853Y72298D01*
X276661Y72732D01*
X278379Y73444D01*
X279964Y74415D01*
X281378Y75622D01*
X282585Y77036D01*
X283556Y78621D01*
X284268Y80339D01*
X284702Y82147D01*
X284847Y84000D01*
X284702Y85853D01*
X284268Y87661D01*
X283556Y89379D01*
X282585Y90964D01*
X281378Y92378D01*
X279964Y93585D01*
X278379Y94556D01*
X276661Y95268D01*
X274853Y95702D01*
X273000Y95847D01*
X271147Y95702D01*
X269339Y95268D01*
X267621Y94556D01*
X266036Y93585D01*
X264622Y92378D01*
X263415Y90964D01*
X262478Y89434D01*
X247458D01*
X231434Y105458D01*
Y212542D01*
X249032Y230140D01*
X250044Y230240D01*
X251528Y230690D01*
X252896Y231421D01*
X254095Y232405D01*
X255079Y233604D01*
X255810Y234972D01*
X256260Y236456D01*
X256412Y238000D01*
X256260Y239544D01*
X255810Y241028D01*
X255079Y242396D01*
X254434Y243181D01*
Y262274D01*
X254595Y262405D01*
X255579Y263604D01*
X256310Y264972D01*
X256760Y266456D01*
X256912Y268000D01*
X256760Y269544D01*
X256310Y271028D01*
X255579Y272396D01*
X254595Y273595D01*
X253396Y274579D01*
X252028Y275310D01*
X250544Y275760D01*
X249000Y275912D01*
X247456Y275760D01*
X246599Y275500D01*
X246334Y275942D01*
X248196Y277804D01*
X248196Y277804D01*
X248934Y278703D01*
X249482Y279729D01*
X249820Y280842D01*
X249934Y282000D01*
Y286610D01*
X250890D01*
Y286864D01*
X251261Y287087D01*
X251390Y287092D01*
X252649Y286710D01*
X254000Y286577D01*
X255351Y286710D01*
X256649Y287104D01*
X257566Y287594D01*
X258066Y287294D01*
Y278000D01*
X258180Y276842D01*
X258518Y275729D01*
X259066Y274703D01*
X259804Y273804D01*
X271140Y262468D01*
X271240Y261456D01*
X271690Y259972D01*
X272421Y258604D01*
X273066Y257819D01*
Y254609D01*
X272566Y254484D01*
X272079Y255396D01*
X271095Y256595D01*
X269896Y257579D01*
X268528Y258310D01*
X267044Y258760D01*
X265500Y258912D01*
X263956Y258760D01*
X262472Y258310D01*
X261104Y257579D01*
X259905Y256595D01*
X258921Y255396D01*
X258190Y254028D01*
X257740Y252544D01*
X257588Y251000D01*
X257740Y249456D01*
X258190Y247972D01*
X258921Y246604D01*
X259566Y245819D01*
Y234458D01*
X241304Y216196D01*
X240566Y215297D01*
X240018Y214271D01*
X239680Y213158D01*
X239566Y212000D01*
Y151500D01*
X239680Y150342D01*
X240018Y149229D01*
X240566Y148203D01*
X241304Y147304D01*
X248304Y140304D01*
X248304Y140304D01*
X249203Y139566D01*
X250229Y139018D01*
X251342Y138680D01*
X252500Y138566D01*
X262478D01*
X263415Y137036D01*
X264622Y135623D01*
X266036Y134415D01*
X267621Y133444D01*
X269339Y132732D01*
X271147Y132298D01*
X273000Y132152D01*
X274853Y132298D01*
X276661Y132732D01*
X278379Y133444D01*
X279964Y134415D01*
X281378Y135623D01*
X282585Y137036D01*
X283556Y138621D01*
X284268Y140339D01*
X284702Y142147D01*
X284847Y144000D01*
X284702Y145853D01*
X284268Y147661D01*
X283556Y149379D01*
X282585Y150964D01*
X281378Y152377D01*
X279964Y153585D01*
X278379Y154556D01*
X276661Y155268D01*
X274853Y155702D01*
X273000Y155848D01*
X271147Y155702D01*
X269339Y155268D01*
X267621Y154556D01*
X266036Y153585D01*
X264622Y152377D01*
X263415Y150964D01*
X263090Y150434D01*
X254958D01*
X251434Y153958D01*
Y209542D01*
X269696Y227804D01*
X270434Y228703D01*
X270868Y229515D01*
X271427Y229529D01*
X271921Y228604D01*
X272566Y227819D01*
Y211958D01*
X267804Y207196D01*
X267066Y206297D01*
X266518Y205271D01*
X266180Y204158D01*
X266066Y203000D01*
Y198173D01*
X265828Y198075D01*
X263715Y196780D01*
X261830Y195170D01*
X260220Y193285D01*
X258925Y191172D01*
X257976Y188882D01*
X257398Y186471D01*
X257203Y184000D01*
X257398Y181529D01*
X257976Y179119D01*
X258925Y176828D01*
X260220Y174715D01*
X261830Y172830D01*
X263715Y171220D01*
X265828Y169925D01*
X268119Y168976D01*
X270529Y168398D01*
X273000Y168203D01*
X275471Y168398D01*
X277882Y168976D01*
X280172Y169925D01*
X282285Y171220D01*
X284170Y172830D01*
X285097Y173915D01*
X285566Y173742D01*
X285566Y57458D01*
X283689Y55581D01*
X282285Y56780D01*
X280172Y58075D01*
X277882Y59024D01*
X275471Y59602D01*
X273000Y59797D01*
X270529Y59602D01*
X268119Y59024D01*
X265828Y58075D01*
X263715Y56780D01*
X261830Y55170D01*
X260220Y53285D01*
X258925Y51172D01*
X257976Y48882D01*
X257398Y46471D01*
X257203Y44000D01*
X257398Y41529D01*
X257976Y39118D01*
X258925Y36828D01*
X260220Y34715D01*
X261830Y32830D01*
X263715Y31220D01*
X265828Y29925D01*
X268119Y28976D01*
X270529Y28398D01*
X273000Y28203D01*
X275471Y28398D01*
X277882Y28976D01*
X280172Y29925D01*
X282285Y31220D01*
X284170Y32830D01*
X285780Y34715D01*
X287075Y36828D01*
X288024Y39118D01*
X288602Y41529D01*
X288789Y43896D01*
X295696Y50804D01*
X296434Y51703D01*
X296982Y52729D01*
X297320Y53842D01*
X297434Y55000D01*
X297434Y238500D01*
Y239000D01*
X297320Y240158D01*
X296982Y241271D01*
X296434Y242297D01*
X295696Y243196D01*
X284934Y253958D01*
Y257819D01*
X285579Y258604D01*
X286310Y259972D01*
X286760Y261456D01*
X286912Y263000D01*
X286760Y264544D01*
X286310Y266028D01*
X285579Y267396D01*
X284595Y268595D01*
X283396Y269579D01*
X282028Y270310D01*
X280544Y270760D01*
X279532Y270860D01*
X269934Y280458D01*
Y287294D01*
X270434Y287594D01*
X271351Y287104D01*
X272649Y286710D01*
X274000Y286577D01*
X275351Y286710D01*
X276649Y287104D01*
X277846Y287744D01*
X278634Y288390D01*
X279000Y288557D01*
X279366Y288390D01*
X280154Y287744D01*
X281351Y287104D01*
X282649Y286710D01*
X284000Y286577D01*
X285351Y286710D01*
X286649Y287104D01*
X287846Y287744D01*
X288895Y288605D01*
X289756Y289654D01*
X290396Y290851D01*
X290790Y292149D01*
X290923Y293500D01*
X290790Y294851D01*
X290396Y296149D01*
X289756Y297346D01*
X288895Y298395D01*
X287846Y299256D01*
X286649Y299896D01*
X285351Y300290D01*
X284000Y300423D01*
D02*
G37*
G36*
X18390Y303390D02*
X4610D01*
Y289610D01*
X4864D01*
X5086Y289239D01*
X5092Y289110D01*
X4710Y287851D01*
X4577Y286500D01*
X4710Y285149D01*
X5104Y283851D01*
X5744Y282654D01*
X6605Y281605D01*
X7654Y280744D01*
X8851Y280104D01*
X8938Y280077D01*
X9028Y279585D01*
X13972D01*
X14062Y280077D01*
X14149Y280104D01*
X15346Y280744D01*
X16395Y281605D01*
X17256Y282654D01*
X17896Y283851D01*
X18290Y285149D01*
X18423Y286500D01*
X18290Y287851D01*
X17908Y289110D01*
X17913Y289239D01*
X18136Y289610D01*
X18390D01*
Y303390D01*
D02*
G37*
G36*
X15421Y277000D02*
Y277000D01*
D01*
Y277000D01*
D02*
G37*
G36*
Y276000D02*
D01*
Y276000D01*
Y276000D01*
D02*
G37*
G36*
X207000Y308890D02*
X205070Y308700D01*
X203215Y308137D01*
X201505Y307223D01*
X200007Y305993D01*
X198777Y304495D01*
X197863Y302785D01*
X197300Y300929D01*
X197110Y299000D01*
X197300Y297071D01*
X197863Y295215D01*
X198777Y293505D01*
X200007Y292007D01*
X201505Y290777D01*
X203215Y289863D01*
X205070Y289300D01*
X205565Y289251D01*
Y288749D01*
X205070Y288700D01*
X203215Y288137D01*
X201505Y287223D01*
X200007Y285993D01*
X198777Y284495D01*
X197863Y282785D01*
X197300Y280929D01*
X197110Y279000D01*
X197300Y277070D01*
X197863Y275215D01*
X198777Y273505D01*
X200007Y272007D01*
X201505Y270777D01*
X203215Y269863D01*
X205070Y269300D01*
X207000Y269110D01*
X208929Y269300D01*
X210785Y269863D01*
X212495Y270777D01*
X213993Y272007D01*
X215223Y273505D01*
X216137Y275215D01*
X216700Y277070D01*
X216890Y279000D01*
X216700Y280929D01*
X216137Y282785D01*
X215223Y284495D01*
X213993Y285993D01*
X212495Y287223D01*
X210785Y288137D01*
X208929Y288700D01*
X208435Y288749D01*
Y289251D01*
X208929Y289300D01*
X210785Y289863D01*
X212495Y290777D01*
X213993Y292007D01*
X215223Y293505D01*
X216137Y295215D01*
X216700Y297071D01*
X216890Y299000D01*
X216700Y300929D01*
X216137Y302785D01*
X215223Y304495D01*
X213993Y305993D01*
X212495Y307223D01*
X210785Y308137D01*
X208929Y308700D01*
X207000Y308890D01*
D02*
G37*
G36*
X31000Y247414D02*
Y243000D01*
X35414D01*
X35310Y243789D01*
X34813Y244990D01*
X34021Y246021D01*
X32990Y246813D01*
X31789Y247310D01*
X31000Y247414D01*
D02*
G37*
G36*
X30000D02*
X29211Y247310D01*
X28010Y246813D01*
X26979Y246021D01*
X26188Y244990D01*
X25690Y243789D01*
X25586Y243000D01*
X30000D01*
Y247414D01*
D02*
G37*
G36*
X35414Y242000D02*
X31000D01*
Y237586D01*
X31789Y237690D01*
X32990Y238188D01*
X34021Y238979D01*
X34813Y240010D01*
X35310Y241211D01*
X35414Y242000D01*
D02*
G37*
G36*
X30000D02*
X25586D01*
X25690Y241211D01*
X26188Y240010D01*
X26979Y238979D01*
X28010Y238188D01*
X29211Y237690D01*
X30000Y237586D01*
Y242000D01*
D02*
G37*
G36*
X83000Y195847D02*
X81147Y195702D01*
X79339Y195268D01*
X77621Y194556D01*
X76036Y193585D01*
X74622Y192377D01*
X73415Y190964D01*
X72444Y189379D01*
X72275Y188971D01*
X48639D01*
X47686Y189260D01*
X46142Y189412D01*
X44599Y189260D01*
X43115Y188810D01*
X41747Y188079D01*
X40548Y187095D01*
X39564Y185896D01*
X38833Y184528D01*
X38382Y183044D01*
X38230Y181500D01*
X38382Y179956D01*
X38833Y178472D01*
X39564Y177104D01*
X40418Y176064D01*
Y117810D01*
X32031Y109423D01*
X31500Y109475D01*
X29944Y109322D01*
X28448Y108868D01*
X27069Y108131D01*
X25861Y107140D01*
X24869Y105931D01*
X24132Y104552D01*
X23678Y103056D01*
X23525Y101500D01*
X23678Y99944D01*
X24132Y98448D01*
X24869Y97069D01*
X25861Y95860D01*
X27069Y94869D01*
X28448Y94132D01*
X29944Y93678D01*
X31500Y93525D01*
X33056Y93678D01*
X34552Y94132D01*
X35931Y94869D01*
X37139Y95860D01*
X38131Y97069D01*
X38868Y98448D01*
X39316Y99924D01*
X50548Y111156D01*
X51286Y112055D01*
X51834Y113081D01*
X52172Y114194D01*
X52286Y115352D01*
Y146766D01*
X77325Y173625D01*
X77621Y173444D01*
X79339Y172732D01*
X81147Y172298D01*
X83000Y172152D01*
X84853Y172298D01*
X86661Y172732D01*
X88379Y173444D01*
X89964Y174415D01*
X91378Y175622D01*
X92585Y177036D01*
X93556Y178621D01*
X94268Y180339D01*
X94702Y182147D01*
X94848Y184000D01*
X94702Y185853D01*
X94268Y187661D01*
X93556Y189379D01*
X92585Y190964D01*
X91378Y192377D01*
X89964Y193585D01*
X88379Y194556D01*
X86661Y195268D01*
X84853Y195702D01*
X83000Y195847D01*
D02*
G37*
G36*
Y155848D02*
X81147Y155702D01*
X79339Y155268D01*
X77621Y154556D01*
X76036Y153585D01*
X74622Y152377D01*
X73415Y150964D01*
X72444Y149379D01*
X71732Y147661D01*
X71298Y145853D01*
X71153Y144000D01*
X71298Y142147D01*
X71732Y140339D01*
X72444Y138621D01*
X73415Y137036D01*
X74622Y135623D01*
X76036Y134415D01*
X77621Y133444D01*
X79339Y132732D01*
X81147Y132298D01*
X83000Y132152D01*
X84853Y132298D01*
X86661Y132732D01*
X88379Y133444D01*
X89964Y134415D01*
X91378Y135623D01*
X92585Y137036D01*
X93556Y138621D01*
X94268Y140339D01*
X94702Y142147D01*
X94848Y144000D01*
X94702Y145853D01*
X94268Y147661D01*
X93556Y149379D01*
X92585Y150964D01*
X91378Y152377D01*
X89964Y153585D01*
X88379Y154556D01*
X86661Y155268D01*
X84853Y155702D01*
X83000Y155848D01*
D02*
G37*
G36*
X273000Y125847D02*
X271147Y125702D01*
X269339Y125268D01*
X267621Y124556D01*
X266036Y123585D01*
X264622Y122378D01*
X263415Y120964D01*
X262444Y119379D01*
X261732Y117661D01*
X261298Y115853D01*
X261153Y114000D01*
X261298Y112147D01*
X261732Y110339D01*
X262444Y108621D01*
X263415Y107036D01*
X264622Y105622D01*
X266036Y104415D01*
X267621Y103444D01*
X269339Y102732D01*
X271147Y102298D01*
X273000Y102153D01*
X274853Y102298D01*
X276661Y102732D01*
X278379Y103444D01*
X279964Y104415D01*
X281378Y105622D01*
X282585Y107036D01*
X283556Y108621D01*
X284268Y110339D01*
X284702Y112147D01*
X284847Y114000D01*
X284702Y115853D01*
X284268Y117661D01*
X283556Y119379D01*
X282585Y120964D01*
X281378Y122378D01*
X279964Y123585D01*
X278379Y124556D01*
X276661Y125268D01*
X274853Y125702D01*
X273000Y125847D01*
D02*
G37*
G36*
X13972Y273415D02*
X9028D01*
X8938Y272923D01*
X8851Y272896D01*
X7654Y272256D01*
X6605Y271395D01*
X5744Y270346D01*
X5104Y269149D01*
X4710Y267851D01*
X4577Y266500D01*
X4710Y265149D01*
X5104Y263851D01*
X5744Y262654D01*
X6605Y261605D01*
Y261395D01*
X5744Y260346D01*
X5104Y259149D01*
X4710Y257851D01*
X4577Y256500D01*
X4710Y255149D01*
X5104Y253851D01*
X5566Y252986D01*
Y241000D01*
X5680Y239842D01*
X6018Y238729D01*
X6566Y237703D01*
X7304Y236804D01*
X10418Y233690D01*
Y191936D01*
X9564Y190896D01*
X8833Y189528D01*
X8382Y188044D01*
X8230Y186500D01*
X8382Y184956D01*
X8833Y183472D01*
X9564Y182104D01*
X10418Y181064D01*
Y44000D01*
Y25648D01*
X10531Y24491D01*
X10869Y23378D01*
X11418Y22352D01*
X12156Y21452D01*
X23570Y10038D01*
X23678Y8944D01*
X24132Y7448D01*
X24869Y6069D01*
X25861Y4860D01*
X27069Y3869D01*
X28448Y3132D01*
X29944Y2678D01*
X31500Y2525D01*
X33056Y2678D01*
X34552Y3132D01*
X35931Y3869D01*
X37139Y4860D01*
X38131Y6069D01*
X38868Y7448D01*
X39322Y8944D01*
X39475Y10500D01*
X39322Y12056D01*
X39171Y12555D01*
X64682Y38066D01*
X72784D01*
X73415Y37036D01*
X74622Y35623D01*
X76036Y34415D01*
X77621Y33444D01*
X79339Y32732D01*
X81147Y32298D01*
X83000Y32153D01*
X84853Y32298D01*
X86661Y32732D01*
X88379Y33444D01*
X89964Y34415D01*
X91378Y35623D01*
X92585Y37036D01*
X93556Y38621D01*
X94268Y40339D01*
X94702Y42147D01*
X94848Y44000D01*
X94702Y45853D01*
X94268Y47661D01*
X93556Y49379D01*
X92585Y50964D01*
X91378Y52377D01*
X89964Y53585D01*
X88379Y54556D01*
X86661Y55268D01*
X84853Y55702D01*
X83000Y55848D01*
X81147Y55702D01*
X79339Y55268D01*
X77621Y54556D01*
X76036Y53585D01*
X74622Y52377D01*
X73415Y50964D01*
X72784Y49934D01*
X39682D01*
X22286Y67330D01*
Y181574D01*
X22721Y182104D01*
X23452Y183472D01*
X23902Y184956D01*
X24054Y186500D01*
X23902Y188044D01*
X23452Y189528D01*
X22721Y190896D01*
X22286Y191426D01*
Y236148D01*
X22172Y237306D01*
X21834Y238419D01*
X21286Y239445D01*
X20548Y240344D01*
X17434Y243458D01*
Y252986D01*
X17896Y253851D01*
X18290Y255149D01*
X18423Y256500D01*
X18290Y257851D01*
X17896Y259149D01*
X17256Y260346D01*
X16610Y261134D01*
X16443Y261500D01*
X16610Y261866D01*
X17256Y262654D01*
X17896Y263851D01*
X18290Y265149D01*
X18423Y266500D01*
X18290Y267851D01*
X17896Y269149D01*
X17256Y270346D01*
X16395Y271395D01*
X15346Y272256D01*
X14149Y272896D01*
X14062Y272923D01*
X13972Y273415D01*
D02*
G37*
%LPD*%
G36*
X274066Y248203D02*
X274804Y247304D01*
X281166Y240942D01*
X280901Y240500D01*
X280044Y240760D01*
X278500Y240912D01*
X276956Y240760D01*
X275472Y240310D01*
X274104Y239579D01*
X272905Y238595D01*
X271934Y237411D01*
X271891Y237409D01*
X271434Y237592D01*
Y245819D01*
X272079Y246604D01*
X272810Y247972D01*
X273104Y248942D01*
X273643Y248995D01*
X274066Y248203D01*
D02*
G37*
G36*
X285566Y228408D02*
X285566Y194258D01*
X285097Y194085D01*
X284170Y195170D01*
X282285Y196780D01*
X280172Y198075D01*
X277934Y199002D01*
Y200542D01*
X282696Y205304D01*
X283434Y206203D01*
X283982Y207229D01*
X284320Y208342D01*
X284434Y209500D01*
Y227819D01*
X285066Y228589D01*
X285109Y228591D01*
X285566Y228408D01*
D02*
G37*
G36*
X46142Y146000D02*
Y185000D01*
X82500D01*
X46142Y146000D01*
D02*
G37*
G36*
X39500Y44500D02*
X65500D01*
X31500Y10500D01*
X16352Y25648D01*
Y44000D01*
X16602Y44250D01*
X16355Y67645D01*
X39500Y44500D01*
D02*
G37*
D10*
X16352Y44000D02*
Y236148D01*
Y25648D02*
Y44000D01*
X82000Y46500D02*
X87500Y41000D01*
X16352Y44000D02*
X83000D01*
X16352Y25648D02*
X31500Y10500D01*
X273000Y83000D02*
X275500D01*
X272500Y83500D02*
X273000Y83000D01*
X275500D02*
X277500Y81000D01*
X245000Y83500D02*
X272500D01*
X225500Y103000D02*
X245000Y83500D01*
X252500Y144500D02*
X274000D01*
X277500Y141000D01*
X245500Y151500D02*
X252500Y144500D01*
X82500Y81000D02*
X87500D01*
X78500Y85000D02*
X82500Y81000D01*
X67500Y85000D02*
X78500D01*
X59500Y93000D02*
X67500Y85000D01*
X245500Y151500D02*
Y212000D01*
X225500Y103000D02*
Y215000D01*
X272000Y186500D02*
X277500Y181000D01*
X278500Y209500D02*
Y233000D01*
X272000Y203000D02*
X278500Y209500D01*
X272000Y186500D02*
Y203000D01*
X30500Y242500D02*
Y265000D01*
X244000Y282000D02*
Y293500D01*
X237000Y275000D02*
X244000Y282000D01*
X237000Y249500D02*
Y275000D01*
X223000Y235500D02*
X237000Y249500D01*
X291500Y238500D02*
X291500Y55000D01*
X291500Y238500D02*
Y239000D01*
X279000Y251500D02*
X291500Y239000D01*
X279000Y251500D02*
Y263000D01*
X277500Y41000D02*
X291500Y55000D01*
X245500Y212000D02*
X265500Y232000D01*
Y251000D01*
X46352Y181000D02*
X87500D01*
X46352Y115352D02*
Y181000D01*
X32500Y101500D02*
X46352Y115352D01*
X12046Y275954D02*
X19546D01*
X30500Y265000D01*
X225500Y215000D02*
X248500Y238000D01*
X207000Y235500D02*
X223000D01*
X11500Y241000D02*
X16352Y236148D01*
X11500Y241000D02*
Y256500D01*
X248500Y238000D02*
Y262800D01*
X249000Y268000D01*
X264000Y278000D02*
Y293500D01*
Y278000D02*
X279000Y263000D01*
D11*
X284000Y293500D02*
D03*
X274000D02*
D03*
X264000D02*
D03*
X254000D02*
D03*
X11500Y256500D02*
D03*
Y266500D02*
D03*
Y276500D02*
D03*
Y286500D02*
D03*
D12*
X244000Y293500D02*
D03*
D13*
X11500Y296500D02*
D03*
D14*
X273000Y114000D02*
D03*
X83000Y44000D02*
D03*
Y84000D02*
D03*
Y144000D02*
D03*
Y184000D02*
D03*
X273000Y84000D02*
D03*
Y144000D02*
D03*
D15*
Y184000D02*
D03*
Y44000D02*
D03*
D16*
X16142Y186500D02*
D03*
X46142Y181500D02*
D03*
X248500Y238000D02*
D03*
X278500Y233000D02*
D03*
X279000Y263000D02*
D03*
X249000Y268000D02*
D03*
X59500Y93000D02*
D03*
X30500Y242500D02*
D03*
X265500Y251000D02*
D03*
D17*
X207000Y255500D02*
D03*
Y235500D02*
D03*
Y299000D02*
D03*
Y279000D02*
D03*
D18*
X31500Y10500D02*
D03*
Y101500D02*
D03*
M02*
