G04*
G04 #@! TF.GenerationSoftware,Altium Limited,Altium Designer,19.0.10 (269)*
G04*
G04 Layer_Physical_Order=1*
G04 Layer_Color=255*
%FSLAX25Y25*%
%MOIN*%
G70*
G01*
G75*
%ADD16R,0.11221X0.05512*%
%ADD17R,0.07800X0.02200*%
%ADD18R,0.04134X0.07087*%
%ADD19R,0.02559X0.06004*%
%ADD20O,0.02362X0.05512*%
%ADD21R,0.09173X0.06142*%
%ADD22R,0.33228X0.42165*%
%ADD23R,0.14882X0.03898*%
%ADD24R,0.07087X0.04134*%
%ADD25R,0.13819X0.05787*%
%ADD26R,0.12677X0.06417*%
%ADD27R,0.04764X0.06969*%
%ADD28R,0.06969X0.04764*%
%ADD29R,0.02362X0.04921*%
%ADD30R,0.16575X0.09050*%
%ADD31R,0.11811X0.07087*%
%ADD32R,0.05787X0.13819*%
%ADD60C,0.05906*%
%ADD61C,0.02000*%
%ADD62C,0.01181*%
%ADD63C,0.04724*%
%ADD64C,0.03937*%
%ADD65C,0.07874*%
%ADD66C,0.06791*%
%ADD67R,0.06791X0.06791*%
%ADD68R,0.07406X0.07406*%
%ADD69C,0.07406*%
%ADD70R,0.05906X0.05906*%
%ADD71C,0.05906*%
%ADD72R,0.05906X0.05906*%
%ADD73C,0.04913*%
%ADD74R,0.04913X0.04913*%
%ADD75C,0.05000*%
G36*
X295971Y1529D02*
X1529D01*
Y312471D01*
X295971D01*
Y1529D01*
D02*
G37*
%LPC*%
G36*
X257575Y309914D02*
Y305500D01*
X261989D01*
X261885Y306289D01*
X261387Y307490D01*
X260596Y308521D01*
X259565Y309313D01*
X258364Y309810D01*
X257575Y309914D01*
D02*
G37*
G36*
X34000D02*
Y305500D01*
X38414D01*
X38310Y306289D01*
X37813Y307490D01*
X37021Y308521D01*
X35990Y309313D01*
X34789Y309810D01*
X34000Y309914D01*
D02*
G37*
G36*
X279575D02*
Y305500D01*
X283989D01*
X283885Y306289D01*
X283387Y307490D01*
X282596Y308521D01*
X281565Y309313D01*
X280364Y309810D01*
X279575Y309914D01*
D02*
G37*
G36*
X56000D02*
Y305500D01*
X60414D01*
X60310Y306289D01*
X59812Y307490D01*
X59021Y308521D01*
X57990Y309313D01*
X56789Y309810D01*
X56000Y309914D01*
D02*
G37*
G36*
X256575D02*
X255786Y309810D01*
X254585Y309313D01*
X253554Y308521D01*
X252762Y307490D01*
X252265Y306289D01*
X252161Y305500D01*
X256575D01*
Y309914D01*
D02*
G37*
G36*
X33000D02*
X32211Y309810D01*
X31010Y309313D01*
X29979Y308521D01*
X29188Y307490D01*
X28690Y306289D01*
X28586Y305500D01*
X33000D01*
Y309914D01*
D02*
G37*
G36*
X278575D02*
X277786Y309810D01*
X276585Y309313D01*
X275554Y308521D01*
X274762Y307490D01*
X274265Y306289D01*
X274161Y305500D01*
X278575D01*
Y309914D01*
D02*
G37*
G36*
X55000D02*
X54211Y309810D01*
X53010Y309313D01*
X51979Y308521D01*
X51187Y307490D01*
X50690Y306289D01*
X50586Y305500D01*
X55000D01*
Y309914D01*
D02*
G37*
G36*
X283989Y304500D02*
X279575D01*
Y300086D01*
X280364Y300190D01*
X281565Y300688D01*
X282596Y301479D01*
X283387Y302510D01*
X283885Y303711D01*
X283989Y304500D01*
D02*
G37*
G36*
X261989D02*
X257575D01*
Y300086D01*
X258364Y300190D01*
X259565Y300688D01*
X260596Y301479D01*
X261387Y302510D01*
X261885Y303711D01*
X261989Y304500D01*
D02*
G37*
G36*
X60414D02*
X56000D01*
Y300086D01*
X56789Y300190D01*
X57990Y300688D01*
X59021Y301479D01*
X59812Y302510D01*
X60310Y303711D01*
X60414Y304500D01*
D02*
G37*
G36*
X38414D02*
X34000D01*
Y300086D01*
X34789Y300190D01*
X35990Y300688D01*
X37021Y301479D01*
X37813Y302510D01*
X38310Y303711D01*
X38414Y304500D01*
D02*
G37*
G36*
X278575D02*
X274161D01*
X274265Y303711D01*
X274762Y302510D01*
X275554Y301479D01*
X276585Y300688D01*
X277786Y300190D01*
X278575Y300086D01*
Y304500D01*
D02*
G37*
G36*
X256575D02*
X252161D01*
X252265Y303711D01*
X252762Y302510D01*
X253554Y301479D01*
X254585Y300688D01*
X255786Y300190D01*
X256575Y300086D01*
Y304500D01*
D02*
G37*
G36*
X55000D02*
X50586D01*
X50690Y303711D01*
X51187Y302510D01*
X51979Y301479D01*
X53010Y300688D01*
X54211Y300190D01*
X55000Y300086D01*
Y304500D01*
D02*
G37*
G36*
X33000D02*
X28586D01*
X28690Y303711D01*
X29188Y302510D01*
X29979Y301479D01*
X31010Y300688D01*
X32211Y300190D01*
X33000Y300086D01*
Y304500D01*
D02*
G37*
G36*
X207953Y303953D02*
X200047D01*
Y296047D01*
X207953D01*
Y303953D01*
D02*
G37*
G36*
X194000Y303987D02*
X192968Y303851D01*
X192007Y303453D01*
X191181Y302819D01*
X190547Y301993D01*
X190149Y301032D01*
X190013Y300000D01*
X190149Y298968D01*
X190547Y298007D01*
X191181Y297181D01*
X192007Y296547D01*
X192968Y296149D01*
X194000Y296013D01*
X195032Y296149D01*
X195993Y296547D01*
X196819Y297181D01*
X197453Y298007D01*
X197851Y298968D01*
X197987Y300000D01*
X197851Y301032D01*
X197453Y301993D01*
X196819Y302819D01*
X195993Y303453D01*
X195032Y303851D01*
X194000Y303987D01*
D02*
G37*
G36*
X166953Y302953D02*
X159047D01*
Y295047D01*
X166953D01*
Y302953D01*
D02*
G37*
G36*
X153000Y302987D02*
X151968Y302851D01*
X151007Y302453D01*
X150181Y301819D01*
X149547Y300993D01*
X149149Y300032D01*
X149013Y299000D01*
X149149Y297968D01*
X149547Y297007D01*
X150181Y296181D01*
X151007Y295547D01*
X151968Y295149D01*
X153000Y295013D01*
X154032Y295149D01*
X154993Y295547D01*
X155819Y296181D01*
X156453Y297007D01*
X156851Y297968D01*
X156987Y299000D01*
X156851Y300032D01*
X156453Y300993D01*
X155819Y301819D01*
X154993Y302453D01*
X154032Y302851D01*
X153000Y302987D01*
D02*
G37*
G36*
X19000Y290434D02*
X17853Y290283D01*
X16783Y289840D01*
X15865Y289135D01*
X15160Y288217D01*
X14717Y287147D01*
X14701Y287020D01*
X13396D01*
Y290396D01*
X4604D01*
Y287020D01*
X4500D01*
X4110Y286942D01*
X3779Y286721D01*
X3558Y286390D01*
X3480Y286000D01*
X3480Y69667D01*
X3480Y42000D01*
X3558Y41610D01*
X3779Y41279D01*
X4110Y41058D01*
X4500Y40980D01*
X7775D01*
Y40744D01*
X20996D01*
Y40980D01*
X21000D01*
X21390Y41058D01*
X21721Y41279D01*
X21942Y41610D01*
X22020Y42000D01*
X22020Y66091D01*
X25354D01*
Y81910D01*
X22020D01*
Y86538D01*
X22340Y86955D01*
X22783Y88025D01*
X22934Y89172D01*
X22783Y90320D01*
X22340Y91389D01*
X22020Y91806D01*
Y111475D01*
X26354D01*
Y122525D01*
X22020D01*
Y140608D01*
X30807Y148543D01*
X33957D01*
Y155457D01*
X30407D01*
X22020Y163844D01*
X22020Y282776D01*
X22135Y282865D01*
X22840Y283783D01*
X23282Y284853D01*
X23434Y286000D01*
X23282Y287147D01*
X22840Y288217D01*
X22135Y289135D01*
X21217Y289840D01*
X20147Y290283D01*
X19000Y290434D01*
D02*
G37*
G36*
X49000D02*
X47853Y290283D01*
X46783Y289840D01*
X45865Y289135D01*
X45160Y288217D01*
X44717Y287147D01*
X44701Y287020D01*
X43299Y287020D01*
X43282Y287147D01*
X42840Y288217D01*
X42135Y289135D01*
X41217Y289840D01*
X40148Y290283D01*
X39000Y290434D01*
X37852Y290283D01*
X36783Y289840D01*
X35865Y289135D01*
X35160Y288217D01*
X34718Y287147D01*
X34566Y286000D01*
X34718Y284853D01*
X35160Y283783D01*
X35865Y282865D01*
X36783Y282160D01*
X36980Y282079D01*
Y93301D01*
X36283Y93012D01*
X35365Y92307D01*
X34660Y91389D01*
X34218Y90320D01*
X34066Y89172D01*
X34218Y88025D01*
X34660Y86955D01*
X35365Y86037D01*
X36283Y85333D01*
X36980Y85044D01*
Y81910D01*
X33646D01*
Y66091D01*
X39441D01*
X40000Y65362D01*
X47181Y58181D01*
X47181Y58181D01*
X48007Y57547D01*
X48968Y57149D01*
X50000Y57013D01*
X52987D01*
Y56646D01*
X68806D01*
Y57013D01*
X72086D01*
X72510Y56687D01*
X73711Y56190D01*
X75000Y56020D01*
X76289Y56190D01*
X77490Y56687D01*
X78521Y57479D01*
X79312Y58510D01*
X79810Y59711D01*
X79980Y61000D01*
X79810Y62289D01*
X79312Y63490D01*
X78521Y64521D01*
X77490Y65312D01*
X76289Y65810D01*
X75000Y65980D01*
X73711Y65810D01*
X73423Y65691D01*
X53020Y86094D01*
Y111475D01*
X58217D01*
Y122525D01*
X52399D01*
X44020Y130904D01*
Y154078D01*
X63721Y173779D01*
X63942Y174110D01*
X64020Y174500D01*
X64020Y282567D01*
X64819Y283181D01*
X65453Y284007D01*
X65851Y284968D01*
X65987Y286000D01*
X65851Y287032D01*
X65453Y287993D01*
X64819Y288819D01*
X63993Y289453D01*
X63032Y289851D01*
X62000Y289987D01*
X60968Y289851D01*
X60007Y289453D01*
X59181Y288819D01*
X58547Y287993D01*
X58149Y287032D01*
X58147Y287020D01*
X53299Y287020D01*
X53282Y287147D01*
X52840Y288217D01*
X52135Y289135D01*
X51217Y289840D01*
X50147Y290283D01*
X49000Y290434D01*
D02*
G37*
G36*
X29000D02*
X27852Y290283D01*
X26783Y289840D01*
X25865Y289135D01*
X25160Y288217D01*
X24717Y287147D01*
X24566Y286000D01*
X24717Y284853D01*
X25160Y283783D01*
X25865Y282865D01*
X26783Y282160D01*
X27852Y281717D01*
X29000Y281566D01*
X30147Y281717D01*
X31217Y282160D01*
X32135Y282865D01*
X32840Y283783D01*
X33283Y284853D01*
X33434Y286000D01*
X33283Y287147D01*
X32840Y288217D01*
X32135Y289135D01*
X31217Y289840D01*
X30147Y290283D01*
X29000Y290434D01*
D02*
G37*
G36*
X206067Y281611D02*
X199933D01*
Y278039D01*
X197500D01*
X196720Y277884D01*
X196058Y277442D01*
X192680Y274064D01*
X192238Y273402D01*
X192083Y272622D01*
Y268484D01*
X190740D01*
Y259516D01*
X192083D01*
Y248878D01*
X192238Y248098D01*
X192680Y247436D01*
X204961Y235155D01*
Y226387D01*
X204613Y226039D01*
X197200D01*
Y226100D01*
X187400D01*
Y221900D01*
X197200D01*
Y221961D01*
X205458D01*
X206238Y222116D01*
X206900Y222558D01*
X208442Y224100D01*
X208442Y224100D01*
X208884Y224762D01*
X209039Y225542D01*
X209039Y225542D01*
Y236000D01*
X208884Y236780D01*
X208442Y237442D01*
X196161Y249723D01*
Y259516D01*
X197504D01*
Y268484D01*
X196161D01*
Y271777D01*
X198345Y273961D01*
X199933D01*
Y272524D01*
X206067D01*
Y281611D01*
D02*
G37*
G36*
X182878Y280980D02*
X181589Y280810D01*
X180388Y280312D01*
X179357Y279521D01*
X178566Y278490D01*
X178068Y277289D01*
X177898Y276000D01*
X178068Y274711D01*
X178566Y273510D01*
X179357Y272479D01*
X179884Y272075D01*
Y268484D01*
X179496D01*
Y267866D01*
X160984D01*
Y268504D01*
X158494D01*
Y272075D01*
X159021Y272479D01*
X159812Y273510D01*
X160310Y274711D01*
X160480Y276000D01*
X160310Y277289D01*
X159812Y278490D01*
X159021Y279521D01*
X157990Y280312D01*
X156789Y280810D01*
X155500Y280980D01*
X154211Y280810D01*
X153010Y280312D01*
X151979Y279521D01*
X151188Y278490D01*
X150690Y277289D01*
X150520Y276000D01*
X150690Y274711D01*
X151188Y273510D01*
X151979Y272479D01*
X152506Y272075D01*
Y268504D01*
X152016D01*
Y267866D01*
X145484D01*
Y268504D01*
X142994D01*
Y271574D01*
X143521Y271979D01*
X144313Y273010D01*
X144810Y274211D01*
X144980Y275500D01*
X144810Y276789D01*
X144313Y277990D01*
X143521Y279021D01*
X142490Y279813D01*
X141289Y280310D01*
X140000Y280480D01*
X138711Y280310D01*
X137510Y279813D01*
X136479Y279021D01*
X135687Y277990D01*
X135190Y276789D01*
X135020Y275500D01*
X135190Y274211D01*
X135687Y273010D01*
X136479Y271979D01*
X137006Y271574D01*
Y268504D01*
X136516D01*
Y261740D01*
X145484D01*
Y261878D01*
X152016D01*
Y261740D01*
X160984D01*
Y261878D01*
X179496D01*
Y259516D01*
X186260D01*
Y268484D01*
X185872D01*
Y272075D01*
X186399Y272479D01*
X187190Y273510D01*
X187688Y274711D01*
X187858Y276000D01*
X187688Y277289D01*
X187190Y278490D01*
X186399Y279521D01*
X185368Y280312D01*
X184167Y280810D01*
X182878Y280980D01*
D02*
G37*
G36*
X72000Y289987D02*
X71741Y289953D01*
X68047D01*
Y286259D01*
X68013Y286000D01*
Y275185D01*
X68013Y275185D01*
X68149Y274153D01*
X68547Y273192D01*
X69181Y272366D01*
X72946Y268601D01*
Y265625D01*
X69594D01*
Y257208D01*
X71942D01*
Y242144D01*
X69339D01*
Y234002D01*
X72420D01*
Y227965D01*
X71688Y227011D01*
X71190Y225810D01*
X71020Y224521D01*
X71190Y223232D01*
X71688Y222031D01*
X72420Y221077D01*
Y178216D01*
X49554Y155350D01*
X48757Y155019D01*
X48035Y154465D01*
X47481Y153743D01*
X47132Y152902D01*
X47014Y152000D01*
X47132Y151098D01*
X47359Y150550D01*
Y143250D01*
X47475Y142372D01*
X47615Y142033D01*
X47813Y141554D01*
X48352Y140852D01*
X71542Y117662D01*
X71520Y117500D01*
X71690Y116211D01*
X72188Y115010D01*
X72979Y113979D01*
X74010Y113188D01*
X75211Y112690D01*
X76500Y112520D01*
X77789Y112690D01*
X78990Y113188D01*
X80021Y113979D01*
X80813Y115010D01*
X81310Y116211D01*
X81480Y117500D01*
X81310Y118789D01*
X80813Y119990D01*
X80021Y121021D01*
X78990Y121812D01*
X77789Y122310D01*
X76500Y122480D01*
X76338Y122458D01*
X54142Y144654D01*
Y150346D01*
X78209Y174413D01*
X78209Y174413D01*
X78748Y175115D01*
X79087Y175933D01*
X79202Y176811D01*
X79202Y176811D01*
Y220755D01*
X79521Y221000D01*
X80313Y222031D01*
X80810Y223232D01*
X80980Y224521D01*
X80810Y225810D01*
X80313Y227011D01*
X79521Y228042D01*
X79202Y228287D01*
Y234002D01*
X80512D01*
Y242144D01*
X79916D01*
Y257208D01*
X84272D01*
Y259377D01*
X90417D01*
X91197Y259533D01*
X91859Y259975D01*
X94845Y262961D01*
X99016D01*
Y261933D01*
X108102D01*
Y268067D01*
X99016D01*
Y267039D01*
X94000D01*
X93220Y266884D01*
X92558Y266442D01*
X89572Y263456D01*
X84272D01*
Y265625D01*
X80920D01*
Y270252D01*
X80920Y270252D01*
X80784Y271284D01*
X80386Y272245D01*
X79752Y273071D01*
X79752Y273071D01*
X75987Y276836D01*
Y286000D01*
X75953Y286259D01*
Y289953D01*
X72259D01*
X72000Y289987D01*
D02*
G37*
G36*
X113000Y302955D02*
X111968Y302819D01*
X111007Y302421D01*
X110181Y301787D01*
X109547Y300961D01*
X109149Y300000D01*
X109013Y298968D01*
X109149Y297936D01*
X109547Y296975D01*
X110181Y296149D01*
X111007Y295515D01*
X111968Y295117D01*
X113000Y294981D01*
X114032Y295117D01*
X114993Y295515D01*
X115819Y296149D01*
X116418Y296929D01*
X119047D01*
Y295015D01*
X120961D01*
Y267567D01*
X118457D01*
Y261433D01*
X127543D01*
Y267567D01*
X125039D01*
Y295015D01*
X126953D01*
Y302921D01*
X119047D01*
Y301007D01*
X116418D01*
X115819Y301787D01*
X114993Y302421D01*
X114032Y302819D01*
X113000Y302955D01*
D02*
G37*
G36*
X160984Y257260D02*
X152016D01*
Y250496D01*
X153115D01*
X153285Y249996D01*
X152979Y249761D01*
X152575Y249234D01*
X144676D01*
X144271Y249761D01*
X143965Y249996D01*
X144135Y250496D01*
X145484D01*
Y257260D01*
X136516D01*
Y250496D01*
X137365D01*
X137535Y249996D01*
X137229Y249761D01*
X136438Y248730D01*
X135940Y247529D01*
X135770Y246240D01*
X135940Y244951D01*
X136438Y243750D01*
X137229Y242719D01*
X138260Y241928D01*
X139461Y241430D01*
X140750Y241261D01*
X142039Y241430D01*
X143240Y241928D01*
X144271Y242719D01*
X144676Y243246D01*
X152575D01*
X152979Y242719D01*
X154010Y241928D01*
X155211Y241430D01*
X156500Y241261D01*
X157789Y241430D01*
X158990Y241928D01*
X160021Y242719D01*
X160812Y243750D01*
X161310Y244951D01*
X161480Y246240D01*
X161310Y247529D01*
X160812Y248730D01*
X160021Y249761D01*
X159715Y249996D01*
X159885Y250496D01*
X160984D01*
Y257260D01*
D02*
G37*
G36*
X190000Y243480D02*
X188711Y243310D01*
X187510Y242812D01*
X186479Y242021D01*
X185687Y240990D01*
X185190Y239789D01*
X185036Y238622D01*
X156172D01*
X155813Y239490D01*
X155021Y240521D01*
X153990Y241313D01*
X152789Y241810D01*
X151500Y241980D01*
X150211Y241810D01*
X149010Y241313D01*
X147979Y240521D01*
X147187Y239490D01*
X146690Y238289D01*
X146520Y237000D01*
X146690Y235711D01*
X147187Y234510D01*
X147979Y233479D01*
X149010Y232687D01*
X150211Y232190D01*
X151500Y232020D01*
X152789Y232190D01*
X153990Y232687D01*
X155021Y233479D01*
X155813Y234510D01*
X156172Y235378D01*
X186172D01*
X186479Y234979D01*
X187510Y234188D01*
X188711Y233690D01*
X190000Y233520D01*
X191289Y233690D01*
X192490Y234188D01*
X193521Y234979D01*
X194313Y236010D01*
X194810Y237211D01*
X194980Y238500D01*
X194810Y239789D01*
X194313Y240990D01*
X193521Y242021D01*
X192490Y242812D01*
X191289Y243310D01*
X190000Y243480D01*
D02*
G37*
G36*
X108102Y257567D02*
X99016D01*
Y251433D01*
X101701D01*
Y242094D01*
X101559D01*
Y238650D01*
X101520Y238453D01*
Y236050D01*
X99297Y233827D01*
X97819D01*
Y226906D01*
X102181D01*
Y230943D01*
X105001Y233763D01*
X105443Y234424D01*
X105592Y235173D01*
X105921D01*
Y236528D01*
X112457D01*
Y235433D01*
X121543D01*
Y241567D01*
X112457D01*
Y240606D01*
X105921D01*
Y242094D01*
X105779D01*
Y251433D01*
X108102D01*
Y257567D01*
D02*
G37*
G36*
X127543Y257067D02*
X118457D01*
Y250933D01*
X120961D01*
Y248000D01*
X121116Y247220D01*
X121558Y246558D01*
X124961Y243155D01*
Y227433D01*
X125116Y226653D01*
X125558Y225991D01*
X131491Y220058D01*
X132153Y219616D01*
X132933Y219461D01*
X137433D01*
Y216956D01*
X138711D01*
Y213079D01*
X138279Y212913D01*
X138211Y212913D01*
X133721D01*
Y212539D01*
X122043D01*
Y213067D01*
X112957D01*
Y212539D01*
X103445D01*
X92039Y223945D01*
Y234655D01*
X93345Y235961D01*
X94079D01*
Y235173D01*
X98441D01*
Y242094D01*
X94079D01*
Y240039D01*
X92500D01*
X91720Y239884D01*
X91058Y239442D01*
X88558Y236942D01*
X88116Y236280D01*
X87961Y235500D01*
Y223000D01*
X87980Y222902D01*
X87980Y216845D01*
X87711Y216810D01*
X86510Y216313D01*
X85479Y215521D01*
X84688Y214490D01*
X84190Y213289D01*
X84020Y212000D01*
X84190Y210711D01*
X84688Y209510D01*
X85479Y208479D01*
X86510Y207687D01*
X87711Y207190D01*
X89000Y207020D01*
X90289Y207190D01*
X91490Y207687D01*
X91872Y207980D01*
X112957Y207980D01*
Y206933D01*
X122043D01*
Y208055D01*
X122057Y208058D01*
X122178Y208139D01*
X122307Y208206D01*
X122342Y208248D01*
X122388Y208279D01*
X122468Y208400D01*
X122519Y208461D01*
X133721D01*
Y204909D01*
X138221D01*
X138279Y204909D01*
X138721D01*
X138779Y204909D01*
X143220D01*
X143280Y204909D01*
X143720D01*
X143961Y204485D01*
Y203845D01*
X141655Y201539D01*
X122043D01*
Y202567D01*
X112957D01*
Y201539D01*
X110059D01*
X109666Y202490D01*
X108874Y203521D01*
X107843Y204312D01*
X106642Y204810D01*
X105353Y204980D01*
X104065Y204810D01*
X102864Y204312D01*
X101832Y203521D01*
X101041Y202490D01*
X100543Y201289D01*
X100374Y200000D01*
X100543Y198711D01*
X101041Y197510D01*
X101832Y196479D01*
X102864Y195687D01*
X104065Y195190D01*
X105353Y195020D01*
X106642Y195190D01*
X107843Y195687D01*
X108874Y196479D01*
X109628Y197461D01*
X112957D01*
Y196433D01*
X122043D01*
Y197461D01*
X142500D01*
X143280Y197616D01*
X143942Y198058D01*
X147442Y201558D01*
X147884Y202220D01*
X148039Y203000D01*
Y204485D01*
X148280Y204909D01*
X148721D01*
X148779Y204909D01*
X153279D01*
Y212913D01*
X153039D01*
Y216956D01*
X154067D01*
Y219592D01*
X156436Y221961D01*
X159597D01*
X159961Y221597D01*
Y210000D01*
X160116Y209220D01*
X160558Y208558D01*
X164461Y204655D01*
Y200543D01*
X163433D01*
Y191457D01*
X169567D01*
Y200543D01*
X168539D01*
Y205500D01*
X168384Y206280D01*
X167942Y206942D01*
X164039Y210845D01*
Y221597D01*
X164403Y221961D01*
X168800D01*
Y221900D01*
X178600D01*
Y226100D01*
X168800D01*
Y226039D01*
X154067D01*
Y226042D01*
X147933D01*
Y216956D01*
X148961D01*
Y213338D01*
X148721Y212913D01*
X148280D01*
X148221Y212913D01*
X143780D01*
X143720Y212913D01*
X143280D01*
X142789Y213079D01*
Y216956D01*
X143567D01*
Y226042D01*
X137433D01*
Y223539D01*
X133778D01*
X129039Y228278D01*
Y244000D01*
X128884Y244780D01*
X128442Y245442D01*
X125039Y248845D01*
Y250933D01*
X127543D01*
Y257067D01*
D02*
G37*
G36*
X197200Y231100D02*
X187400D01*
Y226900D01*
X197200D01*
Y231100D01*
D02*
G37*
G36*
X178600D02*
X168800D01*
Y226900D01*
X178600D01*
Y231100D01*
D02*
G37*
G36*
X121543Y231067D02*
X112457D01*
Y229622D01*
X110149D01*
X109528Y229498D01*
X109002Y229147D01*
X105777Y225921D01*
X105333Y225980D01*
X104044Y225810D01*
X102843Y225312D01*
X101812Y224521D01*
X101021Y223490D01*
X100523Y222289D01*
X100354Y221000D01*
X100523Y219711D01*
X101021Y218510D01*
X101812Y217479D01*
X102843Y216687D01*
X104044Y216190D01*
X105333Y216020D01*
X106622Y216190D01*
X107823Y216687D01*
X108854Y217479D01*
X109646Y218510D01*
X110143Y219711D01*
X110313Y221000D01*
X110143Y222289D01*
X109646Y223490D01*
X108902Y224459D01*
X110821Y226378D01*
X112457D01*
Y224933D01*
X121543D01*
Y231067D01*
D02*
G37*
G36*
X215000Y242530D02*
X214086Y242410D01*
X213235Y242057D01*
X212504Y241496D01*
X211943Y240765D01*
X211590Y239914D01*
X211470Y239000D01*
X211590Y238086D01*
X211943Y237235D01*
X212504Y236504D01*
X213235Y235943D01*
X213378Y235883D01*
Y220672D01*
X210557Y217850D01*
X210414Y217910D01*
X209500Y218030D01*
X208586Y217910D01*
X207735Y217557D01*
X207004Y216996D01*
X206443Y216265D01*
X206090Y215414D01*
X205970Y214500D01*
X206090Y213586D01*
X206443Y212735D01*
X207004Y212004D01*
X207735Y211443D01*
X208586Y211090D01*
X209500Y210970D01*
X210414Y211090D01*
X211265Y211443D01*
X211996Y212004D01*
X212557Y212735D01*
X212910Y213586D01*
X213030Y214500D01*
X212910Y215414D01*
X212850Y215557D01*
X216147Y218853D01*
X216498Y219379D01*
X216622Y220000D01*
Y235883D01*
X216765Y235943D01*
X217496Y236504D01*
X218057Y237235D01*
X218410Y238086D01*
X218530Y239000D01*
X218410Y239914D01*
X218057Y240765D01*
X217496Y241496D01*
X216765Y242057D01*
X215914Y242410D01*
X215000Y242530D01*
D02*
G37*
G36*
X178600Y221100D02*
X168800D01*
Y216900D01*
X178600D01*
Y221100D01*
D02*
G37*
G36*
X216567Y281611D02*
X210433D01*
Y272524D01*
X216567D01*
Y273461D01*
X226862D01*
Y272020D01*
X224000D01*
X223610Y271942D01*
X223279Y271721D01*
X223058Y271390D01*
X222980Y271000D01*
Y218000D01*
X223058Y217610D01*
X223279Y217279D01*
X223610Y217058D01*
X224000Y216980D01*
X241578D01*
X241779Y216779D01*
X242110Y216558D01*
X242500Y216480D01*
X242890Y216558D01*
X243221Y216779D01*
X243721Y217279D01*
X243942Y217610D01*
X244020Y218000D01*
Y271000D01*
X243942Y271390D01*
X243744Y271686D01*
Y278449D01*
X226862D01*
Y277539D01*
X216567D01*
Y281611D01*
D02*
G37*
G36*
X197200Y216100D02*
X187400D01*
Y211900D01*
X191461D01*
Y209847D01*
X191004Y209496D01*
X190443Y208765D01*
X190090Y207914D01*
X189970Y207000D01*
X190090Y206086D01*
X190443Y205235D01*
X191004Y204504D01*
X191735Y203943D01*
X192586Y203590D01*
X193500Y203470D01*
X194414Y203590D01*
X195265Y203943D01*
X195996Y204504D01*
X196557Y205235D01*
X196910Y206086D01*
X197030Y207000D01*
X196910Y207914D01*
X196557Y208765D01*
X195996Y209496D01*
X195539Y209847D01*
Y211900D01*
X197200D01*
Y216100D01*
D02*
G37*
G36*
X178600D02*
X168800D01*
Y211900D01*
X171961D01*
Y209651D01*
X171735Y209557D01*
X171004Y208996D01*
X170443Y208265D01*
X170090Y207414D01*
X169970Y206500D01*
X170090Y205586D01*
X170443Y204735D01*
X171004Y204004D01*
X171735Y203443D01*
X172586Y203090D01*
X173500Y202970D01*
X174414Y203090D01*
X175265Y203443D01*
X175996Y204004D01*
X176557Y204735D01*
X176910Y205586D01*
X177030Y206500D01*
X176910Y207414D01*
X176557Y208265D01*
X176039Y208940D01*
Y211900D01*
X178600D01*
Y216100D01*
D02*
G37*
G36*
X197200Y221100D02*
X187400D01*
Y216900D01*
X192203D01*
X192400Y216861D01*
X198255D01*
X200961Y214155D01*
Y206345D01*
X192655Y198039D01*
X180067D01*
Y200543D01*
X173933D01*
Y191457D01*
X174961D01*
Y189345D01*
X166155Y180539D01*
X153932D01*
X153039Y181432D01*
Y183555D01*
X153279D01*
Y191559D01*
X148779D01*
X148721Y191559D01*
X148280D01*
X148221Y191559D01*
X143780D01*
X143720Y191559D01*
X143280D01*
X143220Y191559D01*
X138779D01*
X138721Y191559D01*
X138279D01*
X138221Y191559D01*
X133721D01*
Y183555D01*
X138221D01*
X138279Y183555D01*
X138721D01*
X138779Y183555D01*
X143220D01*
X143280Y183555D01*
X143720D01*
X143780Y183555D01*
X148221D01*
X148280Y183555D01*
X148721D01*
X148961Y183130D01*
Y181374D01*
X148126Y180539D01*
X91999D01*
X91812Y180990D01*
X91021Y182021D01*
X89990Y182812D01*
X88789Y183310D01*
X87500Y183480D01*
X86211Y183310D01*
X85010Y182812D01*
X83979Y182021D01*
X83188Y180990D01*
X82690Y179789D01*
X82520Y178500D01*
X82690Y177211D01*
X83188Y176010D01*
X83979Y174979D01*
X85010Y174188D01*
X86211Y173690D01*
X87500Y173520D01*
X88789Y173690D01*
X89990Y174188D01*
X91021Y174979D01*
X91812Y176010D01*
X91999Y176461D01*
X148500D01*
X148625Y176486D01*
X148750Y176461D01*
X167000D01*
X167780Y176616D01*
X168442Y177058D01*
X178442Y187058D01*
X178442Y187058D01*
X178884Y187720D01*
X179039Y188500D01*
X179039Y188500D01*
Y191457D01*
X180067D01*
Y193961D01*
X193500D01*
X194280Y194116D01*
X194942Y194558D01*
X204442Y204058D01*
X204884Y204720D01*
X205039Y205500D01*
Y215000D01*
X204884Y215780D01*
X204442Y216442D01*
X200542Y220342D01*
X199880Y220784D01*
X199100Y220939D01*
X197200D01*
Y221100D01*
D02*
G37*
G36*
X257453Y203453D02*
X249547D01*
Y195547D01*
X257453D01*
Y203453D01*
D02*
G37*
G36*
X227888Y208622D02*
X212000D01*
X211379Y208498D01*
X210853Y208147D01*
X199853Y197147D01*
X199502Y196621D01*
X199378Y196000D01*
Y178992D01*
X184342Y163955D01*
X183990Y163429D01*
X183867Y162808D01*
Y145396D01*
X183723Y145336D01*
X182992Y144775D01*
X182431Y144044D01*
X182078Y143193D01*
X181958Y142279D01*
X182078Y141365D01*
X182431Y140514D01*
X182992Y139783D01*
X183723Y139222D01*
X184574Y138869D01*
X185488Y138749D01*
X186402Y138869D01*
X187253Y139222D01*
X187984Y139783D01*
X188545Y140514D01*
X188898Y141365D01*
X189018Y142279D01*
X188898Y143193D01*
X188545Y144044D01*
X187984Y144775D01*
X187253Y145336D01*
X187110Y145396D01*
Y162136D01*
X202147Y177173D01*
X202498Y177699D01*
X202622Y178320D01*
Y195328D01*
X212672Y205378D01*
X227217D01*
X229378Y203217D01*
Y196545D01*
X228945Y195897D01*
X228776Y195046D01*
Y191897D01*
X228945Y191046D01*
X229428Y190324D01*
X230149Y189842D01*
X231000Y189673D01*
X231851Y189842D01*
X232573Y190324D01*
X233055Y191046D01*
X233224Y191897D01*
Y195046D01*
X233055Y195897D01*
X232622Y196545D01*
Y203888D01*
X232498Y204509D01*
X232147Y205035D01*
X229035Y208147D01*
X228509Y208498D01*
X227888Y208622D01*
D02*
G37*
G36*
X224500Y201622D02*
X214500D01*
X213879Y201498D01*
X213353Y201147D01*
X207353Y195147D01*
X207002Y194621D01*
X206878Y194000D01*
Y180141D01*
X191940Y165203D01*
X191588Y164677D01*
X191465Y164056D01*
Y162147D01*
X190893Y161910D01*
X190162Y161349D01*
X189601Y160618D01*
X189249Y159767D01*
X189128Y158853D01*
X189249Y157940D01*
X189601Y157088D01*
X190162Y156357D01*
X190893Y155796D01*
X191037Y155737D01*
Y141830D01*
X183810Y134604D01*
X141617D01*
X141557Y134747D01*
X140996Y135478D01*
X140265Y136039D01*
X139414Y136392D01*
X138500Y136512D01*
X137586Y136392D01*
X136735Y136039D01*
X136004Y135478D01*
X135443Y134747D01*
X135090Y133896D01*
X134970Y132982D01*
X135090Y132068D01*
X135443Y131217D01*
X136004Y130485D01*
X136735Y129924D01*
X137586Y129572D01*
X138500Y129452D01*
X139414Y129572D01*
X140265Y129924D01*
X140996Y130485D01*
X141557Y131217D01*
X141617Y131360D01*
X184482D01*
X185102Y131483D01*
X185628Y131835D01*
X193805Y140012D01*
X194157Y140538D01*
X194280Y141158D01*
Y155737D01*
X194424Y155796D01*
X195155Y156357D01*
X195716Y157088D01*
X196068Y157940D01*
X196189Y158853D01*
X196068Y159767D01*
X195716Y160618D01*
X195155Y161349D01*
X194708Y161692D01*
Y163384D01*
X209647Y178323D01*
X209998Y178849D01*
X210122Y179470D01*
Y193328D01*
X215172Y198378D01*
X223828D01*
X224378Y197828D01*
Y196545D01*
X223945Y195897D01*
X223776Y195046D01*
Y191897D01*
X223945Y191046D01*
X224428Y190324D01*
X225149Y189842D01*
X226000Y189673D01*
X226851Y189842D01*
X227572Y190324D01*
X228055Y191046D01*
X228224Y191897D01*
Y195046D01*
X228055Y195897D01*
X227622Y196545D01*
Y198500D01*
X227498Y199121D01*
X227147Y199647D01*
X225647Y201147D01*
X225121Y201498D01*
X224500Y201622D01*
D02*
G37*
G36*
X221000Y197270D02*
X220149Y197101D01*
X219427Y196619D01*
X218945Y195897D01*
X218776Y195046D01*
Y191897D01*
X218945Y191046D01*
X219427Y190324D01*
X220149Y189842D01*
X221000Y189673D01*
X221851Y189842D01*
X222572Y190324D01*
X223055Y191046D01*
X223224Y191897D01*
Y195046D01*
X223055Y195897D01*
X222572Y196619D01*
X221851Y197101D01*
X221000Y197270D01*
D02*
G37*
G36*
X216000D02*
X215149Y197101D01*
X214427Y196619D01*
X213945Y195897D01*
X213776Y195046D01*
Y191897D01*
X213945Y191046D01*
X214427Y190324D01*
X215149Y189842D01*
X216000Y189673D01*
X216851Y189842D01*
X217572Y190324D01*
X218055Y191046D01*
X218224Y191897D01*
Y195046D01*
X218055Y195897D01*
X217572Y196619D01*
X216851Y197101D01*
X216000Y197270D01*
D02*
G37*
G36*
X253500Y193487D02*
X252468Y193351D01*
X251507Y192953D01*
X250681Y192319D01*
X250047Y191493D01*
X249649Y190532D01*
X249513Y189500D01*
X249649Y188468D01*
X250047Y187507D01*
X250681Y186681D01*
X251507Y186047D01*
X252468Y185649D01*
X253500Y185513D01*
X254532Y185649D01*
X255493Y186047D01*
X256319Y186681D01*
X256953Y187507D01*
X257351Y188468D01*
X257487Y189500D01*
X257351Y190532D01*
X256953Y191493D01*
X256319Y192319D01*
X255493Y192953D01*
X254532Y193351D01*
X253500Y193487D01*
D02*
G37*
G36*
X231000Y175223D02*
X230149Y175054D01*
X229428Y174572D01*
X228945Y173850D01*
X228776Y172999D01*
Y169850D01*
X228945Y168999D01*
X229428Y168277D01*
X230149Y167795D01*
X231000Y167626D01*
X231851Y167795D01*
X232573Y168277D01*
X233055Y168999D01*
X233224Y169850D01*
Y172999D01*
X233055Y173850D01*
X232573Y174572D01*
X231851Y175054D01*
X231000Y175223D01*
D02*
G37*
G36*
X226000D02*
X225149Y175054D01*
X224428Y174572D01*
X223945Y173850D01*
X223776Y172999D01*
Y169850D01*
X223945Y168999D01*
X224428Y168277D01*
X225149Y167795D01*
X226000Y167626D01*
X226851Y167795D01*
X227572Y168277D01*
X228055Y168999D01*
X228224Y169850D01*
Y172999D01*
X228055Y173850D01*
X227572Y174572D01*
X226851Y175054D01*
X226000Y175223D01*
D02*
G37*
G36*
X140500Y175480D02*
X139211Y175310D01*
X138010Y174812D01*
X136979Y174021D01*
X136188Y172990D01*
X135690Y171789D01*
X135520Y170500D01*
X135690Y169211D01*
X136050Y168343D01*
X128853Y161147D01*
X128502Y160621D01*
X128378Y160000D01*
Y156070D01*
X127510Y155710D01*
X126479Y154919D01*
X125688Y153888D01*
X125190Y152687D01*
X125020Y151398D01*
X125190Y150109D01*
X125688Y148908D01*
X126479Y147877D01*
X127510Y147085D01*
X128711Y146588D01*
X130000Y146418D01*
X131289Y146588D01*
X132490Y147085D01*
X133521Y147877D01*
X134312Y148908D01*
X134810Y150109D01*
X134980Y151398D01*
X134810Y152687D01*
X134312Y153888D01*
X133521Y154919D01*
X132490Y155710D01*
X131622Y156070D01*
Y159328D01*
X138343Y166050D01*
X139211Y165690D01*
X140500Y165520D01*
X141789Y165690D01*
X142990Y166188D01*
X144021Y166979D01*
X144813Y168010D01*
X145310Y169211D01*
X145480Y170500D01*
X145310Y171789D01*
X144813Y172990D01*
X144021Y174021D01*
X142990Y174812D01*
X141789Y175310D01*
X140500Y175480D01*
D02*
G37*
G36*
X221000Y175223D02*
X220149Y175054D01*
X219427Y174572D01*
X218945Y173850D01*
X218776Y172999D01*
Y169850D01*
X218945Y168999D01*
X218961Y168975D01*
Y165348D01*
X218499Y165156D01*
X218039Y165616D01*
Y168975D01*
X218055Y168999D01*
X218224Y169850D01*
Y172999D01*
X218055Y173850D01*
X217572Y174572D01*
X216851Y175054D01*
X216000Y175223D01*
X215149Y175054D01*
X214427Y174572D01*
X213945Y173850D01*
X213776Y172999D01*
Y169850D01*
X213945Y168999D01*
X213961Y168975D01*
Y164771D01*
X214037Y164388D01*
X213787Y164176D01*
X213588Y164081D01*
X212795Y164410D01*
X211882Y164530D01*
X210968Y164410D01*
X210117Y164057D01*
X209385Y163496D01*
X208824Y162765D01*
X208472Y161914D01*
X208351Y161000D01*
X208472Y160086D01*
X208824Y159235D01*
X209385Y158504D01*
X210117Y157943D01*
X210260Y157883D01*
Y133250D01*
X176937Y99928D01*
X159617D01*
X159557Y100071D01*
X158996Y100802D01*
X158265Y101363D01*
X157414Y101716D01*
X156500Y101836D01*
X155586Y101716D01*
X154735Y101363D01*
X154004Y100802D01*
X153443Y100071D01*
X153090Y99220D01*
X152970Y98306D01*
X153090Y97392D01*
X153443Y96541D01*
X154004Y95810D01*
X154735Y95249D01*
X155586Y94896D01*
X156500Y94776D01*
X157414Y94896D01*
X158265Y95249D01*
X158996Y95810D01*
X159557Y96541D01*
X159617Y96684D01*
X177609D01*
X178229Y96808D01*
X178755Y97159D01*
X213028Y131432D01*
X213380Y131958D01*
X213503Y132579D01*
Y157883D01*
X213647Y157943D01*
X214378Y158504D01*
X214939Y159235D01*
X215292Y160086D01*
X215412Y161000D01*
X215295Y161885D01*
X215328Y161924D01*
X215776Y162111D01*
X216311Y161576D01*
Y159437D01*
X216073Y159080D01*
X215917Y158299D01*
Y155587D01*
X215433D01*
Y146500D01*
X216461D01*
Y142043D01*
X215433D01*
Y132957D01*
X221567D01*
Y142043D01*
X220539D01*
Y146500D01*
X221567D01*
Y155587D01*
X219996D01*
Y157556D01*
X220234Y157913D01*
X220390Y158693D01*
X220390Y158693D01*
Y161347D01*
X220852Y161538D01*
X226191Y156199D01*
Y155587D01*
X225933D01*
Y146500D01*
X232067D01*
Y148961D01*
X243001D01*
X243187Y148510D01*
X243979Y147479D01*
X245010Y146687D01*
X246211Y146190D01*
X247500Y146020D01*
X248789Y146190D01*
X249990Y146687D01*
X251021Y147479D01*
X251813Y148510D01*
X252310Y149711D01*
X252480Y151000D01*
X252310Y152289D01*
X251813Y153490D01*
X251021Y154521D01*
X249990Y155313D01*
X248789Y155810D01*
X247500Y155980D01*
X246211Y155810D01*
X245010Y155313D01*
X243979Y154521D01*
X243187Y153490D01*
X243001Y153039D01*
X232067D01*
Y155587D01*
X230270D01*
Y157043D01*
X230114Y157824D01*
X229672Y158485D01*
X223039Y165118D01*
Y168975D01*
X223055Y168999D01*
X223224Y169850D01*
Y172999D01*
X223055Y173850D01*
X222572Y174572D01*
X221851Y175054D01*
X221000Y175223D01*
D02*
G37*
G36*
X173700Y178148D02*
X172786Y178028D01*
X171935Y177675D01*
X171204Y177114D01*
X170643Y176383D01*
X170290Y175532D01*
X170170Y174618D01*
X170290Y173704D01*
X170643Y172853D01*
X171204Y172122D01*
X171661Y171771D01*
Y167543D01*
X169933D01*
Y158457D01*
X176067D01*
Y167543D01*
X175739D01*
Y171771D01*
X176196Y172122D01*
X176757Y172853D01*
X177110Y173704D01*
X177230Y174618D01*
X177110Y175532D01*
X176757Y176383D01*
X176196Y177114D01*
X175465Y177675D01*
X174614Y178028D01*
X173700Y178148D01*
D02*
G37*
G36*
X110500Y155122D02*
X98573D01*
X97953Y154998D01*
X97426Y154647D01*
X96831Y154051D01*
X96490Y154313D01*
X95289Y154810D01*
X94000Y154980D01*
X92711Y154810D01*
X91510Y154313D01*
X90479Y153521D01*
X89688Y152490D01*
X89190Y151289D01*
X89020Y150000D01*
X89190Y148711D01*
X89688Y147510D01*
X90479Y146479D01*
X91510Y145687D01*
X92711Y145190D01*
X94000Y145020D01*
X95289Y145190D01*
X96490Y145687D01*
X97521Y146479D01*
X98312Y147510D01*
X98810Y148711D01*
X98980Y150000D01*
X98810Y151289D01*
X98765Y151398D01*
X99245Y151878D01*
X109828D01*
X111878Y149828D01*
Y146602D01*
X111378Y146570D01*
X111310Y147089D01*
X110812Y148290D01*
X110021Y149321D01*
X108990Y150112D01*
X107789Y150610D01*
X106500Y150780D01*
X105211Y150610D01*
X104010Y150112D01*
X102979Y149321D01*
X102188Y148290D01*
X101690Y147089D01*
X101520Y145800D01*
X101690Y144511D01*
X102188Y143310D01*
X102979Y142279D01*
X104010Y141488D01*
X104878Y141128D01*
Y102853D01*
X105002Y102233D01*
X105353Y101707D01*
X115797Y91263D01*
X116323Y90911D01*
X116944Y90788D01*
X180909D01*
X181530Y90911D01*
X182056Y91263D01*
X184096Y93303D01*
X184468Y93149D01*
X185500Y93013D01*
X186532Y93149D01*
X187493Y93547D01*
X188319Y94181D01*
X188953Y95007D01*
X189351Y95968D01*
X189487Y97000D01*
X189351Y98032D01*
X188953Y98993D01*
X188319Y99819D01*
X187493Y100453D01*
X186532Y100851D01*
X185500Y100987D01*
X184468Y100851D01*
X183507Y100453D01*
X182681Y99819D01*
X182047Y98993D01*
X181649Y98032D01*
X181513Y97000D01*
X181649Y95968D01*
X181803Y95596D01*
X180238Y94031D01*
X117616D01*
X108122Y103525D01*
Y141128D01*
X108990Y141488D01*
X110021Y142279D01*
X110812Y143310D01*
X111310Y144511D01*
X111378Y145030D01*
X111878Y144998D01*
Y107000D01*
X112002Y106379D01*
X112353Y105853D01*
X119853Y98353D01*
X120379Y98002D01*
X121000Y97878D01*
X140383D01*
X140443Y97735D01*
X141004Y97004D01*
X141735Y96443D01*
X142586Y96090D01*
X143500Y95970D01*
X144414Y96090D01*
X145265Y96443D01*
X145996Y97004D01*
X146557Y97735D01*
X146910Y98586D01*
X147030Y99500D01*
X146910Y100414D01*
X146557Y101265D01*
X145996Y101996D01*
X145265Y102557D01*
X144414Y102910D01*
X143500Y103030D01*
X142586Y102910D01*
X141735Y102557D01*
X141004Y101996D01*
X140443Y101265D01*
X140383Y101122D01*
X121672D01*
X115122Y107672D01*
Y150500D01*
X114998Y151121D01*
X114647Y151647D01*
X111647Y154647D01*
X111121Y154998D01*
X110500Y155122D01*
D02*
G37*
G36*
X194000Y191530D02*
X193086Y191410D01*
X192235Y191057D01*
X191504Y190496D01*
X190943Y189765D01*
X190590Y188914D01*
X190470Y188000D01*
X190590Y187086D01*
X190943Y186235D01*
X191504Y185504D01*
X191961Y185153D01*
Y178946D01*
X178019Y165005D01*
X177577Y164343D01*
X177422Y163563D01*
Y153805D01*
X176529Y152913D01*
X176067Y153104D01*
Y154043D01*
X169933D01*
Y144957D01*
X176067D01*
Y147474D01*
X176780Y147616D01*
X177442Y148058D01*
X180903Y151519D01*
X181345Y152181D01*
X181500Y152961D01*
Y162718D01*
X195442Y176660D01*
X195442Y176660D01*
X195884Y177322D01*
X196039Y178102D01*
X196039Y178102D01*
Y185153D01*
X196496Y185504D01*
X197057Y186235D01*
X197410Y187086D01*
X197530Y188000D01*
X197410Y188914D01*
X197057Y189765D01*
X196496Y190496D01*
X195765Y191057D01*
X194914Y191410D01*
X194000Y191530D01*
D02*
G37*
G36*
X152000Y167980D02*
X150711Y167810D01*
X149510Y167313D01*
X148479Y166521D01*
X147687Y165490D01*
X147190Y164289D01*
X147020Y163000D01*
X147190Y161711D01*
X147687Y160510D01*
X148479Y159479D01*
X149510Y158687D01*
X150711Y158190D01*
X152000Y158020D01*
X152033Y158025D01*
X159433Y150625D01*
Y144957D01*
X165567D01*
Y154043D01*
X165289D01*
Y158457D01*
X165567D01*
Y167543D01*
X159433D01*
Y166520D01*
X155522D01*
X155521Y166521D01*
X154490Y167313D01*
X153289Y167810D01*
X152000Y167980D01*
D02*
G37*
G36*
X294138Y282583D02*
X258909D01*
Y238417D01*
X264088D01*
Y178571D01*
X262488D01*
Y170429D01*
X263531D01*
Y158021D01*
X260055D01*
Y148934D01*
X263531D01*
Y140039D01*
X260999D01*
X260812Y140490D01*
X260021Y141521D01*
X258990Y142313D01*
X257789Y142810D01*
X256500Y142980D01*
X255211Y142810D01*
X254010Y142313D01*
X252979Y141521D01*
X252187Y140490D01*
X252001Y140039D01*
X232067D01*
Y142043D01*
X225933D01*
Y132957D01*
X232067D01*
Y135961D01*
X252001D01*
X252187Y135510D01*
X252979Y134479D01*
X254010Y133687D01*
X255211Y133190D01*
X256500Y133020D01*
X257789Y133190D01*
X258990Y133687D01*
X260021Y134479D01*
X260812Y135510D01*
X260999Y135961D01*
X263531D01*
Y132669D01*
X254181Y123319D01*
X253547Y122493D01*
X253149Y121532D01*
X253013Y120500D01*
X253013Y120500D01*
Y67500D01*
X253013Y67500D01*
X253149Y66468D01*
X253547Y65507D01*
X254181Y64681D01*
X269620Y49242D01*
X269690Y48711D01*
X270187Y47510D01*
X270979Y46479D01*
X272010Y45687D01*
X273211Y45190D01*
X274500Y45020D01*
X275789Y45190D01*
X276990Y45687D01*
X278021Y46479D01*
X278813Y47510D01*
X279310Y48711D01*
X279480Y50000D01*
X279310Y51289D01*
X278813Y52490D01*
X278021Y53521D01*
X276990Y54312D01*
X275789Y54810D01*
X275258Y54880D01*
X260987Y69151D01*
Y118849D01*
X270337Y128199D01*
X270337Y128199D01*
X270970Y129024D01*
X271369Y129986D01*
X271505Y131018D01*
Y138000D01*
Y148934D01*
X273866D01*
Y158021D01*
X271505D01*
Y170429D01*
X273661D01*
Y174359D01*
X273695Y174618D01*
X273661Y174877D01*
Y178571D01*
X272062D01*
Y238417D01*
X294138D01*
Y282583D01*
D02*
G37*
G36*
X121500Y175480D02*
X120211Y175310D01*
X119010Y174812D01*
X117979Y174021D01*
X117188Y172990D01*
X116690Y171789D01*
X116520Y170500D01*
X116690Y169211D01*
X117188Y168010D01*
X117979Y166979D01*
X119010Y166188D01*
X119628Y165931D01*
Y145276D01*
X118510Y144813D01*
X117479Y144021D01*
X116688Y142990D01*
X116190Y141789D01*
X116020Y140500D01*
X116190Y139211D01*
X116688Y138010D01*
X117479Y136979D01*
X118510Y136188D01*
X119711Y135690D01*
X121000Y135520D01*
X122289Y135690D01*
X123490Y136188D01*
X124521Y136979D01*
X125312Y138010D01*
X125810Y139211D01*
X125980Y140500D01*
X125810Y141789D01*
X125312Y142990D01*
X124521Y144021D01*
X123490Y144813D01*
X122872Y145069D01*
Y165724D01*
X123990Y166188D01*
X125021Y166979D01*
X125812Y168010D01*
X126310Y169211D01*
X126480Y170500D01*
X126310Y171789D01*
X125812Y172990D01*
X125021Y174021D01*
X123990Y174812D01*
X122789Y175310D01*
X121500Y175480D01*
D02*
G37*
G36*
X200000Y166177D02*
X199086Y166057D01*
X198235Y165704D01*
X197504Y165143D01*
X196943Y164412D01*
X196590Y163560D01*
X196470Y162647D01*
X196590Y161733D01*
X196943Y160882D01*
X197504Y160151D01*
X198235Y159590D01*
X198378Y159530D01*
Y138949D01*
X178051Y118622D01*
X173059D01*
X173000Y118765D01*
X172439Y119496D01*
X171708Y120057D01*
X170856Y120410D01*
X169943Y120530D01*
X169029Y120410D01*
X168178Y120057D01*
X167447Y119496D01*
X166886Y118765D01*
X166826Y118622D01*
X123884D01*
X123824Y118765D01*
X123263Y119496D01*
X122532Y120057D01*
X121681Y120410D01*
X120767Y120530D01*
X119853Y120410D01*
X119002Y120057D01*
X118271Y119496D01*
X117710Y118765D01*
X117357Y117914D01*
X117237Y117000D01*
X117357Y116086D01*
X117710Y115235D01*
X118271Y114504D01*
X119002Y113943D01*
X119853Y113590D01*
X120767Y113470D01*
X121681Y113590D01*
X122532Y113943D01*
X123263Y114504D01*
X123824Y115235D01*
X123884Y115378D01*
X166826D01*
X166886Y115235D01*
X167447Y114504D01*
X168178Y113943D01*
X169029Y113590D01*
X169943Y113470D01*
X170856Y113590D01*
X171708Y113943D01*
X172439Y114504D01*
X173000Y115235D01*
X173059Y115378D01*
X178723D01*
X179344Y115502D01*
X179870Y115853D01*
X201147Y137130D01*
X201498Y137656D01*
X201622Y138277D01*
Y159530D01*
X201765Y159590D01*
X202496Y160151D01*
X203057Y160882D01*
X203410Y161733D01*
X203530Y162647D01*
X203410Y163560D01*
X203057Y164412D01*
X202496Y165143D01*
X201765Y165704D01*
X200914Y166057D01*
X200000Y166177D01*
D02*
G37*
G36*
X275000Y116243D02*
X273772Y116082D01*
X272628Y115608D01*
X271646Y114854D01*
X270892Y113872D01*
X270418Y112728D01*
X270257Y111500D01*
X270418Y110272D01*
X270892Y109128D01*
X271646Y108146D01*
X272628Y107392D01*
X273772Y106918D01*
X275000Y106757D01*
X276228Y106918D01*
X277372Y107392D01*
X278354Y108146D01*
X279108Y109128D01*
X279582Y110272D01*
X279743Y111500D01*
X279582Y112728D01*
X279108Y113872D01*
X278354Y114854D01*
X277372Y115608D01*
X276228Y116082D01*
X275000Y116243D01*
D02*
G37*
G36*
X95000Y106243D02*
X93772Y106082D01*
X92628Y105608D01*
X91646Y104854D01*
X90892Y103872D01*
X90418Y102728D01*
X90257Y101500D01*
X90418Y100272D01*
X90892Y99128D01*
X91646Y98146D01*
X92628Y97392D01*
X93772Y96918D01*
X95000Y96757D01*
X96228Y96918D01*
X97372Y97392D01*
X98354Y98146D01*
X99108Y99128D01*
X99582Y100272D01*
X99743Y101500D01*
X99582Y102728D01*
X99108Y103872D01*
X98354Y104854D01*
X97372Y105608D01*
X96228Y106082D01*
X95000Y106243D01*
D02*
G37*
G36*
X178500Y89530D02*
X177586Y89410D01*
X176735Y89057D01*
X176004Y88496D01*
X175443Y87765D01*
X175329Y87489D01*
X158062D01*
X158057Y87500D01*
X157496Y88231D01*
X156765Y88792D01*
X155914Y89145D01*
X155000Y89265D01*
X154086Y89145D01*
X153235Y88792D01*
X152504Y88231D01*
X151943Y87500D01*
X151590Y86649D01*
X151470Y85735D01*
X151590Y84821D01*
X151943Y83970D01*
X152504Y83239D01*
X153235Y82678D01*
X154086Y82325D01*
X155000Y82205D01*
X155914Y82325D01*
X156765Y82678D01*
X157496Y83239D01*
X158057Y83970D01*
X158171Y84246D01*
X175438D01*
X175443Y84235D01*
X176004Y83504D01*
X176735Y82943D01*
X177586Y82590D01*
X178500Y82470D01*
X179414Y82590D01*
X180265Y82943D01*
X180996Y83504D01*
X181557Y84235D01*
X181910Y85086D01*
X182030Y86000D01*
X181910Y86914D01*
X181557Y87765D01*
X180996Y88496D01*
X180265Y89057D01*
X179414Y89410D01*
X178500Y89530D01*
D02*
G37*
G36*
X28500Y93606D02*
X27352Y93455D01*
X26283Y93012D01*
X25365Y92307D01*
X24660Y91389D01*
X24217Y90320D01*
X24066Y89172D01*
X24217Y88025D01*
X24660Y86955D01*
X25365Y86037D01*
X26283Y85333D01*
X27352Y84890D01*
X28500Y84739D01*
X29647Y84890D01*
X30717Y85333D01*
X31635Y86037D01*
X32340Y86955D01*
X32783Y88025D01*
X32934Y89172D01*
X32783Y90320D01*
X32340Y91389D01*
X31635Y92307D01*
X30717Y93012D01*
X29647Y93455D01*
X28500Y93606D01*
D02*
G37*
G36*
X286000Y219487D02*
X284968Y219351D01*
X284007Y218953D01*
X283181Y218319D01*
X283181Y218319D01*
X283163Y218301D01*
X282530Y217476D01*
X282131Y216514D01*
X281995Y215482D01*
X281995Y215482D01*
Y178571D01*
X279339D01*
Y170429D01*
X281995D01*
Y158021D01*
X280134D01*
Y148934D01*
X281995D01*
Y147000D01*
X282131Y145968D01*
X282530Y145007D01*
X283163Y144181D01*
X283989Y143547D01*
X284013Y143537D01*
Y87414D01*
X283687Y86990D01*
X283190Y85789D01*
X283020Y84500D01*
X283190Y83211D01*
X283687Y82010D01*
X284479Y80979D01*
X285510Y80187D01*
X286711Y79690D01*
X288000Y79520D01*
X289289Y79690D01*
X290490Y80187D01*
X291521Y80979D01*
X292313Y82010D01*
X292810Y83211D01*
X292980Y84500D01*
X292810Y85789D01*
X292313Y86990D01*
X291987Y87414D01*
Y146039D01*
X291851Y147071D01*
X291453Y148033D01*
X291145Y148434D01*
X291391Y148934D01*
X293945D01*
Y158021D01*
X289969D01*
Y170429D01*
X290512D01*
Y178571D01*
X289969D01*
Y215366D01*
X289987Y215500D01*
X289851Y216532D01*
X289453Y217493D01*
X288819Y218319D01*
X287993Y218953D01*
X287032Y219351D01*
X286000Y219487D01*
D02*
G37*
G36*
X275000Y76243D02*
X273772Y76082D01*
X272628Y75608D01*
X271646Y74854D01*
X270892Y73872D01*
X270418Y72728D01*
X270257Y71500D01*
X270418Y70272D01*
X270892Y69128D01*
X271646Y68146D01*
X272628Y67392D01*
X273772Y66918D01*
X275000Y66757D01*
X276228Y66918D01*
X277372Y67392D01*
X278354Y68146D01*
X279108Y69128D01*
X279582Y70272D01*
X279743Y71500D01*
X279582Y72728D01*
X279108Y73872D01*
X278354Y74854D01*
X277372Y75608D01*
X276228Y76082D01*
X275000Y76243D01*
D02*
G37*
G36*
X95000Y66243D02*
X93772Y66082D01*
X92628Y65608D01*
X91646Y64854D01*
X90892Y63872D01*
X90418Y62728D01*
X90257Y61500D01*
X90418Y60272D01*
X90892Y59128D01*
X91646Y58146D01*
X92628Y57392D01*
X93772Y56918D01*
X95000Y56757D01*
X96228Y56918D01*
X97372Y57392D01*
X98354Y58146D01*
X99108Y59128D01*
X99582Y60272D01*
X99743Y61500D01*
X99582Y62728D01*
X99108Y63872D01*
X98354Y64854D01*
X97372Y65608D01*
X96228Y66082D01*
X95000Y66243D01*
D02*
G37*
G36*
X73500Y48487D02*
X73500Y48487D01*
X41500D01*
X40468Y48351D01*
X40238Y48256D01*
X31004D01*
Y40744D01*
X40238D01*
X40468Y40649D01*
X41500Y40513D01*
X70569D01*
X70979Y39979D01*
X72010Y39187D01*
X73211Y38690D01*
X74500Y38520D01*
X75789Y38690D01*
X76990Y39187D01*
X78021Y39979D01*
X78812Y41010D01*
X79310Y42211D01*
X79480Y43500D01*
X79310Y44789D01*
X78812Y45990D01*
X78021Y47021D01*
X76990Y47813D01*
X75789Y48310D01*
X74500Y48480D01*
X74028Y48417D01*
X73500Y48487D01*
D02*
G37*
G36*
X99703Y46203D02*
X90297D01*
Y36797D01*
X99703D01*
Y46203D01*
D02*
G37*
G36*
X275000Y36243D02*
X273772Y36082D01*
X272628Y35608D01*
X271646Y34854D01*
X270892Y33872D01*
X270418Y32728D01*
X270257Y31500D01*
X270418Y30272D01*
X270892Y29128D01*
X271646Y28146D01*
X272628Y27392D01*
X273772Y26918D01*
X275000Y26757D01*
X276228Y26918D01*
X277372Y27392D01*
X278354Y28146D01*
X279108Y29128D01*
X279582Y30272D01*
X279743Y31500D01*
X279582Y32728D01*
X279108Y33872D01*
X278354Y34854D01*
X277372Y35608D01*
X276228Y36082D01*
X275000Y36243D01*
D02*
G37*
G36*
X274000Y14414D02*
Y10000D01*
X278414D01*
X278310Y10789D01*
X277813Y11990D01*
X277021Y13021D01*
X275990Y13813D01*
X274789Y14310D01*
X274000Y14414D01*
D02*
G37*
G36*
X252000D02*
Y10000D01*
X256414D01*
X256310Y10789D01*
X255813Y11990D01*
X255021Y13021D01*
X253990Y13813D01*
X252789Y14310D01*
X252000Y14414D01*
D02*
G37*
G36*
X48500D02*
Y10000D01*
X52914D01*
X52810Y10789D01*
X52312Y11990D01*
X51521Y13021D01*
X50490Y13813D01*
X49289Y14310D01*
X48500Y14414D01*
D02*
G37*
G36*
X26500D02*
Y10000D01*
X30914D01*
X30810Y10789D01*
X30312Y11990D01*
X29521Y13021D01*
X28490Y13813D01*
X27289Y14310D01*
X26500Y14414D01*
D02*
G37*
G36*
X273000D02*
X272211Y14310D01*
X271010Y13813D01*
X269979Y13021D01*
X269187Y11990D01*
X268690Y10789D01*
X268586Y10000D01*
X273000D01*
Y14414D01*
D02*
G37*
G36*
X251000D02*
X250211Y14310D01*
X249010Y13813D01*
X247979Y13021D01*
X247187Y11990D01*
X246690Y10789D01*
X246586Y10000D01*
X251000D01*
Y14414D01*
D02*
G37*
G36*
X47500D02*
X46711Y14310D01*
X45510Y13813D01*
X44479Y13021D01*
X43687Y11990D01*
X43190Y10789D01*
X43086Y10000D01*
X47500D01*
Y14414D01*
D02*
G37*
G36*
X25500D02*
X24711Y14310D01*
X23510Y13813D01*
X22479Y13021D01*
X21688Y11990D01*
X21190Y10789D01*
X21086Y10000D01*
X25500D01*
Y14414D01*
D02*
G37*
G36*
X278414Y9000D02*
X274000D01*
Y4586D01*
X274789Y4690D01*
X275990Y5187D01*
X277021Y5979D01*
X277813Y7010D01*
X278310Y8211D01*
X278414Y9000D01*
D02*
G37*
G36*
X256414D02*
X252000D01*
Y4586D01*
X252789Y4690D01*
X253990Y5187D01*
X255021Y5979D01*
X255813Y7010D01*
X256310Y8211D01*
X256414Y9000D01*
D02*
G37*
G36*
X52914D02*
X48500D01*
Y4586D01*
X49289Y4690D01*
X50490Y5187D01*
X51521Y5979D01*
X52312Y7010D01*
X52810Y8211D01*
X52914Y9000D01*
D02*
G37*
G36*
X30914D02*
X26500D01*
Y4586D01*
X27289Y4690D01*
X28490Y5187D01*
X29521Y5979D01*
X30312Y7010D01*
X30810Y8211D01*
X30914Y9000D01*
D02*
G37*
G36*
X273000D02*
X268586D01*
X268690Y8211D01*
X269187Y7010D01*
X269979Y5979D01*
X271010Y5187D01*
X272211Y4690D01*
X273000Y4586D01*
Y9000D01*
D02*
G37*
G36*
X251000D02*
X246586D01*
X246690Y8211D01*
X247187Y7010D01*
X247979Y5979D01*
X249010Y5187D01*
X250211Y4690D01*
X251000Y4586D01*
Y9000D01*
D02*
G37*
G36*
X25500D02*
X21086D01*
X21190Y8211D01*
X21688Y7010D01*
X22479Y5979D01*
X23510Y5187D01*
X24711Y4690D01*
X25500Y4586D01*
Y9000D01*
D02*
G37*
G36*
X47500D02*
X43086D01*
X43190Y8211D01*
X43687Y7010D01*
X44479Y5979D01*
X45510Y5187D01*
X46711Y4690D01*
X47500Y4586D01*
Y9000D01*
D02*
G37*
%LPD*%
G36*
X21000Y286000D02*
X21000Y163422D01*
X32750Y151672D01*
X21000Y141061D01*
Y72500D01*
X21000Y42000D01*
X4500D01*
X4500Y69667D01*
X4500Y286000D01*
X21000Y286000D01*
D02*
G37*
G36*
X63000Y286000D02*
X63000Y174500D01*
X43000Y154500D01*
Y130482D01*
X51982Y121500D01*
X52000D01*
Y85672D01*
X75000Y62672D01*
Y61000D01*
X48000D01*
X45294Y63706D01*
X45541Y68181D01*
X38000D01*
Y286000D01*
X63000Y286000D01*
D02*
G37*
G36*
X162000Y221000D02*
X159000Y224000D01*
X165000D01*
X162000Y221000D01*
D02*
G37*
G36*
X151934Y218900D02*
X151125D01*
Y224000D01*
X157034D01*
X151934Y218900D01*
D02*
G37*
G36*
X103607Y210935D02*
X121667Y209000D01*
X89600Y209000D01*
X89461Y208962D01*
X89000Y208500D01*
Y208833D01*
X89000Y208833D01*
Y211226D01*
X89000D01*
Y212000D01*
X89000Y212000D01*
Y211226D01*
X88294Y211294D01*
X89000Y212000D01*
X89000Y223500D01*
X90021Y224521D01*
X103607Y210935D01*
D02*
G37*
%LPC*%
G36*
X92875Y220125D02*
Y215875D01*
X89452Y212452D01*
X98526Y211479D01*
X100870Y212130D01*
X92875Y220125D01*
D02*
G37*
%LPD*%
G36*
X243000Y218000D02*
X242500Y217500D01*
X242000Y218000D01*
X224000D01*
Y271000D01*
X243000D01*
Y218000D01*
D02*
G37*
G36*
X153779Y179250D02*
X148279D01*
X150529Y181500D01*
X151529D01*
X153779Y179250D01*
D02*
G37*
G36*
X163500Y148000D02*
X152000Y159500D01*
Y165500D01*
X163500D01*
Y148000D01*
D02*
G37*
D16*
X14386Y44500D02*
D03*
X37614D02*
D03*
D17*
X192300Y229000D02*
D03*
Y224000D02*
D03*
Y219000D02*
D03*
Y214000D02*
D03*
X173700D02*
D03*
Y219000D02*
D03*
Y224000D02*
D03*
Y229000D02*
D03*
D18*
X151000Y221499D02*
D03*
X140500D02*
D03*
X229000Y137500D02*
D03*
X218500D02*
D03*
X229000Y151043D02*
D03*
X218500D02*
D03*
X166500Y196000D02*
D03*
X177000D02*
D03*
X213500Y277068D02*
D03*
X203000D02*
D03*
X173000Y149500D02*
D03*
X162500D02*
D03*
X173000Y163000D02*
D03*
X162500D02*
D03*
D19*
X151000Y187557D02*
D03*
X146000D02*
D03*
X141000D02*
D03*
X136000D02*
D03*
Y208911D02*
D03*
X141000D02*
D03*
X146000D02*
D03*
X151000D02*
D03*
D20*
X216000Y171424D02*
D03*
X221000D02*
D03*
X226000D02*
D03*
X231000D02*
D03*
Y193472D02*
D03*
X226000D02*
D03*
X221000D02*
D03*
X216000D02*
D03*
D21*
X74925Y238073D02*
D03*
X58075D02*
D03*
X284925Y174500D02*
D03*
X268075D02*
D03*
D22*
X276524Y260500D02*
D03*
D23*
X235303Y245500D02*
D03*
Y250500D02*
D03*
Y255500D02*
D03*
Y265500D02*
D03*
Y270500D02*
D03*
Y275500D02*
D03*
D24*
X123000Y254000D02*
D03*
Y264500D02*
D03*
X117500Y199500D02*
D03*
Y210000D02*
D03*
X103559Y254500D02*
D03*
Y265000D02*
D03*
X117000Y228000D02*
D03*
Y238500D02*
D03*
D25*
X60897Y44461D02*
D03*
Y60539D02*
D03*
D26*
X56067Y261417D02*
D03*
X76933D02*
D03*
D27*
X182878Y264000D02*
D03*
X194122D02*
D03*
D28*
X156500Y265122D02*
D03*
Y253878D02*
D03*
X141000Y265122D02*
D03*
Y253878D02*
D03*
D29*
X103740Y238634D02*
D03*
X96260D02*
D03*
X100000Y230366D02*
D03*
D30*
X48929Y117000D02*
D03*
X17067D02*
D03*
D31*
X266961Y153477D02*
D03*
X287039D02*
D03*
D32*
X37539Y74000D02*
D03*
X21461D02*
D03*
D60*
X285982Y175557D02*
Y215482D01*
Y147000D02*
X287039D01*
X285982Y174382D02*
Y175557D01*
Y147000D02*
Y174382D01*
X267518Y153477D02*
Y174382D01*
Y138000D02*
Y153477D01*
Y131018D02*
Y138000D01*
X268075Y254051D02*
X275524Y261500D01*
X257000Y120500D02*
X267518Y131018D01*
X257000Y67500D02*
X274500Y50000D01*
X257000Y67500D02*
Y120500D01*
X50000Y61000D02*
X75000D01*
X75929Y239000D02*
Y257744D01*
X73500Y44500D02*
X74500Y43500D01*
X61000Y44500D02*
X73500D01*
X41500D02*
X61000D01*
X42819Y68181D02*
X50000Y61000D01*
X76933Y261417D02*
Y270252D01*
X268075Y177768D02*
Y254051D01*
X285982Y215482D02*
X286000Y215500D01*
X285864Y174500D02*
X285982Y174382D01*
X287039Y147000D02*
X288000Y146039D01*
Y84500D02*
Y146039D01*
X269590Y174500D02*
X269709Y174618D01*
X268075Y174500D02*
X269590D01*
X284925D02*
X285864D01*
X267636D02*
X268075D01*
X267518Y174382D02*
X267636Y174500D01*
X72000Y275185D02*
X76933Y270252D01*
X72000Y275185D02*
Y286000D01*
D61*
X228230Y151270D02*
X229000Y150500D01*
X229500Y151000D01*
X87500Y178500D02*
X148500D01*
X229000Y138000D02*
X256500D01*
X267518D01*
X113000Y298968D02*
X123000D01*
Y266000D02*
X124500Y264500D01*
X166500Y196000D02*
Y205500D01*
X162000Y210000D02*
X166500Y205500D01*
X162000Y210000D02*
Y224000D01*
X105853Y199500D02*
X117500D01*
X105353Y200000D02*
X105853Y199500D01*
X117500D02*
X142500D01*
X94000Y265000D02*
X103559D01*
X76933Y261417D02*
X90417D01*
X94000Y265000D01*
X103740Y238634D02*
Y254500D01*
X193500Y196000D02*
X203000Y205500D01*
X177000Y196000D02*
X193500D01*
X139025Y221500D02*
X140500Y222975D01*
X132933Y221500D02*
X139025D01*
X127000Y227433D02*
X132933Y221500D01*
X127000Y227433D02*
Y244000D01*
X163000Y161524D02*
Y163000D01*
X163250Y148250D02*
Y155500D01*
X102500Y210500D02*
X135280D01*
X123000Y248000D02*
Y254000D01*
Y248000D02*
X127000Y244000D01*
X123000Y266000D02*
Y298968D01*
X182006Y264872D02*
X182878Y264000D01*
X181756Y265122D02*
X182006Y264872D01*
X167250D02*
X167500Y265122D01*
X151000Y178500D02*
X167000D01*
X148750D02*
X151000D01*
Y180750D02*
Y187557D01*
X167000Y178500D02*
X177000Y188500D01*
X152000Y163000D02*
X159500Y155500D01*
X163250D01*
X194000Y178102D02*
Y188000D01*
X179461Y163563D02*
X194000Y178102D01*
X179461Y152961D02*
Y163563D01*
X217957Y151043D02*
Y158299D01*
X218351Y158693D01*
Y162421D01*
X216000Y164771D02*
X218351Y162421D01*
X216000Y164771D02*
Y170925D01*
X217957Y151043D02*
X218500Y150500D01*
X176000Y149500D02*
X179461Y152961D01*
X146000Y203000D02*
Y208911D01*
X173000Y149500D02*
X176000D01*
X229500Y151000D02*
X247500D01*
X285982Y175557D02*
X286000Y175575D01*
X284925Y174500D02*
X285982Y175557D01*
X286000Y205500D02*
Y215500D01*
Y175575D02*
Y205500D01*
X218500Y136500D02*
Y150500D01*
X228230Y151270D02*
Y157043D01*
X221000Y164274D02*
X228230Y157043D01*
X221000Y164274D02*
Y170925D01*
X193500Y207000D02*
Y213900D01*
X193400Y214000D02*
X193500Y213900D01*
X192300Y214000D02*
X193400D01*
X174000Y207000D02*
Y213900D01*
X173500Y206500D02*
X174000Y207000D01*
X173900Y214000D02*
X174000Y213900D01*
X173700Y214000D02*
X173900D01*
X163000Y161524D02*
X163250Y161274D01*
Y155500D02*
Y161274D01*
X173700Y165800D02*
Y174618D01*
X177000Y188500D02*
Y196000D01*
X194122Y248878D02*
X207000Y236000D01*
Y225542D02*
Y236000D01*
X205458Y224000D02*
X207000Y225542D01*
X162000Y224000D02*
X173700D01*
X152067D02*
X162000D01*
X116933Y238567D02*
X117000Y238500D01*
X103807Y238567D02*
X116933D01*
X103740Y238634D02*
X103807Y238567D01*
X135280Y210500D02*
X136000Y209780D01*
X89000Y212000D02*
X90500D01*
X194122Y248878D02*
Y264000D01*
X192300Y224000D02*
X205458D01*
X203000Y205500D02*
Y215000D01*
X199100Y218900D02*
X203000Y215000D01*
X192400Y218900D02*
X199100D01*
X192300Y219000D02*
X192400Y218900D01*
X214567Y275500D02*
X235303D01*
X213500Y276567D02*
X214567Y275500D01*
X213500Y276567D02*
Y277068D01*
X197500Y276000D02*
X201933D01*
X203000Y277067D01*
Y277068D01*
X194122Y272622D02*
X197500Y276000D01*
X194122Y264000D02*
Y272622D01*
X151000Y222933D02*
X152067Y224000D01*
X151000Y221499D02*
Y222933D01*
X151000Y208911D02*
X151000Y208911D01*
Y221499D01*
X151000Y221499D01*
X140750Y209161D02*
X141000Y208911D01*
X140750Y209161D02*
Y221249D01*
X140500Y221499D02*
X140750Y221249D01*
X140500Y221499D02*
Y222975D01*
X142500Y199500D02*
X146000Y203000D01*
X90000Y223000D02*
Y235500D01*
X92500Y238000D01*
X96079D01*
X96260Y238181D01*
Y238634D01*
X100000Y230366D02*
Y231646D01*
X103559Y235205D01*
Y238453D02*
X103740Y238634D01*
X103559Y235205D02*
Y238453D01*
D62*
X110149Y228000D02*
X117000D01*
X105333Y223184D02*
X110149Y228000D01*
X105333Y221000D02*
Y223184D01*
X120767Y117000D02*
X169943D01*
X178723D01*
X200000Y138277D01*
X193086Y157928D02*
Y164056D01*
X154500Y266913D02*
X155500Y267913D01*
X35539Y70484D02*
Y74500D01*
X154500Y266913D02*
X156291Y265122D01*
X156500D01*
X167500D01*
X188500Y237000D02*
X190000Y238500D01*
X151500Y237000D02*
X188500D01*
X200000Y138277D02*
Y162647D01*
X130000Y151398D02*
Y160000D01*
X140500Y170500D01*
X151000Y178500D02*
Y180750D01*
X148500Y178500D02*
X148750D01*
X121250Y170250D02*
X121500Y170500D01*
X121250Y140750D02*
Y170250D01*
X156500Y98306D02*
X177609D01*
X211882Y132579D01*
Y161000D01*
X116944Y92409D02*
X180909D01*
X106500Y102853D02*
X116944Y92409D01*
X106500Y102853D02*
Y145800D01*
X208500Y179470D02*
Y194000D01*
X193086Y164056D02*
X208500Y179470D01*
X201000Y178320D02*
Y196000D01*
X185488Y162808D02*
X201000Y178320D01*
X185488Y142279D02*
Y162808D01*
X192658Y157500D02*
X193086Y157928D01*
X192658Y141158D02*
Y157500D01*
X178367Y85867D02*
X178500Y86000D01*
X155132Y85867D02*
X178367D01*
X155000Y85735D02*
X155132Y85867D01*
X180909Y92409D02*
X185500Y97000D01*
X231000Y193472D02*
Y203888D01*
Y192972D02*
Y193472D01*
X184482Y132982D02*
X192658Y141158D01*
X37843Y68181D02*
X42819D01*
X35539Y70484D02*
X37843Y68181D01*
X226000Y193472D02*
Y198500D01*
X209500Y214500D02*
X215000Y220000D01*
Y239000D01*
X121000Y99500D02*
X143500D01*
X113500Y107000D02*
X121000Y99500D01*
X110500Y153500D02*
X113500Y150500D01*
Y107000D02*
Y150500D01*
X98573Y153500D02*
X110500D01*
X95073Y150000D02*
X98573Y153500D01*
X94000Y150000D02*
X95073D01*
X121000Y140500D02*
X121250Y140750D01*
X138500Y132982D02*
X184482D01*
X214500Y200000D02*
X224500D01*
X208500Y194000D02*
X214500Y200000D01*
X227888Y207000D02*
X231000Y203888D01*
X212000Y207000D02*
X227888D01*
X201000Y196000D02*
X212000Y207000D01*
X224500Y200000D02*
X226000Y198500D01*
D63*
X75811Y176811D02*
Y238882D01*
X50750Y143250D02*
Y151750D01*
Y143250D02*
X76500Y117500D01*
X75811Y238882D02*
X75929Y239000D01*
X50750Y151750D02*
X75811Y176811D01*
D64*
X182878Y264000D02*
Y276000D01*
X156500Y246240D02*
Y253878D01*
X141000Y264872D02*
X167250D01*
X155500Y267913D02*
Y276000D01*
X140750Y246240D02*
X156500D01*
X140000Y266122D02*
X141000Y265122D01*
X140000Y266122D02*
Y275500D01*
X140750Y253628D02*
X141000Y253878D01*
X140750Y246240D02*
Y253628D01*
X167250Y264872D02*
X182006D01*
D65*
X55500Y305000D02*
D03*
X33500D02*
D03*
X279075D02*
D03*
X257075D02*
D03*
X48000Y9500D02*
D03*
X26000D02*
D03*
X273500D02*
D03*
X251500D02*
D03*
X50500Y212000D02*
D03*
X87500Y178500D02*
D03*
X256500Y138000D02*
D03*
X76500Y117500D02*
D03*
X274500Y50000D02*
D03*
X182878Y276000D02*
D03*
X76000Y224521D02*
D03*
X155500Y276000D02*
D03*
X156500Y246240D02*
D03*
X140000Y275500D02*
D03*
X140750Y246240D02*
D03*
X151500Y237000D02*
D03*
X130000Y151398D02*
D03*
X121500Y170500D02*
D03*
X105353Y200000D02*
D03*
X152000Y163000D02*
D03*
X75000Y61000D02*
D03*
X74500Y43500D02*
D03*
X105333Y221000D02*
D03*
X140500Y170500D02*
D03*
X106500Y145800D02*
D03*
X94000Y150000D02*
D03*
X121000Y140500D02*
D03*
X190000Y238500D02*
D03*
X247500Y151000D02*
D03*
X89000Y212000D02*
D03*
X12500Y246000D02*
D03*
X288000Y84500D02*
D03*
D66*
X8500Y89172D02*
D03*
X18500D02*
D03*
X28500D02*
D03*
X38500D02*
D03*
X19000Y286000D02*
D03*
X29000D02*
D03*
X39000D02*
D03*
X49000D02*
D03*
D67*
X48500Y89172D02*
D03*
X9000Y286000D02*
D03*
D68*
X95000Y41500D02*
D03*
D69*
Y61500D02*
D03*
Y101500D02*
D03*
X275000Y31500D02*
D03*
Y111500D02*
D03*
Y71500D02*
D03*
D70*
X286000Y205500D02*
D03*
X253500Y199500D02*
D03*
D71*
X286000Y215500D02*
D03*
X253500Y189500D02*
D03*
X228000Y221500D02*
D03*
X113000Y298968D02*
D03*
X194000Y300000D02*
D03*
X153000Y299000D02*
D03*
X62000Y286000D02*
D03*
X185500Y97000D02*
D03*
D72*
X238000Y221500D02*
D03*
X123000Y298968D02*
D03*
X204000Y300000D02*
D03*
X163000Y299000D02*
D03*
X72000Y286000D02*
D03*
D73*
X50500Y152000D02*
D03*
X40500D02*
D03*
D74*
X30500D02*
D03*
D75*
X169943Y117000D02*
D03*
X120767D02*
D03*
X156500Y98306D02*
D03*
X211882Y161000D02*
D03*
X192658Y158853D02*
D03*
X185488Y142279D02*
D03*
X200000Y162647D02*
D03*
X178500Y86000D02*
D03*
X155000Y85735D02*
D03*
X215000Y239000D02*
D03*
X209500Y214500D02*
D03*
X143500Y99500D02*
D03*
X138500Y132982D02*
D03*
X173500Y206500D02*
D03*
X173700Y174618D02*
D03*
X193500Y207000D02*
D03*
X194000Y188000D02*
D03*
M02*
