M48
;Layer_Color=9474304
;FILE_FORMAT=2:5
INCH,LZ
;TYPE=PLATED
T1F00S00C0.02800
T2F00S00C0.02913
T3F00S00C0.03543
T4F00S00C0.03937
T5F00S00C0.04528
T6F00S00C0.04937
T7F00S00C0.05906
%
T01
X0120767Y0117
X01385Y0132982
X01435Y00995
X0155Y0085735
X01565Y0098306
X0169943Y0117
X01785Y0086
X0185488Y0142279
X0192658Y0158853
X02Y0162647
X0211882Y0161
X0194Y0188
X01935Y0207
X01735Y02065
X01737Y0174618
X02095Y02145
X0215Y0239
T02
X00305Y0152
X00405
X00505
T03
X02535Y01895
Y01995
X0238Y02215
X0228
X0286Y02155
Y02055
X0204Y03
X0194
X0163Y0299
X0153
X0123Y0298968
X0113
X0072Y0286
X0062
T04
X00745Y00435
X0075Y0061
X00765Y01175
X0094Y015
X01065Y01458
X0121Y01405
X013Y0151398
X01855Y0097
X02565Y0138
X02475Y0151
X0288Y00845
X02745Y005
X019Y02385
X01565Y024624
X0182878Y0276
X01555
X014Y02755
X014075Y024624
X01515Y0237
X0105333Y0221
X0105353Y02
X0089Y0212
X0076Y0224521
X00505Y0212
X00875Y01785
X01215Y01705
X01405
X0152Y0163
X00125Y0246
T05
X00085Y0089172
X00185
X00285
X00385
X00485
X0049Y0286
X0039
X0029
X0019
X0009
T06
X0095Y00415
Y00615
Y01015
X0275Y01115
Y00715
Y00315
T07
X0026Y00095
X0048
X02515
X02735
X0279075Y0305
X0257075
X00555
X00335
M30
