M48
;Layer_Color=9474304
;FILE_FORMAT=2:5
INCH,LZ
;TYPE=PLATED
T1F00S00C0.02913
T2F00S00C0.03150
T3F00S00C0.03543
T4F00S00C0.03937
T5F00S00C0.04000
T6F00S00C0.04331
T7F00S00C0.04400
T8F00S00C0.07874
T9F00S00C0.10512
T10F00S00C0.19685
%
T01
X0092Y01925
Y02025
Y02125
T02
X00405Y02845
X00605
T03
X0287Y00205
Y00305
Y00405
Y00505
Y00605
X00145Y0173
Y0183
Y0193
Y0203
Y0213
X0009Y0265
Y0275
Y0285
Y0295
Y0305
T04
X00525Y00235
X0117Y00265
X01175Y0052
X00845Y00775
X0036Y00845
X00163Y00865
X00468Y01111
X0196Y01465
X02355Y01535
X01835Y02825
X00765Y03035
X00265
X0092Y0228
X00453Y01685
T05
X0109Y0089781
Y0129781
X0282Y0131
Y0091
Y0265
Y0305
X01095Y0294
Y0254
X0114724Y02215
X0114724Y0182295
X0069776Y01925
X0069776Y0231705
T06
X0035Y0261
X00745
X0091Y0264
Y03035
T07
X0026Y0023
X0036
Y0063
X0026
X0096
Y0023
T08
X01795Y00775
T09
X0156Y00995
X0196
X0236
Y02995
X02085
X01835
X0156
T10
X0283Y02
M30
