G04*
G04 #@! TF.GenerationSoftware,Altium Limited,Altium Designer,19.0.10 (269)*
G04*
G04 Layer_Physical_Order=2*
G04 Layer_Color=16711680*
%FSLAX25Y25*%
%MOIN*%
G70*
G01*
G75*
%ADD10C,0.03937*%
%ADD11C,0.07874*%
%ADD13C,0.05906*%
%ADD14R,0.05906X0.05906*%
%ADD15C,0.15827*%
%ADD16C,0.06600*%
%ADD17R,0.06600X0.06600*%
%ADD18R,0.04913X0.04913*%
%ADD19C,0.04913*%
%ADD20C,0.08000*%
%ADD21R,0.06496X0.06496*%
%ADD22C,0.06496*%
%ADD23R,0.06496X0.06496*%
%ADD24C,0.07874*%
%ADD25C,0.19685*%
%ADD26C,0.11811*%
%ADD27R,0.10630X0.10630*%
%ADD28R,0.06400X0.09000*%
%ADD29R,0.11811X0.07087*%
%ADD30R,0.09173X0.06142*%
%ADD31R,0.02126X0.02362*%
%ADD32R,0.08268X0.16929*%
%ADD33C,0.02000*%
G36*
X297000Y313500D02*
Y313500D01*
X297354Y313646D01*
X298000Y313000D01*
Y0D01*
X0D01*
Y314000D01*
X296500D01*
X297000Y313500D01*
D02*
G37*
%LPC*%
G36*
X9000Y308987D02*
X7968Y308851D01*
X7007Y308453D01*
X6181Y307819D01*
X5547Y306993D01*
X5149Y306032D01*
X5013Y305000D01*
X5149Y303968D01*
X5547Y303007D01*
X6181Y302181D01*
X7007Y301547D01*
X7968Y301149D01*
X9000Y301013D01*
X10032Y301149D01*
X10993Y301547D01*
X11819Y302181D01*
X12453Y303007D01*
X12851Y303968D01*
X12987Y305000D01*
X12851Y306032D01*
X12453Y306993D01*
X11819Y307819D01*
X10993Y308453D01*
X10032Y308851D01*
X9000Y308987D01*
D02*
G37*
G36*
X282000Y310043D02*
X280695Y309871D01*
X279478Y309367D01*
X278434Y308566D01*
X277632Y307522D01*
X277129Y306305D01*
X276957Y305000D01*
X277129Y303695D01*
X277632Y302478D01*
X278434Y301434D01*
X279478Y300633D01*
X280695Y300129D01*
X282000Y299957D01*
X283305Y300129D01*
X284522Y300633D01*
X285566Y301434D01*
X286368Y302478D01*
X286871Y303695D01*
X287043Y305000D01*
X286871Y306305D01*
X286368Y307522D01*
X285566Y308566D01*
X284522Y309367D01*
X283305Y309871D01*
X282000Y310043D01*
D02*
G37*
G36*
X95248Y307748D02*
X86752D01*
Y299252D01*
X95248D01*
Y307748D01*
D02*
G37*
G36*
X30748D02*
X22252D01*
Y299252D01*
X30748D01*
Y307748D01*
D02*
G37*
G36*
X76500Y307785D02*
X75391Y307639D01*
X74358Y307211D01*
X73470Y306530D01*
X72789Y305642D01*
X72361Y304609D01*
X72215Y303500D01*
X72361Y302391D01*
X72789Y301358D01*
X73470Y300470D01*
X74358Y299789D01*
X75391Y299361D01*
X76500Y299215D01*
X77609Y299361D01*
X78642Y299789D01*
X79530Y300470D01*
X80211Y301358D01*
X80639Y302391D01*
X80785Y303500D01*
X80639Y304609D01*
X80211Y305642D01*
X79530Y306530D01*
X78642Y307211D01*
X77609Y307639D01*
X76500Y307785D01*
D02*
G37*
G36*
X9000Y298987D02*
X7968Y298851D01*
X7007Y298453D01*
X6181Y297819D01*
X5547Y296993D01*
X5149Y296032D01*
X5013Y295000D01*
X5149Y293968D01*
X5547Y293007D01*
X6181Y292181D01*
X7007Y291547D01*
X7968Y291149D01*
X9000Y291013D01*
X10032Y291149D01*
X10993Y291547D01*
X11819Y292181D01*
X12453Y293007D01*
X12851Y293968D01*
X12987Y295000D01*
X12851Y296032D01*
X12453Y296993D01*
X11819Y297819D01*
X10993Y298453D01*
X10032Y298851D01*
X9000Y298987D01*
D02*
G37*
G36*
X236000Y308456D02*
X234253Y308284D01*
X232573Y307775D01*
X231024Y306947D01*
X229667Y305833D01*
X228553Y304476D01*
X227725Y302927D01*
X227216Y301247D01*
X227044Y299500D01*
X227216Y297753D01*
X227725Y296073D01*
X228553Y294524D01*
X229667Y293167D01*
X231024Y292053D01*
X232573Y291225D01*
X234253Y290716D01*
X236000Y290544D01*
X237747Y290716D01*
X239427Y291225D01*
X240976Y292053D01*
X242333Y293167D01*
X243447Y294524D01*
X244275Y296073D01*
X244784Y297753D01*
X244956Y299500D01*
X244784Y301247D01*
X244275Y302927D01*
X243447Y304476D01*
X242333Y305833D01*
X240976Y306947D01*
X239427Y307775D01*
X237747Y308284D01*
X236000Y308456D01*
D02*
G37*
G36*
X208500D02*
X206753Y308284D01*
X205072Y307775D01*
X203524Y306947D01*
X202167Y305833D01*
X201053Y304476D01*
X200225Y302927D01*
X199716Y301247D01*
X199543Y299500D01*
X199716Y297753D01*
X200225Y296073D01*
X201053Y294524D01*
X202167Y293167D01*
X203524Y292053D01*
X205072Y291225D01*
X206753Y290716D01*
X208500Y290544D01*
X210247Y290716D01*
X211928Y291225D01*
X213476Y292053D01*
X214833Y293167D01*
X215947Y294524D01*
X216775Y296073D01*
X217284Y297753D01*
X217457Y299500D01*
X217284Y301247D01*
X216775Y302927D01*
X215947Y304476D01*
X214833Y305833D01*
X213476Y306947D01*
X211928Y307775D01*
X210247Y308284D01*
X208500Y308456D01*
D02*
G37*
G36*
X183500D02*
X181753Y308284D01*
X180072Y307775D01*
X178524Y306947D01*
X177167Y305833D01*
X176053Y304476D01*
X175225Y302927D01*
X174716Y301247D01*
X174543Y299500D01*
X174716Y297753D01*
X175225Y296073D01*
X176053Y294524D01*
X177167Y293167D01*
X178524Y292053D01*
X180072Y291225D01*
X181753Y290716D01*
X183500Y290544D01*
X185247Y290716D01*
X186927Y291225D01*
X188476Y292053D01*
X189833Y293167D01*
X190947Y294524D01*
X191775Y296073D01*
X192284Y297753D01*
X192456Y299500D01*
X192284Y301247D01*
X191775Y302927D01*
X190947Y304476D01*
X189833Y305833D01*
X188476Y306947D01*
X186927Y307775D01*
X185247Y308284D01*
X183500Y308456D01*
D02*
G37*
G36*
X156000D02*
X154253Y308284D01*
X152573Y307775D01*
X151024Y306947D01*
X149667Y305833D01*
X148553Y304476D01*
X147725Y302927D01*
X147216Y301247D01*
X147044Y299500D01*
X147216Y297753D01*
X147725Y296073D01*
X148553Y294524D01*
X149667Y293167D01*
X151024Y292053D01*
X152573Y291225D01*
X154253Y290716D01*
X156000Y290544D01*
X157747Y290716D01*
X159427Y291225D01*
X160976Y292053D01*
X162333Y293167D01*
X163447Y294524D01*
X164275Y296073D01*
X164784Y297753D01*
X164956Y299500D01*
X164784Y301247D01*
X164275Y302927D01*
X163447Y304476D01*
X162333Y305833D01*
X160976Y306947D01*
X159427Y307775D01*
X157747Y308284D01*
X156000Y308456D01*
D02*
G37*
G36*
X109500Y299043D02*
X108195Y298871D01*
X106978Y298368D01*
X105934Y297566D01*
X105132Y296522D01*
X104629Y295305D01*
X104457Y294000D01*
X104629Y292695D01*
X105132Y291478D01*
X105934Y290434D01*
X106978Y289633D01*
X108195Y289129D01*
X109500Y288957D01*
X110805Y289129D01*
X112022Y289633D01*
X113066Y290434D01*
X113867Y291478D01*
X114371Y292695D01*
X114543Y294000D01*
X114371Y295305D01*
X113867Y296522D01*
X113066Y297566D01*
X112022Y298368D01*
X110805Y298871D01*
X109500Y299043D01*
D02*
G37*
G36*
X9000Y288987D02*
X7968Y288851D01*
X7007Y288453D01*
X6181Y287819D01*
X5547Y286993D01*
X5149Y286032D01*
X5013Y285000D01*
X5149Y283968D01*
X5547Y283007D01*
X6181Y282181D01*
X7007Y281547D01*
X7968Y281149D01*
X9000Y281013D01*
X10032Y281149D01*
X10993Y281547D01*
X11819Y282181D01*
X12453Y283007D01*
X12851Y283968D01*
X12987Y285000D01*
X12851Y286032D01*
X12453Y286993D01*
X11819Y287819D01*
X10993Y288453D01*
X10032Y288851D01*
X9000Y288987D01*
D02*
G37*
G36*
X60500Y288487D02*
X59468Y288351D01*
X58507Y287953D01*
X57681Y287319D01*
X57047Y286493D01*
X56649Y285532D01*
X56513Y284500D01*
X56649Y283468D01*
X57047Y282507D01*
X57681Y281681D01*
X58507Y281047D01*
X59468Y280649D01*
X60500Y280513D01*
X61532Y280649D01*
X62493Y281047D01*
X63319Y281681D01*
X63953Y282507D01*
X64351Y283468D01*
X64487Y284500D01*
X64351Y285532D01*
X63953Y286493D01*
X63319Y287319D01*
X62493Y287953D01*
X61532Y288351D01*
X60500Y288487D01*
D02*
G37*
G36*
X40500D02*
X39468Y288351D01*
X38507Y287953D01*
X37681Y287319D01*
X37047Y286493D01*
X36649Y285532D01*
X36513Y284500D01*
X36649Y283468D01*
X37047Y282507D01*
X37681Y281681D01*
X38507Y281047D01*
X39468Y280649D01*
X40500Y280513D01*
X41532Y280649D01*
X42493Y281047D01*
X43319Y281681D01*
X43953Y282507D01*
X44351Y283468D01*
X44487Y284500D01*
X44351Y285532D01*
X43953Y286493D01*
X43319Y287319D01*
X42493Y287953D01*
X41532Y288351D01*
X40500Y288487D01*
D02*
G37*
G36*
X9000Y278987D02*
X7968Y278851D01*
X7007Y278453D01*
X6181Y277819D01*
X5547Y276993D01*
X5149Y276032D01*
X5013Y275000D01*
X5149Y273968D01*
X5547Y273007D01*
X6181Y272181D01*
X7007Y271547D01*
X7968Y271149D01*
X9000Y271013D01*
X10032Y271149D01*
X10993Y271547D01*
X11819Y272181D01*
X12453Y273007D01*
X12851Y273968D01*
X12987Y275000D01*
X12851Y276032D01*
X12453Y276993D01*
X11819Y277819D01*
X10993Y278453D01*
X10032Y278851D01*
X9000Y278987D01*
D02*
G37*
G36*
X183500Y287480D02*
X182211Y287310D01*
X181010Y286812D01*
X179979Y286021D01*
X179188Y284990D01*
X178690Y283789D01*
X178520Y282500D01*
X178690Y281211D01*
X179188Y280010D01*
X179753Y279274D01*
Y277487D01*
X172260Y269994D01*
X94000D01*
X93225Y269892D01*
X92802Y269717D01*
X92503Y269593D01*
X91883Y269117D01*
X91044Y268279D01*
X91000Y268285D01*
X89891Y268139D01*
X88858Y267711D01*
X87970Y267030D01*
X87567Y266505D01*
X85510D01*
X84735Y266402D01*
X84013Y266103D01*
X83393Y265628D01*
X81260Y263494D01*
X78748D01*
Y265248D01*
X70252D01*
Y263039D01*
X68000D01*
X67220Y262884D01*
X66558Y262442D01*
X53155Y249039D01*
X52256D01*
Y249181D01*
X44744D01*
Y249039D01*
X40845D01*
X37039Y252845D01*
Y257247D01*
X37142Y257289D01*
X38030Y257970D01*
X38711Y258858D01*
X39139Y259891D01*
X39285Y261000D01*
X39139Y262109D01*
X38711Y263142D01*
X38030Y264030D01*
X37142Y264711D01*
X36109Y265139D01*
X35000Y265285D01*
X33891Y265139D01*
X32858Y264711D01*
X31970Y264030D01*
X31289Y263142D01*
X30861Y262109D01*
X30715Y261000D01*
X30861Y259891D01*
X31289Y258858D01*
X31970Y257970D01*
X32858Y257289D01*
X32961Y257247D01*
Y252000D01*
X33116Y251220D01*
X33558Y250558D01*
X38558Y245558D01*
X39220Y245116D01*
X40000Y244961D01*
X44744D01*
Y244819D01*
X52256D01*
Y244961D01*
X54000D01*
X54780Y245116D01*
X55442Y245558D01*
X68845Y258961D01*
X70252D01*
Y256752D01*
X78748D01*
Y257506D01*
X82500D01*
X83275Y257608D01*
X83997Y257907D01*
X84617Y258383D01*
X86751Y260516D01*
X88562D01*
X88858Y260289D01*
X89891Y259861D01*
X91000Y259715D01*
X92109Y259861D01*
X93142Y260289D01*
X94030Y260970D01*
X94711Y261858D01*
X95139Y262891D01*
X95285Y264000D01*
X95290Y264006D01*
X173500D01*
X174275Y264108D01*
X174997Y264407D01*
X175617Y264883D01*
X184864Y274130D01*
X185340Y274750D01*
X185639Y275472D01*
X185741Y276247D01*
Y278084D01*
X185990Y278187D01*
X187021Y278979D01*
X187812Y280010D01*
X188310Y281211D01*
X188480Y282500D01*
X188310Y283789D01*
X187812Y284990D01*
X187021Y286021D01*
X185990Y286812D01*
X184789Y287310D01*
X183500Y287480D01*
D02*
G37*
G36*
X12953Y268953D02*
X5047D01*
Y261047D01*
X12953D01*
Y268953D01*
D02*
G37*
G36*
X284202Y260500D02*
X282500D01*
Y260023D01*
X283305Y260129D01*
X284202Y260500D01*
D02*
G37*
G36*
X281500D02*
X279798D01*
X280695Y260129D01*
X281500Y260023D01*
Y260500D01*
D02*
G37*
G36*
X79161Y249071D02*
X67988D01*
Y240929D01*
X70506D01*
Y237031D01*
X70130Y236702D01*
X69776Y236748D01*
X68471Y236577D01*
X67255Y236073D01*
X66210Y235271D01*
X65409Y234227D01*
X64905Y233011D01*
X64733Y231705D01*
X64905Y230400D01*
X65409Y229184D01*
X66210Y228139D01*
X67255Y227338D01*
X68471Y226834D01*
X69776Y226662D01*
X71082Y226834D01*
X72298Y227338D01*
X73342Y228139D01*
X74144Y229184D01*
X74647Y230400D01*
X74819Y231705D01*
X74775Y232041D01*
X75617Y232883D01*
X76093Y233503D01*
X76217Y233802D01*
X76392Y234225D01*
X76494Y235000D01*
Y240929D01*
X79161D01*
Y249071D01*
D02*
G37*
G36*
X18453Y216953D02*
X10547D01*
Y209047D01*
X18453D01*
Y216953D01*
D02*
G37*
G36*
X92000Y215986D02*
X91098Y215868D01*
X90257Y215519D01*
X89535Y214965D01*
X88981Y214243D01*
X88632Y213402D01*
X88513Y212500D01*
X88632Y211598D01*
X88981Y210757D01*
X89535Y210035D01*
X90257Y209481D01*
X91098Y209132D01*
X92000Y209014D01*
X92902Y209132D01*
X93743Y209481D01*
X94465Y210035D01*
X95019Y210757D01*
X95368Y211598D01*
X95486Y212500D01*
X95368Y213402D01*
X95019Y214243D01*
X94465Y214965D01*
X93743Y215519D01*
X92902Y215868D01*
X92000Y215986D01*
D02*
G37*
G36*
Y205986D02*
X91098Y205868D01*
X90257Y205519D01*
X89535Y204965D01*
X88981Y204243D01*
X88632Y203402D01*
X88513Y202500D01*
X88632Y201598D01*
X88981Y200757D01*
X89535Y200035D01*
X90257Y199481D01*
X91098Y199132D01*
X92000Y199013D01*
X92902Y199132D01*
X93743Y199481D01*
X94465Y200035D01*
X95019Y200757D01*
X95368Y201598D01*
X95486Y202500D01*
X95368Y203402D01*
X95019Y204243D01*
X94465Y204965D01*
X93743Y205519D01*
X92902Y205868D01*
X92000Y205986D01*
D02*
G37*
G36*
X14500Y206987D02*
X13468Y206851D01*
X12507Y206453D01*
X11681Y205819D01*
X11047Y204993D01*
X10649Y204032D01*
X10513Y203000D01*
X10649Y201968D01*
X11047Y201007D01*
X11681Y200181D01*
X12507Y199547D01*
X13468Y199149D01*
X14500Y199013D01*
X15532Y199149D01*
X16493Y199547D01*
X17319Y200181D01*
X17953Y201007D01*
X18351Y201968D01*
X18487Y203000D01*
X18351Y204032D01*
X17953Y204993D01*
X17319Y205819D01*
X16493Y206453D01*
X15532Y206851D01*
X14500Y206987D01*
D02*
G37*
G36*
X95457Y195957D02*
X88543D01*
Y189043D01*
X95457D01*
Y195957D01*
D02*
G37*
G36*
X69776Y197543D02*
X68470Y197371D01*
X67254Y196868D01*
X66210Y196066D01*
X65408Y195022D01*
X64904Y193805D01*
X64732Y192500D01*
X64904Y191195D01*
X65408Y189978D01*
X66210Y188934D01*
X67254Y188133D01*
X68470Y187629D01*
X69776Y187457D01*
X71081Y187629D01*
X72297Y188133D01*
X73342Y188934D01*
X74143Y189978D01*
X74647Y191195D01*
X74819Y192500D01*
X74647Y193805D01*
X74143Y195022D01*
X73342Y196066D01*
X72297Y196868D01*
X71081Y197371D01*
X69776Y197543D01*
D02*
G37*
G36*
X14500Y186987D02*
X13468Y186851D01*
X12507Y186453D01*
X11681Y185819D01*
X11047Y184993D01*
X10649Y184032D01*
X10513Y183000D01*
X10649Y181968D01*
X11047Y181007D01*
X11681Y180181D01*
X12507Y179547D01*
X13468Y179149D01*
X14500Y179013D01*
X15532Y179149D01*
X16493Y179547D01*
X17319Y180181D01*
X17953Y181007D01*
X18351Y181968D01*
X18487Y183000D01*
X18351Y184032D01*
X17953Y184993D01*
X17319Y185819D01*
X16493Y186453D01*
X15532Y186851D01*
X14500Y186987D01*
D02*
G37*
G36*
X96012Y249071D02*
X84839D01*
Y240929D01*
X88006D01*
Y230905D01*
X87687Y230490D01*
X87190Y229289D01*
X87020Y228000D01*
X87190Y226711D01*
X87687Y225510D01*
X88479Y224479D01*
X89510Y223688D01*
X90711Y223190D01*
X92000Y223020D01*
X93289Y223190D01*
X94490Y223688D01*
X95521Y224479D01*
X96285Y225474D01*
X110942D01*
X111088Y224974D01*
X110357Y224022D01*
X109853Y222805D01*
X109681Y221500D01*
X109853Y220195D01*
X110357Y218978D01*
X111158Y217934D01*
X112203Y217132D01*
X113419Y216629D01*
X114724Y216457D01*
X116030Y216629D01*
X117246Y217132D01*
X118290Y217934D01*
X119092Y218978D01*
X119596Y220195D01*
X119767Y221500D01*
X119596Y222805D01*
X119092Y224022D01*
X118361Y224974D01*
X118507Y225474D01*
X177791D01*
X232506Y170760D01*
Y157425D01*
X231979Y157021D01*
X231188Y155990D01*
X230690Y154789D01*
X230520Y153500D01*
X230690Y152211D01*
X231188Y151010D01*
X231979Y149979D01*
X233010Y149188D01*
X234211Y148690D01*
X235500Y148520D01*
X236789Y148690D01*
X237990Y149188D01*
X239021Y149979D01*
X239812Y151010D01*
X240310Y152211D01*
X240480Y153500D01*
X240310Y154789D01*
X239812Y155990D01*
X239021Y157021D01*
X238494Y157425D01*
Y172000D01*
X238392Y172775D01*
X238217Y173198D01*
X238093Y173497D01*
X237617Y174117D01*
X181149Y230586D01*
X180528Y231062D01*
X179806Y231361D01*
X179032Y231463D01*
X101479D01*
X93994Y238948D01*
Y240929D01*
X96012D01*
Y249071D01*
D02*
G37*
G36*
X114724Y187338D02*
X113418Y187166D01*
X112202Y186662D01*
X111158Y185861D01*
X110356Y184816D01*
X109853Y183600D01*
X109681Y182295D01*
X109853Y180990D01*
X110356Y179773D01*
X111158Y178729D01*
X112202Y177927D01*
X113418Y177424D01*
X114724Y177252D01*
X115422Y177344D01*
X131883Y160883D01*
X132503Y160407D01*
X133225Y160108D01*
X134000Y160006D01*
X185760D01*
X193006Y152760D01*
Y150426D01*
X192479Y150021D01*
X191688Y148990D01*
X191190Y147789D01*
X191020Y146500D01*
X191190Y145211D01*
X191688Y144010D01*
X192479Y142979D01*
X193510Y142188D01*
X194711Y141690D01*
X196000Y141520D01*
X197289Y141690D01*
X198490Y142188D01*
X199521Y142979D01*
X200312Y144010D01*
X200810Y145211D01*
X200980Y146500D01*
X200810Y147789D01*
X200312Y148990D01*
X199521Y150021D01*
X198994Y150426D01*
Y154000D01*
X198892Y154775D01*
X198717Y155198D01*
X198593Y155497D01*
X198117Y156117D01*
X189117Y165117D01*
X188497Y165593D01*
X187775Y165892D01*
X187000Y165994D01*
X135240D01*
X119671Y181564D01*
X119767Y182295D01*
X119595Y183600D01*
X119091Y184816D01*
X118290Y185861D01*
X117245Y186662D01*
X116029Y187166D01*
X114724Y187338D01*
D02*
G37*
G36*
X14500Y196987D02*
X13468Y196851D01*
X12507Y196453D01*
X11909Y195994D01*
X7306D01*
X6531Y195892D01*
X6108Y195717D01*
X5809Y195593D01*
X5189Y195117D01*
X2883Y192811D01*
X2407Y192191D01*
X2108Y191469D01*
X2006Y190694D01*
Y158500D01*
X2108Y157725D01*
X2407Y157003D01*
X2883Y156383D01*
X13466Y145799D01*
Y136043D01*
X9555D01*
Y126957D01*
X13466D01*
Y106071D01*
X12988D01*
Y97929D01*
X13035D01*
X13334Y97659D01*
X13462Y97429D01*
X13362Y90469D01*
X12779Y90021D01*
X11987Y88990D01*
X11490Y87789D01*
X11320Y86500D01*
X11490Y85211D01*
X11987Y84010D01*
X12779Y82979D01*
X13810Y82187D01*
X15011Y81690D01*
X16300Y81520D01*
X17589Y81690D01*
X18790Y82187D01*
X19821Y82979D01*
X20613Y84010D01*
X21110Y85211D01*
X21280Y86500D01*
X21110Y87789D01*
X20613Y88990D01*
X19821Y90021D01*
X19350Y90383D01*
X19451Y97473D01*
X19455Y97500D01*
Y97721D01*
X19458Y97929D01*
X24161D01*
Y106071D01*
X19455D01*
Y126957D01*
X23366D01*
Y136043D01*
X19455D01*
Y147039D01*
X19353Y147814D01*
X19054Y148537D01*
X18578Y149157D01*
X7994Y159740D01*
Y189453D01*
X8546Y190006D01*
X11909D01*
X12507Y189547D01*
X13468Y189149D01*
X14500Y189013D01*
X15532Y189149D01*
X16493Y189547D01*
X17091Y190006D01*
X32476D01*
X74606Y147876D01*
Y135043D01*
X70634D01*
Y125957D01*
X74545D01*
Y105571D01*
X70839D01*
Y97429D01*
X82012D01*
Y105571D01*
X80533D01*
Y125957D01*
X84445D01*
Y135043D01*
X80594D01*
Y149116D01*
X80492Y149891D01*
X80193Y150613D01*
X79717Y151233D01*
X35833Y195117D01*
X35213Y195593D01*
X34491Y195892D01*
X33716Y195994D01*
X17091D01*
X16493Y196453D01*
X15532Y196851D01*
X14500Y196987D01*
D02*
G37*
G36*
X45300Y173480D02*
X44011Y173310D01*
X42810Y172812D01*
X41779Y172021D01*
X40988Y170990D01*
X40490Y169789D01*
X40320Y168500D01*
X40490Y167211D01*
X40988Y166010D01*
X41779Y164979D01*
X42810Y164188D01*
X44011Y163690D01*
X45300Y163520D01*
X45959Y163607D01*
X55006Y154560D01*
Y135043D01*
X50555D01*
Y125957D01*
X54861D01*
X55053Y125495D01*
X45437Y115879D01*
X44310Y115412D01*
X43279Y114621D01*
X42487Y113590D01*
X41990Y112389D01*
X41820Y111100D01*
X41990Y109811D01*
X42487Y108610D01*
X43279Y107579D01*
X44310Y106788D01*
X45511Y106290D01*
X46800Y106120D01*
X48089Y106290D01*
X49290Y106788D01*
X49505Y106953D01*
X53988Y102470D01*
Y97429D01*
X65161D01*
Y105571D01*
X61512D01*
Y125957D01*
X64366D01*
Y135043D01*
X60994D01*
Y155800D01*
X60892Y156575D01*
X60717Y156998D01*
X60593Y157297D01*
X60117Y157917D01*
X50193Y167841D01*
X50280Y168500D01*
X50110Y169789D01*
X49613Y170990D01*
X48821Y172021D01*
X47790Y172812D01*
X46589Y173310D01*
X45300Y173480D01*
D02*
G37*
G36*
X236000Y108457D02*
X234253Y108284D01*
X232573Y107775D01*
X231024Y106947D01*
X229667Y105833D01*
X228553Y104476D01*
X227725Y102927D01*
X227216Y101247D01*
X227044Y99500D01*
X227216Y97753D01*
X227725Y96073D01*
X228553Y94524D01*
X229667Y93167D01*
X231024Y92053D01*
X232573Y91225D01*
X234253Y90716D01*
X236000Y90544D01*
X237747Y90716D01*
X239427Y91225D01*
X240976Y92053D01*
X242333Y93167D01*
X243447Y94524D01*
X244275Y96073D01*
X244784Y97753D01*
X244956Y99500D01*
X244784Y101247D01*
X244275Y102927D01*
X243447Y104476D01*
X242333Y105833D01*
X240976Y106947D01*
X239427Y107775D01*
X237747Y108284D01*
X236000Y108457D01*
D02*
G37*
G36*
X196000D02*
X194253Y108284D01*
X192572Y107775D01*
X191024Y106947D01*
X189667Y105833D01*
X188553Y104476D01*
X187725Y102927D01*
X187216Y101247D01*
X187043Y99500D01*
X187216Y97753D01*
X187725Y96073D01*
X188553Y94524D01*
X189667Y93167D01*
X191024Y92053D01*
X192572Y91225D01*
X194253Y90716D01*
X196000Y90544D01*
X197747Y90716D01*
X199427Y91225D01*
X200976Y92053D01*
X202333Y93167D01*
X203447Y94524D01*
X204275Y96073D01*
X204784Y97753D01*
X204957Y99500D01*
X204784Y101247D01*
X204275Y102927D01*
X203447Y104476D01*
X202333Y105833D01*
X200976Y106947D01*
X199427Y107775D01*
X197747Y108284D01*
X196000Y108457D01*
D02*
G37*
G36*
X156000D02*
X154253Y108284D01*
X152573Y107775D01*
X151024Y106947D01*
X149667Y105833D01*
X148553Y104476D01*
X147725Y102927D01*
X147216Y101247D01*
X147044Y99500D01*
X147216Y97753D01*
X147725Y96073D01*
X148553Y94524D01*
X149667Y93167D01*
X151024Y92053D01*
X152573Y91225D01*
X154253Y90716D01*
X156000Y90544D01*
X157747Y90716D01*
X159427Y91225D01*
X160976Y92053D01*
X162333Y93167D01*
X163447Y94524D01*
X164275Y96073D01*
X164784Y97753D01*
X164956Y99500D01*
X164784Y101247D01*
X164275Y102927D01*
X163447Y104476D01*
X162333Y105833D01*
X160976Y106947D01*
X159427Y107775D01*
X157747Y108284D01*
X156000Y108457D01*
D02*
G37*
G36*
X282000Y96043D02*
X280695Y95871D01*
X279478Y95367D01*
X278434Y94566D01*
X277632Y93522D01*
X277129Y92305D01*
X276957Y91000D01*
X277129Y89695D01*
X277632Y88478D01*
X278434Y87434D01*
X279478Y86633D01*
X280695Y86129D01*
X282000Y85957D01*
X283305Y86129D01*
X284522Y86633D01*
X285566Y87434D01*
X286368Y88478D01*
X286871Y89695D01*
X287043Y91000D01*
X286871Y92305D01*
X286368Y93522D01*
X285566Y94566D01*
X284522Y95367D01*
X283305Y95871D01*
X282000Y96043D01*
D02*
G37*
G36*
X109000Y94824D02*
X107695Y94652D01*
X106478Y94148D01*
X105434Y93347D01*
X104632Y92302D01*
X104129Y91086D01*
X103957Y89781D01*
X104129Y88475D01*
X104632Y87259D01*
X105434Y86215D01*
X106478Y85413D01*
X107695Y84909D01*
X109000Y84737D01*
X110305Y84909D01*
X111522Y85413D01*
X112566Y86215D01*
X113367Y87259D01*
X113871Y88475D01*
X114043Y89781D01*
X113871Y91086D01*
X113367Y92302D01*
X112566Y93347D01*
X111522Y94148D01*
X110305Y94652D01*
X109000Y94824D01*
D02*
G37*
G36*
X14500Y176987D02*
X13468Y176851D01*
X12507Y176453D01*
X11681Y175819D01*
X11047Y174993D01*
X10649Y174032D01*
X10513Y173000D01*
X10649Y171968D01*
X11047Y171007D01*
X11681Y170181D01*
X12507Y169547D01*
X13468Y169149D01*
X14500Y169013D01*
X15532Y169149D01*
X16493Y169547D01*
X17091Y170006D01*
X19960D01*
X33545Y156420D01*
Y136043D01*
X29634D01*
Y126957D01*
X33545D01*
Y106071D01*
X29839D01*
Y97929D01*
X33006D01*
Y88425D01*
X32479Y88021D01*
X31688Y86990D01*
X31190Y85789D01*
X31020Y84500D01*
X31190Y83211D01*
X31688Y82010D01*
X32479Y80979D01*
X33510Y80187D01*
X34711Y79690D01*
X36000Y79520D01*
X37289Y79690D01*
X38490Y80187D01*
X39521Y80979D01*
X39926Y81506D01*
X41760D01*
X45883Y77383D01*
X46503Y76907D01*
X47225Y76608D01*
X48000Y76506D01*
X52600D01*
Y73000D01*
X61000D01*
Y84000D01*
X52600D01*
Y82494D01*
X49240D01*
X45117Y86617D01*
X44497Y87093D01*
X44244Y87198D01*
X38994Y92448D01*
Y97929D01*
X41012D01*
Y106071D01*
X39533D01*
Y126957D01*
X43445D01*
Y136043D01*
X39533D01*
Y157661D01*
X39432Y158435D01*
X39132Y159158D01*
X38657Y159778D01*
X23317Y175117D01*
X22697Y175593D01*
X21975Y175892D01*
X21200Y175994D01*
X17091D01*
X16493Y176453D01*
X15532Y176851D01*
X14500Y176987D01*
D02*
G37*
G36*
X76400Y84000D02*
X68000D01*
Y73000D01*
X76400D01*
Y75006D01*
X80191D01*
X80979Y73979D01*
X82010Y73188D01*
X83211Y72690D01*
X84500Y72520D01*
X85789Y72690D01*
X86990Y73188D01*
X88021Y73979D01*
X88813Y75010D01*
X89310Y76211D01*
X89480Y77500D01*
X89310Y78789D01*
X88813Y79990D01*
X88021Y81021D01*
X86990Y81813D01*
X85789Y82310D01*
X84500Y82480D01*
X83211Y82310D01*
X82010Y81813D01*
X80979Y81021D01*
X80958Y80994D01*
X76400D01*
Y84000D01*
D02*
G37*
G36*
X96000Y67337D02*
X94877Y67189D01*
X93831Y66756D01*
X92933Y66067D01*
X92244Y65169D01*
X91811Y64122D01*
X91663Y63000D01*
X91811Y61878D01*
X92244Y60831D01*
X92933Y59933D01*
X93831Y59244D01*
X94877Y58811D01*
X96000Y58663D01*
X97123Y58811D01*
X98169Y59244D01*
X99067Y59933D01*
X99756Y60831D01*
X100189Y61878D01*
X100337Y63000D01*
X100189Y64122D01*
X99756Y65169D01*
X99067Y66067D01*
X98169Y66756D01*
X97123Y67189D01*
X96000Y67337D01*
D02*
G37*
G36*
X36000D02*
X34877Y67189D01*
X33832Y66756D01*
X32933Y66067D01*
X32244Y65169D01*
X31811Y64122D01*
X31663Y63000D01*
X31811Y61878D01*
X32244Y60831D01*
X32933Y59933D01*
X33832Y59244D01*
X34877Y58811D01*
X36000Y58663D01*
X37122Y58811D01*
X38168Y59244D01*
X39067Y59933D01*
X39756Y60831D01*
X40189Y61878D01*
X40337Y63000D01*
X40189Y64122D01*
X39756Y65169D01*
X39067Y66067D01*
X38168Y66756D01*
X37122Y67189D01*
X36000Y67337D01*
D02*
G37*
G36*
X26000D02*
X24878Y67189D01*
X23832Y66756D01*
X22933Y66067D01*
X22244Y65169D01*
X21811Y64122D01*
X21663Y63000D01*
X21811Y61878D01*
X22244Y60831D01*
X22933Y59933D01*
X23832Y59244D01*
X24878Y58811D01*
X26000Y58663D01*
X27123Y58811D01*
X28168Y59244D01*
X29067Y59933D01*
X29756Y60831D01*
X30189Y61878D01*
X30337Y63000D01*
X30189Y64122D01*
X29756Y65169D01*
X29067Y66067D01*
X28168Y66756D01*
X27123Y67189D01*
X26000Y67337D01*
D02*
G37*
G36*
X139815Y57315D02*
X127185D01*
Y54494D01*
X121809D01*
X121021Y55521D01*
X119990Y56313D01*
X118789Y56810D01*
X117500Y56980D01*
X116211Y56810D01*
X115010Y56313D01*
X113979Y55521D01*
X113188Y54490D01*
X112690Y53289D01*
X112520Y52000D01*
X112690Y50711D01*
X113188Y49510D01*
X113979Y48479D01*
X115010Y47688D01*
X116211Y47190D01*
X117500Y47020D01*
X118789Y47190D01*
X119990Y47688D01*
X121021Y48479D01*
X121042Y48506D01*
X127185D01*
Y44685D01*
X139815D01*
Y57315D01*
D02*
G37*
G36*
X179500Y84439D02*
X178146Y84306D01*
X176845Y83911D01*
X175645Y83270D01*
X174593Y82407D01*
X173731Y81355D01*
X173089Y80155D01*
X172694Y78854D01*
X172561Y77500D01*
X172694Y76146D01*
X173089Y74845D01*
X173731Y73645D01*
X174593Y72593D01*
X175645Y71731D01*
X176845Y71089D01*
X178146Y70694D01*
X179500Y70561D01*
X180854Y70694D01*
X182155Y71089D01*
X183355Y71731D01*
X184318Y72520D01*
X191937D01*
X194739Y69719D01*
X194866Y69272D01*
X194866Y69272D01*
X194866D01*
X194866Y69271D01*
Y62994D01*
X185500D01*
X184725Y62892D01*
X184003Y62593D01*
X183383Y62117D01*
X176883Y55617D01*
X176407Y54997D01*
X176372Y54913D01*
X175453Y53994D01*
X169315D01*
Y57315D01*
X156685D01*
Y44685D01*
X169315D01*
Y48006D01*
X176694D01*
X177469Y48108D01*
X178191Y48407D01*
X178811Y48883D01*
X181117Y51189D01*
X181593Y51809D01*
X181628Y51894D01*
X186740Y57006D01*
X194866D01*
Y50342D01*
X205134D01*
Y54827D01*
X245866D01*
Y50342D01*
X256134D01*
Y55520D01*
X287000D01*
X288289Y55690D01*
X289490Y56187D01*
X289959Y56547D01*
X290953D01*
Y57541D01*
X291313Y58010D01*
X291810Y59211D01*
X291980Y60500D01*
X291810Y61789D01*
X291313Y62990D01*
X290953Y63459D01*
Y64453D01*
X289959D01*
X289490Y64812D01*
X288289Y65310D01*
X287000Y65480D01*
X256134D01*
Y69272D01*
X245866D01*
Y64787D01*
X205134D01*
Y69272D01*
X204980D01*
Y71500D01*
X204810Y72789D01*
X204312Y73990D01*
X203521Y75021D01*
X197521Y81021D01*
X196490Y81813D01*
X195289Y82310D01*
X194000Y82480D01*
X194000Y82480D01*
X184318D01*
X183355Y83270D01*
X182155Y83911D01*
X180854Y84306D01*
X179500Y84439D01*
D02*
G37*
G36*
X287000Y54487D02*
X285968Y54351D01*
X285007Y53953D01*
X284181Y53319D01*
X283547Y52493D01*
X283149Y51532D01*
X283013Y50500D01*
X283149Y49468D01*
X283547Y48507D01*
X284181Y47681D01*
X285007Y47047D01*
X285968Y46649D01*
X287000Y46513D01*
X288032Y46649D01*
X288993Y47047D01*
X289819Y47681D01*
X290453Y48507D01*
X290851Y49468D01*
X290987Y50500D01*
X290851Y51532D01*
X290453Y52493D01*
X289819Y53319D01*
X288993Y53953D01*
X288032Y54351D01*
X287000Y54487D01*
D02*
G37*
G36*
Y44487D02*
X285968Y44351D01*
X285007Y43953D01*
X284181Y43319D01*
X283547Y42493D01*
X283149Y41532D01*
X283013Y40500D01*
X283149Y39468D01*
X283547Y38507D01*
X284181Y37681D01*
X285007Y37047D01*
X285968Y36649D01*
X287000Y36513D01*
X288032Y36649D01*
X288993Y37047D01*
X289819Y37681D01*
X290453Y38507D01*
X290851Y39468D01*
X290987Y40500D01*
X290851Y41532D01*
X290453Y42493D01*
X289819Y43319D01*
X288993Y43953D01*
X288032Y44351D01*
X287000Y44487D01*
D02*
G37*
G36*
X139815Y33315D02*
X127185D01*
Y29744D01*
X120734D01*
X120521Y30021D01*
X119490Y30812D01*
X118289Y31310D01*
X117000Y31480D01*
X115711Y31310D01*
X114510Y30812D01*
X113479Y30021D01*
X112688Y28990D01*
X112190Y27789D01*
X112020Y26500D01*
X112190Y25211D01*
X112688Y24010D01*
X113479Y22979D01*
X114006Y22575D01*
Y17740D01*
X108760Y12494D01*
X95900D01*
Y15000D01*
X87500D01*
Y4000D01*
X95900D01*
Y6506D01*
X110000D01*
X110775Y6608D01*
X111497Y6907D01*
X112117Y7383D01*
X119117Y14383D01*
X119593Y15003D01*
X119698Y15256D01*
X126723Y22281D01*
X127185Y22090D01*
Y20685D01*
X139815D01*
Y33315D01*
D02*
G37*
G36*
X287000Y34487D02*
X285968Y34351D01*
X285007Y33953D01*
X284181Y33319D01*
X283547Y32493D01*
X283149Y31532D01*
X283013Y30500D01*
X283149Y29468D01*
X283547Y28507D01*
X284181Y27681D01*
X285007Y27047D01*
X285968Y26649D01*
X287000Y26513D01*
X288032Y26649D01*
X288993Y27047D01*
X289819Y27681D01*
X290453Y28507D01*
X290851Y29468D01*
X290987Y30500D01*
X290851Y31532D01*
X290453Y32493D01*
X289819Y33319D01*
X288993Y33953D01*
X288032Y34351D01*
X287000Y34487D01*
D02*
G37*
G36*
X100300Y27300D02*
X91700D01*
Y18700D01*
X100300D01*
Y27300D01*
D02*
G37*
G36*
X36000Y27337D02*
X34877Y27189D01*
X33832Y26756D01*
X32933Y26067D01*
X32244Y25168D01*
X31811Y24123D01*
X31663Y23000D01*
X31811Y21878D01*
X32244Y20831D01*
X32933Y19933D01*
X33832Y19244D01*
X34877Y18811D01*
X36000Y18663D01*
X37122Y18811D01*
X38168Y19244D01*
X39067Y19933D01*
X39756Y20831D01*
X40189Y21878D01*
X40337Y23000D01*
X40189Y24123D01*
X39756Y25168D01*
X39067Y26067D01*
X38168Y26756D01*
X37122Y27189D01*
X36000Y27337D01*
D02*
G37*
G36*
X26000D02*
X24878Y27189D01*
X23832Y26756D01*
X22933Y26067D01*
X22244Y25168D01*
X21811Y24123D01*
X21663Y23000D01*
X21811Y21878D01*
X22244Y20831D01*
X22933Y19933D01*
X23832Y19244D01*
X24878Y18811D01*
X26000Y18663D01*
X27123Y18811D01*
X28168Y19244D01*
X29067Y19933D01*
X29756Y20831D01*
X30189Y21878D01*
X30337Y23000D01*
X30189Y24123D01*
X29756Y25168D01*
X29067Y26067D01*
X28168Y26756D01*
X27123Y27189D01*
X26000Y27337D01*
D02*
G37*
G36*
X169315Y33315D02*
X156685D01*
Y20685D01*
X169315D01*
Y24006D01*
X180760D01*
X183690Y21076D01*
X184310Y20600D01*
X184609Y20476D01*
X185032Y20301D01*
X185807Y20199D01*
X194866D01*
Y13728D01*
X205134D01*
Y18213D01*
X245866D01*
Y13728D01*
X256134D01*
Y18213D01*
X260744D01*
X261979Y16979D01*
X261979Y16979D01*
X263010Y16187D01*
X264211Y15690D01*
X265500Y15520D01*
X265500Y15520D01*
X287000D01*
X288289Y15690D01*
X289490Y16187D01*
X290521Y16979D01*
X291313Y18010D01*
X291810Y19211D01*
X291980Y20500D01*
X291810Y21789D01*
X291313Y22990D01*
X290521Y24021D01*
X289490Y24813D01*
X288289Y25310D01*
X287000Y25480D01*
X267563D01*
X266328Y26714D01*
X265297Y27505D01*
X264096Y28003D01*
X262807Y28173D01*
X262807Y28173D01*
X256134D01*
Y32658D01*
X245866D01*
Y28173D01*
X205134D01*
Y32658D01*
X194866D01*
Y26187D01*
X187047D01*
X184117Y29117D01*
X183497Y29593D01*
X182775Y29892D01*
X182000Y29994D01*
X169315D01*
Y33315D01*
D02*
G37*
G36*
X52500Y28480D02*
X51211Y28310D01*
X50010Y27812D01*
X48979Y27021D01*
X48188Y25990D01*
X47690Y24789D01*
X47520Y23500D01*
X47690Y22211D01*
X48188Y21010D01*
X48979Y19979D01*
X50010Y19187D01*
X50506Y18982D01*
Y12500D01*
X50608Y11725D01*
X50907Y11003D01*
X51383Y10383D01*
X53883Y7883D01*
X54503Y7407D01*
X55225Y7108D01*
X56000Y7006D01*
X72100D01*
Y4000D01*
X80500D01*
Y15000D01*
X72100D01*
Y12994D01*
X57240D01*
X56494Y13740D01*
Y20595D01*
X56813Y21010D01*
X57310Y22211D01*
X57480Y23500D01*
X57310Y24789D01*
X56813Y25990D01*
X56021Y27021D01*
X54990Y27812D01*
X53789Y28310D01*
X52500Y28480D01*
D02*
G37*
%LPD*%
G36*
X104500Y227000D02*
X91500D01*
X91925Y239500D01*
X92000D01*
X104500Y227000D01*
D02*
G37*
G36*
X58500Y99400D02*
X44450Y113450D01*
X58500Y127500D01*
X58500Y99400D01*
D02*
G37*
G36*
X45500Y84500D02*
X36000D01*
Y94000D01*
X45500Y84500D01*
D02*
G37*
G36*
X117250Y14250D02*
Y26750D01*
X130062Y27062D01*
X117250Y14250D01*
D02*
G37*
D10*
X282000Y131000D02*
Y265000D01*
X109000Y129781D02*
X109610Y130390D01*
X281390D01*
X282000Y131000D01*
X114715Y182285D02*
X134000Y163000D01*
X196000Y146500D02*
Y154000D01*
X187000Y163000D02*
X196000Y154000D01*
X134000Y163000D02*
X187000D01*
X110000Y254500D02*
X119000D01*
X109500Y254000D02*
X110000Y254500D01*
X119000D02*
X131500Y242000D01*
X224000D01*
X247000Y265000D01*
X282000D01*
X91000Y229000D02*
Y244075D01*
Y229000D02*
X92000Y228000D01*
X82500Y260500D02*
X85510Y263510D01*
X90510D01*
X91000Y264000D01*
X75000Y260500D02*
X82500D01*
X74500Y261000D02*
X75000Y260500D01*
X173500Y267000D02*
X182747Y276247D01*
X94000Y267000D02*
X173500D01*
X91000Y264000D02*
X94000Y267000D01*
X182747Y276247D02*
Y281747D01*
X183500Y282500D01*
X73500Y235000D02*
Y241425D01*
X70205Y231705D02*
X73500Y235000D01*
X92469Y228468D02*
X179032D01*
X235500Y172000D01*
X92000Y228000D02*
X92469Y228468D01*
X36539Y102000D02*
Y131500D01*
X235500Y153500D02*
Y172000D01*
X59000Y101500D02*
X60000Y102500D01*
X58518Y101982D02*
X59000Y101500D01*
X58518Y101982D02*
Y129443D01*
X57461Y130500D02*
X58518Y129443D01*
X77600Y130500D02*
Y149116D01*
X16461Y97742D02*
Y131500D01*
Y97500D02*
Y97742D01*
X16500Y100500D01*
X16457Y97500D02*
X16461Y97742D01*
X91700Y9500D02*
X110000D01*
X56000Y10000D02*
X75800D01*
X76300Y9500D01*
X53500Y12500D02*
X56000Y10000D01*
X53500Y12500D02*
Y21435D01*
X52500Y22435D02*
X53500Y21435D01*
X52500Y22435D02*
Y23500D01*
X69776Y231705D02*
X70205D01*
X35425Y102000D02*
X36000Y101425D01*
Y84500D02*
Y101425D01*
X21200Y173000D02*
X36539Y157661D01*
Y131500D02*
Y157661D01*
X57461Y130500D02*
X58000Y131039D01*
X45300Y168500D02*
X58000Y155800D01*
Y131039D02*
Y155800D01*
X46800Y111100D02*
X47600D01*
X185500Y60000D02*
X199807D01*
X200000Y59807D01*
X179000Y53500D02*
X185500Y60000D01*
X179000Y53306D02*
Y53500D01*
X176694Y51000D02*
X179000Y53306D01*
X163000Y51000D02*
X176694D01*
X185807Y23193D02*
X200000D01*
X182000Y27000D02*
X185807Y23193D01*
X163000Y27000D02*
X182000D01*
X251000Y59807D02*
X251693Y60500D01*
X117500Y52000D02*
X118000Y51500D01*
X133000D01*
X133500Y51000D01*
X110000Y9500D02*
X117000Y16500D01*
Y26500D01*
X117250Y26750D01*
X133250D01*
X133500Y27000D01*
X84000Y78000D02*
X84500Y77500D01*
X72700Y78000D02*
X84000D01*
X72200Y78500D02*
X72700Y78000D01*
X36000Y84500D02*
X43000D01*
X48000Y79500D01*
X55800D01*
X56800Y78500D01*
X16300Y86500D02*
X16457Y97500D01*
X16461Y131500D02*
Y147039D01*
X5000Y158500D02*
X16461Y147039D01*
X5000Y158500D02*
Y190694D01*
X7306Y193000D01*
X14500D01*
X77539Y130500D02*
X77600D01*
X33716Y193000D02*
X77600Y149116D01*
X14500Y193000D02*
X33716D01*
X14500Y173000D02*
X21200D01*
X77539Y103386D02*
Y130500D01*
D11*
X179500Y77500D02*
X194000D01*
X200000Y71500D01*
Y59807D02*
Y71500D01*
Y23193D02*
X251000D01*
X262807D01*
X265500Y20500D02*
X287000D01*
X262807Y23193D02*
X265500Y20500D01*
X251693Y60500D02*
X287000D01*
X200000Y59807D02*
X251000D01*
D13*
X14500Y173000D02*
D03*
Y183000D02*
D03*
Y193000D02*
D03*
Y203000D02*
D03*
X287000Y20500D02*
D03*
Y30500D02*
D03*
Y40500D02*
D03*
Y50500D02*
D03*
X9000Y305000D02*
D03*
Y295000D02*
D03*
Y285000D02*
D03*
Y275000D02*
D03*
X60500Y284500D02*
D03*
X40500D02*
D03*
D14*
X14500Y213000D02*
D03*
X287000Y60500D02*
D03*
X9000Y265000D02*
D03*
D15*
X156000Y299500D02*
D03*
X183500D02*
D03*
X208500D02*
D03*
X236000D02*
D03*
X156000Y99500D02*
D03*
X196000D02*
D03*
X236000D02*
D03*
D16*
X96000Y63000D02*
D03*
X36000D02*
D03*
X26000D02*
D03*
Y23000D02*
D03*
X36000D02*
D03*
D17*
X96000D02*
D03*
D18*
X92000Y192500D02*
D03*
D19*
Y202500D02*
D03*
Y212500D02*
D03*
D20*
X114724Y221500D02*
D03*
X114724Y182295D02*
D03*
X69776Y192500D02*
D03*
X69776Y231705D02*
D03*
X109500Y254000D02*
D03*
Y294000D02*
D03*
X109000Y89781D02*
D03*
Y129781D02*
D03*
X282000Y131000D02*
D03*
Y91000D02*
D03*
Y265000D02*
D03*
Y305000D02*
D03*
D21*
X91000Y303500D02*
D03*
D22*
Y264000D02*
D03*
X35000Y261000D02*
D03*
X76500Y303500D02*
D03*
D23*
X74500Y261000D02*
D03*
X26500Y303500D02*
D03*
D24*
X196000Y146500D02*
D03*
X92000Y228000D02*
D03*
X52500Y23500D02*
D03*
X235500Y153500D02*
D03*
X117000Y26500D02*
D03*
X84500Y77500D02*
D03*
X117500Y52000D02*
D03*
X16300Y86500D02*
D03*
X36000Y84500D02*
D03*
X183500Y282500D02*
D03*
X46800Y111100D02*
D03*
X45300Y168500D02*
D03*
D25*
X283000Y200000D02*
D03*
D26*
X179500Y77500D02*
D03*
D27*
X163000Y51000D02*
D03*
Y27000D02*
D03*
X133500D02*
D03*
Y51000D02*
D03*
D28*
X91700Y9500D02*
D03*
X76300D02*
D03*
X72200Y78500D02*
D03*
X56800D02*
D03*
D29*
X77539Y130500D02*
D03*
X57461D02*
D03*
X36539Y131500D02*
D03*
X16461D02*
D03*
D30*
X18575Y102000D02*
D03*
X35425D02*
D03*
X59575Y101500D02*
D03*
X76425D02*
D03*
X73575Y245000D02*
D03*
X90425D02*
D03*
D31*
X50193Y247000D02*
D03*
X46807D02*
D03*
D32*
X251000Y23193D02*
D03*
Y59807D02*
D03*
X200000Y23193D02*
D03*
Y59807D02*
D03*
D33*
X54000Y247000D02*
X68000Y261000D01*
X74500D01*
X50193Y247000D02*
X54000D01*
X35000Y252000D02*
Y261000D01*
Y252000D02*
X40000Y247000D01*
X46807D01*
M02*
