G04*
G04 #@! TF.GenerationSoftware,Altium Limited,Altium Designer,19.0.10 (269)*
G04*
G04 Layer_Color=32896*
%FSLAX25Y25*%
%MOIN*%
G70*
G01*
G75*
%ADD11C,0.00787*%
%ADD12C,0.01000*%
%ADD56C,0.00500*%
%ADD57C,0.00600*%
D11*
X80583Y192500D02*
G03*
X80583Y192500I-394J0D01*
G01*
X42177Y102000D02*
G03*
X42177Y102000I-394J0D01*
G01*
X83177Y101500D02*
G03*
X83177Y101500I-394J0D01*
G01*
X67610Y245000D02*
G03*
X67610Y245000I-394J0D01*
G01*
X57067Y140933D02*
X83445D01*
X57067Y120067D02*
X72717D01*
X16067Y141933D02*
X42445D01*
X16067Y121067D02*
X31717D01*
X271276Y21224D02*
Y51638D01*
X230724Y21224D02*
Y68272D01*
X220276Y21224D02*
Y51638D01*
X179724Y21224D02*
Y68272D01*
D12*
X109000Y187000D02*
X121000D01*
Y216000D01*
X109000Y187000D02*
Y216000D01*
X121000D01*
X63500Y227000D02*
X75500D01*
X63500Y198000D02*
Y227000D01*
X75500Y198000D02*
Y227000D01*
X63500Y198000D02*
X75500D01*
X99000Y301500D02*
X120000D01*
X99000Y247000D02*
Y301500D01*
X120000Y247000D02*
Y301500D01*
X99000Y247000D02*
X120000D01*
X98500Y136781D02*
X119500D01*
X98500Y82281D02*
Y136781D01*
X119500Y82281D02*
Y136781D01*
X98500Y82281D02*
X119500D01*
X271500Y84000D02*
X292500D01*
Y138500D01*
X271500Y84000D02*
Y138500D01*
X292500D01*
X271500Y312000D02*
X292500D01*
X271500Y257500D02*
Y312000D01*
X292500Y257500D02*
Y312000D01*
X271500Y257500D02*
X292500D01*
X101000Y174500D02*
Y180498D01*
X98001D01*
X97001Y179498D01*
Y177499D01*
X98001Y176499D01*
X101000D01*
X92003Y180498D02*
X94002D01*
X95002Y179498D01*
Y175500D01*
X94002Y174500D01*
X92003D01*
X91003Y175500D01*
Y179498D01*
X92003Y180498D01*
X89004D02*
X85005D01*
X87005D01*
Y174500D01*
X83006D02*
X81006D01*
X82006D01*
Y180498D01*
X83006Y179498D01*
X119500Y169500D02*
Y175498D01*
X116501D01*
X115501Y174498D01*
Y172499D01*
X116501Y171499D01*
X119500D01*
X117501D02*
X115501Y169500D01*
X109503Y175498D02*
X111503Y174498D01*
X113502Y172499D01*
Y170500D01*
X112502Y169500D01*
X110503D01*
X109503Y170500D01*
Y171499D01*
X110503Y172499D01*
X113502D01*
X24200Y80098D02*
Y75100D01*
X23200Y74100D01*
X21201D01*
X20201Y75100D01*
Y80098D01*
X18202Y79098D02*
X17202Y80098D01*
X15203D01*
X14203Y79098D01*
Y78099D01*
X15203Y77099D01*
X16203D01*
X15203D01*
X14203Y76099D01*
Y75100D01*
X15203Y74100D01*
X17202D01*
X18202Y75100D01*
X153000Y10502D02*
Y16500D01*
X149001D01*
X147002D02*
X145003D01*
X146002D01*
Y10502D01*
X147002Y11502D01*
X23876Y117898D02*
Y111900D01*
X20877D01*
X19878Y112900D01*
Y116898D01*
X20877Y117898D01*
X23876D01*
X14879Y111900D02*
Y117898D01*
X17878Y114899D01*
X13880D01*
X64876Y117398D02*
Y111400D01*
X61877D01*
X60878Y112400D01*
Y116398D01*
X61877Y117398D01*
X64876D01*
X54880Y111400D02*
X58878D01*
X54880Y115399D01*
Y116398D01*
X55879Y117398D01*
X57879D01*
X58878Y116398D01*
X15441Y152398D02*
X16440Y153398D01*
X18440D01*
X19439Y152398D01*
Y148400D01*
X18440Y147400D01*
X16440D01*
X15441Y148400D01*
X13441Y152398D02*
X12442Y153398D01*
X10442D01*
X9443Y152398D01*
Y151399D01*
X10442Y150399D01*
X9443Y149399D01*
Y148400D01*
X10442Y147400D01*
X12442D01*
X13441Y148400D01*
Y149399D01*
X12442Y150399D01*
X13441Y151399D01*
Y152398D01*
X12442Y150399D02*
X10442D01*
X77001Y151498D02*
X78001Y152498D01*
X80000D01*
X81000Y151498D01*
Y147500D01*
X80000Y146500D01*
X78001D01*
X77001Y147500D01*
X75002Y152498D02*
X71003D01*
Y151498D01*
X75002Y147500D01*
Y146500D01*
X87501Y80998D02*
X88501Y81998D01*
X90500D01*
X91500Y80998D01*
Y77000D01*
X90500Y76000D01*
X88501D01*
X87501Y77000D01*
X81503Y81998D02*
X83503Y80998D01*
X85502Y78999D01*
Y77000D01*
X84502Y76000D01*
X82503D01*
X81503Y77000D01*
Y77999D01*
X82503Y78999D01*
X85502D01*
X107001Y11498D02*
X108001Y12498D01*
X110000D01*
X111000Y11498D01*
Y7500D01*
X110000Y6500D01*
X108001D01*
X107001Y7500D01*
X101003Y12498D02*
X105002D01*
Y9499D01*
X103003Y10499D01*
X102003D01*
X101003Y9499D01*
Y7500D01*
X102003Y6500D01*
X104002D01*
X105002Y7500D01*
X255001Y7998D02*
X256001Y8998D01*
X258000D01*
X259000Y7998D01*
Y4000D01*
X258000Y3000D01*
X256001D01*
X255001Y4000D01*
X253002Y3000D02*
X251003D01*
X252002D01*
Y8998D01*
X253002Y7998D01*
X248004D02*
X247004Y8998D01*
X245005D01*
X244005Y7998D01*
Y6999D01*
X245005Y5999D01*
X246004D01*
X245005D01*
X244005Y4999D01*
Y4000D01*
X245005Y3000D01*
X247004D01*
X248004Y4000D01*
X64000Y242998D02*
Y237000D01*
X61001D01*
X60001Y238000D01*
Y241998D01*
X61001Y242998D01*
X64000D01*
X54003D02*
X58002D01*
Y239999D01*
X56003Y240999D01*
X55003D01*
X54003Y239999D01*
Y238000D01*
X55003Y237000D01*
X57002D01*
X58002Y238000D01*
X75000Y179000D02*
Y184998D01*
X72001D01*
X71001Y183998D01*
Y181999D01*
X72001Y180999D01*
X75000D01*
X73001D02*
X71001Y179000D01*
X65003Y184998D02*
X69002D01*
Y181999D01*
X67003Y182999D01*
X66003D01*
X65003Y181999D01*
Y180000D01*
X66003Y179000D01*
X68002D01*
X69002Y180000D01*
X26500Y287500D02*
Y293498D01*
X23501D01*
X22501Y292498D01*
Y290499D01*
X23501Y289499D01*
X26500D01*
X24501D02*
X22501Y287500D01*
X20502Y292498D02*
X19502Y293498D01*
X17503D01*
X16503Y292498D01*
Y291499D01*
X17503Y290499D01*
X18503D01*
X17503D01*
X16503Y289499D01*
Y288500D01*
X17503Y287500D01*
X19502D01*
X20502Y288500D01*
X75001Y292498D02*
X79000D01*
Y289499D01*
X77001D01*
X79000D01*
Y286500D01*
X73002D02*
X71003D01*
X72002D01*
Y292498D01*
X73002Y291498D01*
X28500Y263998D02*
Y258000D01*
X25501D01*
X24501Y259000D01*
Y262998D01*
X25501Y263998D01*
X28500D01*
X22502Y262998D02*
X21502Y263998D01*
X19503D01*
X18503Y262998D01*
Y261999D01*
X19503Y260999D01*
X20503D01*
X19503D01*
X18503Y259999D01*
Y259000D01*
X19503Y258000D01*
X21502D01*
X22502Y259000D01*
X83000Y280998D02*
Y275000D01*
X80001D01*
X79001Y276000D01*
Y279998D01*
X80001Y280998D01*
X83000D01*
X77002Y275000D02*
X75003D01*
X76002D01*
Y280998D01*
X77002Y279998D01*
X204501Y7498D02*
X205501Y8498D01*
X207500D01*
X208500Y7498D01*
Y3500D01*
X207500Y2500D01*
X205501D01*
X204501Y3500D01*
X202502Y2500D02*
X200503D01*
X201502D01*
Y8498D01*
X202502Y7498D01*
X193505Y2500D02*
X197504D01*
X193505Y6499D01*
Y7498D01*
X194504Y8498D01*
X196504D01*
X197504Y7498D01*
X34501Y249498D02*
X35501Y250498D01*
X37500D01*
X38500Y249498D01*
Y245500D01*
X37500Y244500D01*
X35501D01*
X34501Y245500D01*
X32502Y244500D02*
X30503D01*
X31502D01*
Y250498D01*
X32502Y249498D01*
X27504D02*
X26504Y250498D01*
X24505D01*
X23505Y249498D01*
Y245500D01*
X24505Y244500D01*
X26504D01*
X27504Y245500D01*
Y249498D01*
X290001Y250998D02*
X291001Y251998D01*
X293000D01*
X294000Y250998D01*
Y247000D01*
X293000Y246000D01*
X291001D01*
X290001Y247000D01*
X285003Y246000D02*
Y251998D01*
X288002Y248999D01*
X284003D01*
X281001Y146994D02*
X282001Y147993D01*
X284000D01*
X285000Y146994D01*
Y142995D01*
X284000Y141995D01*
X282001D01*
X281001Y142995D01*
X276003Y141995D02*
Y147993D01*
X279002Y144994D01*
X275003D01*
X272004Y148993D02*
Y146994D01*
X273004Y145994D01*
X111501Y242998D02*
X112501Y243998D01*
X114500D01*
X115500Y242998D01*
Y239000D01*
X114500Y238000D01*
X112501D01*
X111501Y239000D01*
X109502Y242998D02*
X108502Y243998D01*
X106503D01*
X105503Y242998D01*
Y241999D01*
X106503Y240999D01*
X107503D01*
X106503D01*
X105503Y239999D01*
Y239000D01*
X106503Y238000D01*
X108502D01*
X109502Y239000D01*
X108001Y145274D02*
X109001Y146274D01*
X111000D01*
X112000Y145274D01*
Y141275D01*
X111000Y140276D01*
X109001D01*
X108001Y141275D01*
X106002Y145274D02*
X105002Y146274D01*
X103003D01*
X102003Y145274D01*
Y144274D01*
X103003Y143275D01*
X104003D01*
X103003D01*
X102003Y142275D01*
Y141275D01*
X103003Y140276D01*
X105002D01*
X106002Y141275D01*
X99004Y147273D02*
Y145274D01*
X100004Y144274D01*
D56*
X82512Y183740D02*
X101528D01*
X82512D02*
Y221260D01*
X101528D01*
Y183740D02*
Y221260D01*
X38024Y96193D02*
Y97669D01*
X15976Y96193D02*
X38024D01*
X15976D02*
Y97669D01*
Y106331D02*
Y107807D01*
X38024D01*
Y106331D02*
Y107807D01*
X79024Y95693D02*
Y97169D01*
X56976Y95693D02*
X79024D01*
X56976D02*
Y97169D01*
Y105831D02*
Y107307D01*
X79024D01*
Y105831D02*
Y107307D01*
X90815Y268512D02*
Y273630D01*
Y294102D02*
Y299220D01*
X85500Y273630D02*
X90815D01*
X96130D01*
X90815Y294102D02*
X96130D01*
X85500D02*
X90815D01*
X85500Y290854D02*
X96130D01*
Y273630D02*
Y290854D01*
Y294102D01*
X85500Y290854D02*
Y294102D01*
Y273630D02*
Y290854D01*
X39512Y261185D02*
X44630D01*
X65102D02*
X70220D01*
X44630D02*
Y266500D01*
Y255870D02*
Y261185D01*
X65102Y255870D02*
Y261185D01*
Y266500D01*
X61854Y255870D02*
Y266500D01*
X44630Y255870D02*
X61854D01*
X65102D01*
X61854Y266500D02*
X65102D01*
X44630D02*
X61854D01*
X46433Y249421D02*
X50567D01*
X46433Y244579D02*
X50567D01*
X62956Y293500D02*
X66500D01*
X45500D02*
X62956D01*
X34500Y275500D02*
Y293500D01*
X46610D01*
X34500Y275500D02*
X46610D01*
X66500D02*
Y293500D01*
X45000Y275500D02*
X66500D01*
X70976Y239193D02*
Y240669D01*
Y239193D02*
X93024D01*
Y240669D01*
Y249331D02*
Y250807D01*
X70976D02*
X93024D01*
X70976Y249331D02*
Y250807D01*
D57*
X80800Y5000D02*
X87200D01*
X80800Y14000D02*
X87200D01*
X61300Y74000D02*
X67700D01*
X61300Y83000D02*
X67700D01*
M02*
