G04*
G04 #@! TF.GenerationSoftware,Altium Limited,Altium Designer,19.0.10 (269)*
G04*
G04 Layer_Color=16711935*
%FSLAX25Y25*%
%MOIN*%
G70*
G01*
G75*
%ADD13C,0.06706*%
%ADD14R,0.06706X0.06706*%
%ADD15C,0.16627*%
%ADD16C,0.07400*%
%ADD17R,0.07400X0.07400*%
%ADD18R,0.05713X0.05713*%
%ADD19C,0.05713*%
%ADD20C,0.08800*%
%ADD21R,0.07296X0.07296*%
%ADD22C,0.07296*%
%ADD23R,0.07296X0.07296*%
%ADD24C,0.08674*%
%ADD25C,0.20485*%
%ADD26C,0.12611*%
%ADD50R,0.11430X0.11430*%
%ADD51R,0.07200X0.09800*%
%ADD52R,0.12611X0.07887*%
%ADD53R,0.09973X0.06942*%
%ADD54R,0.02926X0.03162*%
%ADD55R,0.09068X0.17729*%
D13*
X14500Y173000D02*
D03*
Y183000D02*
D03*
Y193000D02*
D03*
Y203000D02*
D03*
X287000Y20500D02*
D03*
Y30500D02*
D03*
Y40500D02*
D03*
Y50500D02*
D03*
X9000Y305000D02*
D03*
Y295000D02*
D03*
Y285000D02*
D03*
Y275000D02*
D03*
X60500Y284500D02*
D03*
X40500D02*
D03*
D14*
X14500Y213000D02*
D03*
X287000Y60500D02*
D03*
X9000Y265000D02*
D03*
D15*
X156000Y299500D02*
D03*
X183500D02*
D03*
X208500D02*
D03*
X236000D02*
D03*
X156000Y99500D02*
D03*
X196000D02*
D03*
X236000D02*
D03*
D16*
X96000Y63000D02*
D03*
X36000D02*
D03*
X26000D02*
D03*
Y23000D02*
D03*
X36000D02*
D03*
D17*
X96000D02*
D03*
D18*
X92000Y192500D02*
D03*
D19*
Y202500D02*
D03*
Y212500D02*
D03*
D20*
X114724Y221500D02*
D03*
X114724Y182295D02*
D03*
X69776Y192500D02*
D03*
X69776Y231705D02*
D03*
X109500Y254000D02*
D03*
Y294000D02*
D03*
X109000Y89781D02*
D03*
Y129781D02*
D03*
X282000Y131000D02*
D03*
Y91000D02*
D03*
Y265000D02*
D03*
Y305000D02*
D03*
D21*
X91000Y303500D02*
D03*
D22*
Y264000D02*
D03*
X35000Y261000D02*
D03*
X76500Y303500D02*
D03*
D23*
X74500Y261000D02*
D03*
X26500Y303500D02*
D03*
D24*
X196000Y146500D02*
D03*
X92000Y228000D02*
D03*
X52500Y23500D02*
D03*
X235500Y153500D02*
D03*
X117000Y26500D02*
D03*
X84500Y77500D02*
D03*
X117500Y52000D02*
D03*
X16300Y86500D02*
D03*
X36000Y84500D02*
D03*
X183500Y282500D02*
D03*
X46800Y111100D02*
D03*
X45300Y168500D02*
D03*
D25*
X283000Y200000D02*
D03*
D26*
X179500Y77500D02*
D03*
D50*
X163000Y51000D02*
D03*
Y27000D02*
D03*
X133500D02*
D03*
Y51000D02*
D03*
D51*
X91700Y9500D02*
D03*
X76300D02*
D03*
X72200Y78500D02*
D03*
X56800D02*
D03*
D52*
X77539Y130500D02*
D03*
X57461D02*
D03*
X36539Y131500D02*
D03*
X16461D02*
D03*
D53*
X18575Y102000D02*
D03*
X35425D02*
D03*
X59575Y101500D02*
D03*
X76425D02*
D03*
X73575Y245000D02*
D03*
X90425D02*
D03*
D54*
X50193Y247000D02*
D03*
X46807D02*
D03*
D55*
X251000Y23193D02*
D03*
Y59807D02*
D03*
X200000Y23193D02*
D03*
Y59807D02*
D03*
M02*
