G04*
G04 #@! TF.GenerationSoftware,Altium Limited,Altium Designer,19.0.10 (269)*
G04*
G04 Layer_Color=65535*
%FSLAX25Y25*%
%MOIN*%
G70*
G01*
G75*
%ADD10C,0.19410*%
%ADD11C,0.00787*%
%ADD12C,0.01000*%
D10*
X132496Y264500D02*
D03*
X258000D02*
D03*
Y199500D02*
D03*
Y134500D02*
D03*
X132496Y199500D02*
D03*
Y134500D02*
D03*
D11*
X9500Y218000D02*
X19500D01*
Y168000D02*
Y218000D01*
X9500Y168000D02*
Y218000D01*
Y168000D02*
X19500D01*
X282000Y65500D02*
X292000D01*
Y15500D02*
Y65500D01*
X282000Y15500D02*
Y65500D01*
Y15500D02*
X292000D01*
X4000Y260000D02*
X14000D01*
X4000D02*
Y310000D01*
X14000Y260000D02*
Y310000D01*
X4000D02*
X14000D01*
D12*
X258500Y125500D02*
X268000D01*
X258000Y143500D02*
X268000D01*
X258000Y190500D02*
X268000D01*
X258000Y208500D02*
X268000D01*
X258500Y255500D02*
X268000D01*
X258000Y273500D02*
X268000D01*
X123000Y125500D02*
X132500D01*
X123000Y143500D02*
X132500D01*
X123000Y190500D02*
X133000D01*
X123000Y208500D02*
X132000D01*
X155500Y300000D02*
Y300500D01*
X123000Y313496D02*
X268000D01*
X123500Y273500D02*
X132496D01*
X123500Y255500D02*
X132496D01*
X123000Y85500D02*
Y313496D01*
Y85500D02*
X268000D01*
Y313496D01*
X136998Y239000D02*
X132000D01*
X131000Y238000D01*
Y236001D01*
X132000Y235001D01*
X136998D01*
X131000Y229003D02*
Y233002D01*
X134999Y229003D01*
X135998D01*
X136998Y230003D01*
Y232002D01*
X135998Y233002D01*
X13699Y228098D02*
X11699D01*
X12699D01*
Y223100D01*
X11699Y222100D01*
X10700D01*
X9700Y223100D01*
X19697Y228098D02*
X15698D01*
Y225099D01*
X17697Y226099D01*
X18697D01*
X19697Y225099D01*
Y223100D01*
X18697Y222100D01*
X16698D01*
X15698Y223100D01*
X289498Y74001D02*
Y76001D01*
Y75001D01*
X284500D01*
X283500Y76001D01*
Y77000D01*
X284500Y78000D01*
X283500Y69003D02*
X289498D01*
X286499Y72002D01*
Y68003D01*
X8999Y256498D02*
X6999D01*
X7999D01*
Y251500D01*
X6999Y250500D01*
X6000D01*
X5000Y251500D01*
X10998Y255498D02*
X11998Y256498D01*
X13997D01*
X14997Y255498D01*
Y254499D01*
X13997Y253499D01*
X12997D01*
X13997D01*
X14997Y252499D01*
Y251500D01*
X13997Y250500D01*
X11998D01*
X10998Y251500D01*
M02*
